<?xml version="1.0" encoding="UTF-8" standalone="no"?>
<!-- Created with Inkscape (http://www.inkscape.org/) -->

<svg
   width="193.80508mm"
   height="193.80508mm"
   viewBox="0 0 193.80508 193.80508"
   version="1.1"
   id="svg1"
   xmlns:xlink="http://www.w3.org/1999/xlink"
   xmlns="http://www.w3.org/2000/svg"
   xmlns:svg="http://www.w3.org/2000/svg">
  <g
     id="layer1"
     transform="translate(-12.122139,-60.809219)">
    <circle
       style="fill:#028000;fill-opacity:1;stroke:none;stroke-width:7.9375;stroke-linejoin:round"
       id="path1"
       cx="109.02468"
       cy="157.71176"
       r="96.902542" />
    <circle
       style="fill:none;fill-opacity:1;stroke:#91d190;stroke-width:6.70609;stroke-linejoin:round;stroke-opacity:1"
       id="circle88"
       cx="109.02468"
       cy="157.71176"
       r="81.869209" />
    <path
       style="fill:#028000;fill-opacity:1;stroke:none;stroke-width:1;stroke-linejoin:round;stroke-dasharray:none;stroke-opacity:1"
       d="m 20.256302,134.46859 35.248039,-29.82527 105.292219,1.80759 30.72907,12.65314 13.10504,40.21892 -11.29745,31.18096 -17.17213,1.35569 -16.26832,18.07592 12.65314,15.36453 -28.46957,18.07592 -41.12271,4.51898 -59.650532,-23.95059 18.527816,-9.94175 -19.431612,-18.97972 -23.498694,-15.81643 z"
       id="path89" />
    <text
       xml:space="preserve"
       transform="scale(0.26458333)"
       id="text1"
       style="white-space:pre;shape-inside:url(#rect1);display:inline;fill:#028000;fill-opacity:1;stroke:none;stroke-width:30;stroke-linejoin:round" />
    <path
       d="m 64.2806,232.85371 0.129598,0.0917 -0.101873,0.144 -4.593505,-3.24972 0.101872,-0.144 0.129597,0.0917 q 0.316794,0.22412 0.593225,0.1388 0.301017,-0.0895 0.423264,-0.26233 0.122247,-0.1728 0.172495,-0.39653 l 0.547441,-2.27034 -3.36953,-2.38381 -2.001812,1.24143 q -0.204433,0.13626 -0.326679,0.30906 -0.11206,0.15839 -0.09628,0.47205 0.02596,0.29925 0.342757,0.52337 l 0.115197,0.0815 -0.101872,0.144 -3.081537,-2.18007 0.101873,-0.14399 0.129597,0.0917 q 0.331193,0.23431 0.805007,0.26702 0.473815,0.0327 0.975052,-0.21768 l 8.654245,-5.1778 q 1.68532,-0.94677 2.05451,-1.377 l 0.129598,0.0917 -2.365352,12.41421 q -0.07943,0.5704 0.09895,1.0207 0.188572,0.4359 0.534165,0.6804 z m -5.294758,-8.67217 2.879941,2.03744 1.109283,-4.53049 z m 7.11789,8.29229 q -0.721566,-2.03449 0.452693,-4.32647 1.174259,-2.29198 3.238985,-2.87914 2.080423,-0.57912 4.545089,0.68361 1.098895,0.563 2.061836,1.314 0.970984,0.73529 1.461421,1.40276 l -1.278816,2.49607 -0.125589,-0.0643 q 0.63634,-2.94414 -1.969612,-4.27925 -1.632645,-0.83646 -3.083192,-0.13283 -1.426806,0.69598 -2.472379,2.73678 -1.03753,2.02511 -0.839347,3.53381 0.213881,1.51673 1.642445,2.24863 0.784926,0.40215 1.597852,0.3628 0.820969,-0.055 1.378936,-0.64123 l 0.980843,-1.87578 q 0.152814,-0.29827 0.04486,-0.55177 -0.08421,-0.26115 -0.413881,-0.43005 l -0.219779,-0.1126 0.06434,-0.12559 4.034516,2.06702 -0.06434,0.12558 -0.188382,-0.0965 q -0.690734,-0.35389 -1.012449,0.27405 l -1.077745,2.1036 q -0.911377,0.42494 -2.503896,0.32252 -1.592519,-0.10241 -3.146671,-0.89865 -2.362431,-1.23018 -3.107739,-3.25701 z m 16.664576,-1.84006 -0.53302,-0.18571 -2.878469,8.26181 q -0.13928,0.39977 0.04018,0.74248 0.20192,0.33185 0.551715,0.45372 l 0.183226,0.0638 -0.05803,0.16657 -4.580643,-1.59593 0.05803,-0.16657 0.199883,0.0696 q 0.366451,0.12768 0.703355,-0.0351 0.353561,-0.157 0.481235,-0.52345 l 2.762401,-7.92867 q 0.127674,-0.36646 -0.05179,-0.70916 -0.162802,-0.33691 -0.512597,-0.45878 l -0.216539,-0.0754 0.05803,-0.16657 5.113664,1.78163 q 1.499119,0.52231 2.312071,1.4593 0.906337,1.04425 0.384034,2.54337 -0.336595,0.9661 -1.192344,1.54585 -0.849945,0.5631 -2.057304,0.32924 0.397506,0.3066 0.6855,0.87391 0.304652,0.57311 0.420275,1.09905 0.202228,1.13515 0.506658,2.1378 0.310233,0.98599 0.57878,1.34105 0.285205,0.36087 0.801568,0.54078 l -0.05803,0.16657 -1.399178,-0.48749 q -1.382521,-0.48167 -2.016014,-1.07596 -0.616835,-0.58849 -0.874838,-1.72439 -0.400382,-1.74588 -0.326754,-2.65416 -0.02578,-0.56935 -0.221898,-0.91786 -0.17946,-0.34271 -0.417706,-0.46307 l 0.04643,-0.13326 0.416422,0.14509 q 1.421638,0.47663 2.312652,-1.06214 0.153678,-0.22664 0.217515,-0.40987 0.06384,-0.18322 0.157444,-0.50551 0.09941,-0.33894 0.03881,-0.80834 -0.03814,-0.48026 -0.274129,-0.76795 -0.406099,-0.49638 -0.949973,-0.70455 -0.177422,-0.0805 -0.410619,-0.16174 z m 3.65665,11.3174 0.205884,0.0491 q 0.411767,0.0983 0.764861,-0.0895 0.357189,-0.2049 0.447279,-0.58235 l 1.941042,-8.1324 q 0.09009,-0.37746 -0.140152,-0.70443 -0.226148,-0.34412 -0.637915,-0.44241 l -0.205884,-0.0491 0.04095,-0.17157 4.872579,1.16299 -0.04095,0.17157 -0.205883,-0.0491 q -0.394611,-0.0942 -0.747705,0.0936 -0.353093,0.18773 -0.460341,0.56109 l -1.945137,8.14956 q -0.07703,0.39871 0.153214,0.72568 0.230243,0.32697 0.624853,0.42115 l 0.205884,0.0491 -0.04095,0.17157 -4.872579,-1.16298 z m 12.101155,2.72438 q -2.935715,-0.40403 -4.425912,-2.05894 -1.487896,-1.6724 -1.14967,-4.24317 0.338225,-2.57076 2.190575,-3.8037 1.869837,-1.23064 4.825342,-0.84179 2.308442,0.30371 3.829002,1.32214 l -0.36583,2.78063 -0.12242,-0.0161 q -0.23243,-1.61397 -1.05438,-2.39816 -0.82196,-0.7842 -2.20352,-0.96597 -1.853753,-0.24389 -3.001054,0.9039 -1.145,1.1303 -1.434908,3.33382 -0.287607,2.18602 0.503981,3.60669 0.821962,1.46025 2.535805,1.68574 1.241661,0.16336 2.096736,-0.11554 0.85508,-0.2789 1.4377,-1.05621 0.58492,-0.7948 1.00324,-2.21641 l 0.12242,0.0161 -0.13757,2.66832 q -0.65948,0.82057 -1.85005,1.21545 -1.17308,0.39718 -2.799487,0.1832 z m 17.073347,-10.06653 -0.24694,0.002 q -0.33512,0.003 -0.56249,0.2168 -0.22753,0.19611 -0.24227,0.51376 l 0.0532,5.83823 q 0.0174,1.90492 -1.13679,3.0091 -1.15432,1.08653 -3.46492,1.10759 -2.29296,0.0209 -3.59019,-1.02566 -1.27959,-1.04672 -1.29711,-2.96928 l -0.0534,-5.85587 q -0.003,-0.31749 -0.25175,-0.52689 -0.23123,-0.20957 -0.56635,-0.20652 l -0.24694,0.002 -0.002,-0.17638 4.63883,-0.0423 0.002,0.17638 -0.24693,0.002 q -0.33513,0.003 -0.56249,0.2168 -0.22737,0.21375 -0.22448,0.53123 l 0.0522,5.73241 q 0.0148,1.62271 0.76395,2.53314 0.7668,0.91028 2.12494,0.8979 1.35814,-0.0124 2.12634,-0.88372 0.78584,-0.8715 0.77186,-2.40602 l -0.054,-5.92643 q -0.0207,-0.33496 -0.25176,-0.52689 -0.23122,-0.20957 -0.56635,-0.20652 l -0.22929,0.002 -0.002,-0.17638 3.26306,-0.0297 z m 1.02901,10.20502 -0.0225,-0.17495 0.20994,-0.027 q 0.40239,-0.0517 0.63108,-0.34788 0.24619,-0.29841 0.19671,-0.6833 l -1.06818,-8.3101 q -0.0495,-0.38489 -0.36313,-0.61133 -0.3159,-0.24394 -0.70078,-0.19447 l -0.20994,0.027 -0.0225,-0.17495 4.8636,-0.62517 0.0225,0.17495 -0.20994,0.027 q -0.40239,0.0517 -0.64858,0.35013 -0.24618,0.29841 -0.19446,0.70079 l 1.11766,8.695 2.09939,-0.26986 q 1.08244,-0.15692 1.75152,-0.90093 0.66683,-0.76151 0.86381,-1.99614 l 0.19244,-0.0247 -0.26852,3.30678 z m 15.71894,-11.17125 -0.0372,-0.15433 q -0.17777,-0.73735 -0.69266,-1.06682 -0.51489,-0.32947 -1.25638,-0.16886 l -1.98912,0.47955 2.06288,8.55666 q 0.1081,0.37311 0.44447,0.56418 0.33637,0.19107 0.71362,0.10012 l 0.18862,-0.0455 0.0413,0.17147 -4.73274,1.141 -0.0413,-0.17148 0.17148,-0.0413 q 0.39439,-0.0951 0.60674,-0.41844 0.21236,-0.32336 0.11727,-0.71775 l -2.05874,-8.53952 -1.97198,0.47542 q -0.75036,0.19904 -1.05855,0.72695 -0.30819,0.52791 -0.13043,1.26525 l 0.0372,0.15433 -0.17148,0.0413 -0.65318,-2.70932 q 0.26074,0.0279 0.83013,-0.0187 0.58654,-0.0507 1.03238,-0.15817 l 6.32747,-1.52546 q 0.7545,-0.18189 1.20983,-0.40053 0.46834,-0.23992 0.52866,-0.29075 l 0.65318,2.70932 z m 9.89243,-6.26634 -0.23034,0.089 q -0.31262,0.12079 -0.45022,0.40088 -0.14396,0.26363 -0.046,0.56615 l 2.10434,5.44606 q 0.68661,1.77696 -0.005,3.21667 -0.69811,1.42325 -2.8535,2.25608 -2.13894,0.82648 -3.72148,0.30338 -1.5661,-0.52946 -2.25906,-2.32288 l -2.1107,-5.46251 q -0.11443,-0.29616 -0.42107,-0.4046 -0.29018,-0.11479 -0.6028,0.006 l -0.23034,0.089 -0.0636,-0.16454 4.32723,-1.67202 0.0636,0.16453 -0.23035,0.089 q -0.31261,0.12079 -0.45022,0.40088 -0.1376,0.28008 -0.0232,0.57624 l 2.06619,5.34734 q 0.58489,1.51371 1.60652,2.10227 1.03808,0.5822 2.30499,0.0927 1.26691,-0.48953 1.67934,-1.57548 0.42888,-1.0923 -0.12422,-2.52374 l -2.13612,-5.52833 q -0.13725,-0.30626 -0.42108,-0.40459 -0.29018,-0.1148 -0.60279,0.006 l -0.2139,0.0826 -0.0636,-0.16453 3.04387,-1.17614 z m 3.65482,-1.49124 -0.49368,0.27364 4.24141,7.65203 q 0.20523,0.37026 0.58034,0.46485 0.38198,0.0706 0.70596,-0.10896 l 0.1697,-0.0941 0.0855,0.15428 -4.24255,2.35159 -0.0855,-0.15428 0.18513,-0.10261 q 0.33941,-0.18813 0.44255,-0.54781 0.11857,-0.36823 -0.0695,-0.70764 l -4.07039,-7.34348 q -0.18813,-0.3394 -0.56324,-0.43399 -0.35968,-0.10315 -0.68366,0.0764 l -0.20055,0.11116 -0.0855,-0.15427 4.73624,-2.62523 q 1.38847,-0.76961 2.62884,-0.75127 1.38257,0.0202 2.15218,1.40866 0.49597,0.89479 0.35792,1.91917 -0.1466,1.00896 -1.12559,1.75327 0.4935,-0.092 1.1084,0.0713 0.63032,0.1548 1.09949,0.4191 0.9811,0.60573 1.93153,1.04695 0.94187,0.4258 1.38556,0.46221 0.45912,0.0279 0.93737,-0.23723 l 0.0855,0.15427 -1.29591,0.71831 q -1.28048,0.70975 -2.14574,0.78601 -0.84984,0.0677 -1.86867,-0.49694 -1.56849,-0.865 -2.19661,-1.52521 -0.44167,-0.36021 -0.8322,-0.44625 -0.37511,-0.0946 -0.62362,0.003 l -0.0684,-0.12342 0.38568,-0.21378 q 1.30279,-0.74228 0.74934,-2.43208 -0.0666,-0.26561 -0.16063,-0.43532 -0.0941,-0.1697 -0.27196,-0.45427 -0.18645,-0.3 -0.57681,-0.56764 -0.38348,-0.29163 -0.75524,-0.30741 -0.64073,-0.028 -1.15839,0.23873 -0.17825,0.0786 -0.39423,0.19836 z m 17.73569,0.13243 -6.71647,4.88985 -0.10381,-0.14261 0.17112,-0.12458 q 0.32798,-0.23878 0.38615,-0.60841 0.0724,-0.38001 -0.14171,-0.70411 l -4.94175,-6.78777 q -0.24266,-0.30334 -0.62655,-0.35113 -0.36963,-0.0582 -0.69761,0.18061 l -0.17112,0.12458 -0.10382,-0.1426 5.01953,-3.65441 q 0.38502,-0.28031 0.78943,-0.68382 0.40441,-0.40352 0.53788,-0.60979 l 1.65072,2.26735 -0.1426,0.10381 -0.0934,-0.12834 q -0.4568,-0.62744 -1.05859,-0.73477 -0.60178,-0.10734 -1.22535,0.32482 l -2.05344,1.49498 2.52279,3.46519 1.62564,-1.18353 q 0.47446,-0.36724 0.54552,-0.89898 0.0711,-0.53174 -0.28192,-1.01658 l -0.0727,-0.0998 0.1426,-0.10382 2.20095,3.02313 -0.1426,0.10381 -0.0727,-0.0998 q -0.48795,-0.67022 -1.20507,-0.60631 -0.37088,0.03 -0.6846,0.25841 l -1.6399,1.19391 2.4605,3.37963 1.7112,-1.24582 q 0.87374,-0.65794 1.10279,-1.63198 0.23293,-0.99868 -0.18783,-2.176 l 0.12834,-0.0934 z"
       id="path88"
       style="font-weight:bold;font-size:17.6389px;font-family:Cinzel;-inkscape-font-specification:'Cinzel, Bold';text-align:center;text-anchor:middle;white-space:pre;fill:#ffffff;stroke-width:30;stroke-linejoin:round"
       aria-label="Agriculture" />
    <circle
       style="fill:none;fill-opacity:1;stroke:none;stroke-width:1;stroke-linejoin:round;stroke-dasharray:none;stroke-opacity:1"
       id="circle1"
       cx="-157.71176"
       cy="-109.02468"
       r="87.360924"
       transform="matrix(0,-1,-1,0,0,0)" />
    <g
       id="g4"
       style="filter:url(#filter88)">
      <g
         id="g2"
         transform="matrix(0.1317788,0,0,0.1317788,-139.33829,91.401215)">
        <g
           id="group-R5">
          <path
             id="path7"
             d="m 18800.8,15570 c -145,-101.1 -168.4,-211.2 -172.1,-241.7 -23,-13.6 -44.4,-25.6 -64,-36.2 30.7,51.2 59.8,103.3 86.5,156.5 44.4,90.8 82.9,184.2 115.2,279.7 3.6,10.5 7.1,21 10.5,31.5 25.1,78.6 61.5,153.2 110.1,219.8 3.3,4.4 6.5,8.9 9.6,13.3 l -0.1,-0.1 c 406.1,222.3 219.8,675.5 219.8,675.5 6.1,-100.1 -90.5,-176.4 -189.8,-358.9 -84.4,-155.3 -56.1,-264.2 -45.8,-293.2 -20.8,-32 -40.2,-60.1 -57,-83.4 6.7,29.2 12.8,58.5 18.5,87.8 19.3,98.8 30,199.1 34.9,299.4 l 1.6,37.7 c 0.7,12.5 1.1,25 0.9,37.6 l -0.1,75.3 c -0.6,25.1 -2.2,50.1 -3.2,75.2 -0.7,12.5 -0.9,25.1 -2,37.6 l -3.5,37.4 v 0 c -2.2,24.8 -0.9,49.9 4.1,74.3 l 29,143.2 v -0.1 c 296,355.9 -43.7,709 -43.7,709 42.4,-90.8 -19.3,-197.3 -44.7,-403.5 -21.5,-175.5 44.8,-266.3 65.1,-289.5 -8.4,-41.6 -17,-77.9 -24.7,-107.5 l -3.3,23.3 c -2.9,24.9 -8.7,49.3 -13.2,74 l -7.1,36.8 c -2.3,12.3 -4.7,24.6 -7.9,36.7 -12.1,48.6 -23.1,97.4 -38.6,145.1 l -10.9,35.9 -5.4,17.9 -6.3,17.7 -25.2,70.6 c -16,41 -32.7,81.8 -50.6,122 -32,72.2 -52,149.4 -56.4,228.2 -1.1,18.3 -2.5,36.3 -4.3,53.9 l 0.1,-0.1 c 159.3,434.6 -279.3,653.2 -279.3,653.2 70.5,-71.3 48.1,-192.4 93.4,-395.1 38.7,-172.5 131.7,-235.8 158.5,-250.9 8.5,-59 13.1,-108.4 15.5,-143 -0.7,1.2 -1.3,2.5 -2,3.7 l -17.7,33 c -5.9,10.9 -12.8,21.4 -19.1,32.1 l -38.7,64 -41.7,62 c -7.1,10.3 -13.8,20.8 -21.1,30.9 l -22.3,29.9 c -23,32 -47.3,62.9 -72.5,93.2 l 0.1,-0.1 c -35.1,44.5 -83.1,108.6 -124.8,155 -19.6,21.7 -36.8,45.6 -49.3,72.1 -182.5,384.6 -628.1,276.5 -628.1,276.5 100.1,-6.4 163.8,-111.8 332.5,-232.9 133.4,-95.8 239.1,-90.1 277.6,-83.5 4.6,-1.5 10.2,-3.3 14.9,-4.8 l 51,-53.4 c 66.6,-73.3 130.4,-149.2 186.2,-231 l 21.4,-30.2 c 6.9,-10.3 13.4,-20.8 20.1,-31.2 l 39.7,-62.6 16.8,-29.4 c -44.3,37.6 -88.9,70.4 -133.1,98.8 l 0.2,-0.1 c -240.3,395.7 -684.7,189.3 -684.7,189.3 99.7,10.6 180.3,-82.5 367,-173.5 159,-77.4 266.5,-44.2 295,-32.6 63.6,-37.3 116.5,-73.8 147.1,-95.8 19.3,-13.9 35.6,-31.8 46.4,-53 0,-0.1 0.1,-0.2 0.1,-0.3 l 16.7,-33.1 c 46.1,-87.3 83.2,-179 116.6,-271.7 l 23.1,-70.1 5.8,-17.6 4.8,-17.8 9.8,-35.6 c 14.1,-47.2 23.7,-95.6 34.3,-143.6 2.9,-11.9 4.9,-24.1 6.9,-36.2 l 0.1,-0.7 c -30,46.1 -61.5,88.2 -93.7,126.3 l 0.1,-0.1 c -114,448.7 -599.4,381.3 -599.4,381.3 98.5,-19 148.4,-131.6 300.3,-273.2 129.3,-120.6 241.8,-120.3 272.5,-117.5 34.8,-37.9 63.3,-71.8 84.4,-98 29.2,-36.4 48.5,-80.2 52.8,-126.6 0,-0.3 0,-0.5 0,-0.8 l 8.4,-73.2 2.1,-18.3 1.2,-18.4 2.4,-36.8 2.4,-36.7 c 0.9,-12.3 0.7,-24.5 1.1,-36.8 0.4,-24.6 1.3,-49.1 1.2,-73.6 l -1.8,-73.6 c -0.1,-12.2 -0.8,-24.5 -1.7,-36.7 l -2.6,-36.7 c -4,-52.9 -9.6,-105.8 -17.3,-158.3 -10.5,44.1 -22.7,86.1 -36.5,125.6 l 0.1,-0.1 c 53.6,459.8 -423.8,570.1 -423.8,570.1 85.2,-52.9 91.6,-175.9 182.9,-362.4 77.8,-158.8 183,-198.7 212.6,-207.1 11.4,-28.6 21.2,-55 29.4,-78.4 20.2,-57.5 24.5,-119.6 11.4,-179 -0.1,-0.3 -0.2,-0.7 -0.3,-0.9 -20.9,-95.6 -46.7,-190.1 -80.7,-281.7 -33.8,-91.7 -73.2,-181.1 -118.3,-267.6 -13.4,-25 -27.4,-49.7 -41.8,-74.3 8.3,51.9 13,101.8 14.8,149.7 v -0.2 c 218.4,408.2 -185.4,685.8 -185.4,685.8 59.9,-80.5 20.8,-197.2 37.4,-404.3 14.2,-176.2 97.5,-251.9 122,-270.5 0,-6.8 0,-13.4 -0.1,-19.9 -0.6,-112.1 -34.9,-221.8 -99.9,-313.1 -0.3,-0.5 -0.6,-0.9 -0.9,-1.4 -56.2,-79.6 -119.3,-153.9 -185.8,-224.7 -17,-17.3 -33,-35.6 -50.8,-52.1 l -52.6,-50.5 c -0.8,0.7 -0.6,0.5 -1.4,1.2 16,28.4 30.4,56.7 43.4,84.5 v -0.1 c 359.5,291.6 94.9,704 94.9,704 23.9,-97.4 -57.4,-189.8 -122.2,-387.2 -55.2,-167.9 -7.8,-269.9 7.5,-296.6 -10.6,-25.4 -20.8,-48.7 -30.4,-69.4 -23.3,-50.8 -57.6,-96 -101.7,-130.4 -0.2,-0.2 -0.5,-0.4 -0.7,-0.5 -75.8,-60.5 -154.8,-117 -238.3,-166 -48.6,-28.7 -98.2,-55.6 -148.7,-80.7 21.1,21.6 40.6,43.5 58.5,65.3 l -0.1,-0.1 c 344.4,158.9 217.6,539.8 217.6,539.8 -0.6,-82.1 -83.8,-139.1 -175.2,-282.7 -77.8,-122.1 -60.8,-212.7 -54,-237 -11.2,-14.9 -21.9,-28.7 -31.9,-41.2 -32.9,-41.2 -75.3,-74.1 -123.8,-94.6 -0.3,-0.1 -0.5,-0.3 -0.7,-0.3 -89.2,-37.4 -180.6,-68.9 -273.5,-94.7 l -1.1,-0.3 h -0.2 c -25.2,-7.2 -43.8,-29.6 -44.4,-55.8 -1,-44.8 40.4,-73.3 79.1,-61.5 97.6,29.8 193.3,65.6 286.2,107.3 92.8,42.2 182.2,91.4 268.3,145.4 51.9,32.4 102.1,67.5 150.7,104.5 66,50.3 145.3,80.2 228.1,87.3 h -0.2 c 432.2,-165.9 657.4,269.3 657.4,269.3 -72.4,-69.4 -193.1,-45.1 -396.5,-87.5 -173,-36 -237.8,-128 -253.2,-154.6 -41.6,-5.4 -78.4,-8.8 -108.7,-11.1 27.5,24.2 54.1,49.4 80.9,74.3 l 53.5,54.1 c 18.1,17.7 34.4,37.2 51.6,55.7 67.4,75.6 131.1,154.7 187.3,238.8 1.1,1.7 2.3,3.4 3.4,5.1 27.6,41.2 65.3,74.5 109.5,97 7.2,3.6 14.3,7.4 21.4,11.1 l -0.1,-0.1 c 462.6,17.3 498.5,506 498.5,506 -39.2,-92.2 -159.8,-117.3 -330.1,-236.2"
             style="fill:#ffffff;fill-opacity:1;fill-rule:nonzero;stroke:none"
             transform="matrix(0.13333333,0,0,-0.13333333,0,2666.6667)" />
          <path
             id="path8"
             d="m 14551.8,15570 c 145,-101.1 168.4,-211.2 172.1,-241.7 23,-13.6 44.4,-25.6 64,-36.2 -30.7,51.2 -59.7,103.3 -86.5,156.5 -44.4,90.8 -82.8,184.2 -115.2,279.7 -3.6,10.5 -7.1,21 -10.4,31.5 -25.2,78.6 -61.6,153.2 -110.2,219.8 -3.2,4.4 -6.4,8.9 -9.6,13.3 l 0.1,-0.1 c -406.1,222.3 -219.7,675.5 -219.7,675.5 -6.2,-100.1 90.4,-176.4 189.7,-358.9 84.4,-155.3 56.1,-264.2 45.8,-293.2 20.8,-32 40.2,-60.1 57,-83.4 -6.6,29.2 -12.8,58.5 -18.5,87.8 -19.3,98.8 -30,199.1 -34.9,299.4 l -1.6,37.7 c -0.7,12.5 -1.1,25 -0.9,37.6 l 0.1,75.3 c 0.6,25.1 2.2,50.1 3.2,75.2 0.7,12.5 0.9,25.1 2,37.6 l 3.5,37.4 v 0 c 2.3,24.8 0.9,49.9 -4.1,74.3 l -29,143.2 v -0.1 c -296,355.9 43.7,709 43.7,709 -42.4,-90.8 19.4,-197.3 44.7,-403.5 21.5,-175.5 -44.8,-266.3 -65.1,-289.5 8.4,-41.6 17.1,-77.9 24.7,-107.5 l 3.3,23.3 c 2.9,24.9 8.7,49.3 13.2,74 l 7.1,36.8 c 2.3,12.3 4.7,24.6 7.9,36.7 12.1,48.6 23.2,97.4 38.7,145.1 l 10.8,35.9 5.4,17.9 6.3,17.7 25.3,70.6 c 15.9,41 32.6,81.8 50.5,122 32.1,72.2 52,149.4 56.5,228.2 1,18.3 2.4,36.3 4.2,53.9 l -0.1,-0.1 c -159.3,434.6 279.3,653.2 279.3,653.2 -70.5,-71.3 -48.1,-192.4 -93.4,-395.1 -38.7,-172.5 -131.6,-235.8 -158.5,-250.9 -8.5,-59 -13.1,-108.4 -15.5,-143 0.7,1.2 1.3,2.5 2,3.7 l 17.8,33 c 5.8,10.9 12.7,21.4 19,32.1 l 38.7,64 41.8,62 c 7,10.3 13.8,20.8 21,30.9 l 22.3,29.9 c 23.1,32 47.3,62.9 72.5,93.2 l -0.1,-0.1 c 35.1,44.5 83.1,108.6 124.8,155 19.6,21.7 36.8,45.6 49.3,72.1 182.5,384.6 628.1,276.5 628.1,276.5 -100,-6.4 -163.8,-111.8 -332.5,-232.9 -133.4,-95.8 -239.1,-90.1 -277.6,-83.5 -4.6,-1.5 -10.2,-3.3 -14.8,-4.8 l -51.1,-53.4 c -66.5,-73.3 -130.4,-149.2 -186.1,-231 l -21.5,-30.2 c -6.9,-10.3 -13.4,-20.8 -20.1,-31.2 l -39.7,-62.6 -16.8,-29.4 c 44.3,37.6 88.9,70.4 133.1,98.8 l -0.2,-0.1 c 240.3,395.7 684.8,189.3 684.8,189.3 -99.8,10.6 -180.4,-82.5 -367.1,-173.5 -158.9,-77.4 -266.4,-44.2 -295,-32.6 -63.6,-37.3 -116.5,-73.8 -147.1,-95.8 -19.3,-13.9 -35.6,-31.8 -46.3,-53 -0.1,-0.1 -0.2,-0.2 -0.2,-0.3 l -16.7,-33.1 c -46.1,-87.3 -83.2,-179 -116.6,-271.7 l -23.1,-70.1 -5.8,-17.6 -4.8,-17.8 -9.8,-35.6 c -14,-47.2 -23.6,-95.6 -34.3,-143.6 -2.9,-11.9 -4.9,-24.1 -6.9,-36.2 l -0.1,-0.7 c 30,46.1 61.5,88.2 93.7,126.3 l -0.1,-0.1 c 114,448.7 599.4,381.3 599.4,381.3 -98.5,-19 -148.3,-131.6 -300.3,-273.2 -129.3,-120.6 -241.8,-120.3 -272.5,-117.5 -34.8,-37.9 -63.3,-71.8 -84.4,-98 -29.2,-36.4 -48.5,-80.2 -52.7,-126.6 -0.1,-0.3 -0.1,-0.5 -0.1,-0.8 l -8.4,-73.2 -2.1,-18.3 -1.2,-18.4 -2.4,-36.8 -2.4,-36.7 c -0.8,-12.3 -0.7,-24.5 -1.1,-36.8 -0.3,-24.6 -1.3,-49.1 -1.2,-73.6 l 1.8,-73.6 c 0.1,-12.2 0.8,-24.5 1.8,-36.7 l 2.5,-36.7 c 4,-52.9 9.6,-105.8 17.3,-158.3 10.5,44.1 22.7,86.1 36.5,125.6 l -0.1,-0.1 c -53.6,459.8 423.8,570.1 423.8,570.1 -85.2,-52.9 -91.5,-175.9 -182.9,-362.4 -77.8,-158.8 -183,-198.7 -212.6,-207.1 -11.4,-28.6 -21.2,-55 -29.4,-78.4 -20.2,-57.5 -24.5,-119.6 -11.3,-179 0,-0.3 0.1,-0.7 0.2,-0.9 21,-95.6 46.7,-190.1 80.7,-281.7 33.8,-91.7 73.3,-181.1 118.3,-267.6 13.5,-25 27.5,-49.7 41.8,-74.3 -8.3,51.9 -12.9,101.8 -14.8,149.7 v -0.2 c -218.4,408.2 185.4,685.8 185.4,685.8 -59.9,-80.5 -20.7,-197.2 -37.4,-404.3 -14.2,-176.2 -97.4,-251.9 -121.9,-270.5 -0.1,-6.8 -0.1,-13.4 0,-19.9 0.7,-112.1 35,-221.8 99.9,-313.1 0.3,-0.5 0.6,-0.9 1,-1.4 56.1,-79.6 119.2,-153.9 185.7,-224.7 17,-17.3 33,-35.6 50.9,-52.1 l 52.5,-50.5 c 0.8,0.7 0.6,0.5 1.4,1.2 -16,28.4 -30.4,56.7 -43.4,84.5 v -0.1 c -359.5,291.6 -94.8,704 -94.8,704 -24,-97.4 57.3,-189.8 122.1,-387.2 55.3,-167.9 7.9,-269.9 -7.5,-296.6 10.6,-25.4 20.9,-48.7 30.4,-69.4 23.3,-50.8 57.6,-96 101.7,-130.4 0.3,-0.2 0.5,-0.4 0.7,-0.5 75.8,-60.5 154.8,-117 238.4,-166 48.5,-28.7 98.1,-55.6 148.6,-80.7 -21,21.6 -40.6,43.5 -58.5,65.3 l 0.1,-0.1 c -344.4,158.9 -217.6,539.8 -217.6,539.8 0.6,-82.1 83.9,-139.1 175.2,-282.7 77.8,-122.1 60.8,-212.7 54,-237 11.2,-14.9 21.9,-28.7 31.9,-41.2 32.9,-41.2 75.3,-74.1 123.8,-94.6 0.3,-0.1 0.5,-0.3 0.8,-0.3 89.1,-37.4 180.5,-68.9 273.4,-94.7 l 1.1,-0.3 h 0.2 c 25.2,-7.2 43.8,-29.6 44.4,-55.8 1,-44.8 -40.4,-73.3 -79.1,-61.5 -97.6,29.8 -193.3,65.6 -286.2,107.3 -92.8,42.2 -182.2,91.4 -268.3,145.4 -51.9,32.4 -102.1,67.5 -150.7,104.5 -66,50.3 -145.3,80.2 -228.1,87.3 h 0.2 c -432.2,-165.9 -657.4,269.3 -657.4,269.3 72.4,-69.4 193.1,-45.1 396.5,-87.5 173.1,-36 237.8,-128 253.3,-154.6 41.6,-5.4 78.4,-8.8 108.6,-11.1 -27.4,24.2 -54.1,49.4 -80.9,74.3 l -53.4,54.1 c -18.2,17.7 -34.4,37.2 -51.7,55.7 -67.4,75.6 -131.1,154.7 -187.3,238.8 -1.1,1.7 -2.3,3.4 -3.4,5.1 -27.6,41.2 -65.3,74.5 -109.5,97 -7.2,3.6 -14.3,7.4 -21.4,11.1 l 0.1,-0.1 c -462.5,17.3 -498.5,506 -498.5,506 39.2,-92.2 159.8,-117.3 330.1,-236.2"
             style="fill:#ffffff;fill-opacity:1;fill-rule:nonzero;stroke:none"
             transform="matrix(0.13333333,0,0,-0.13333333,0,2666.6667)" />
        </g>
      </g>
      <text
         xml:space="preserve"
         transform="matrix(0.26458333,0,0,0.26458333,-15.73078,-3.6103428)"
         id="text3"
         style="font-style:normal;font-variant:normal;font-weight:bold;font-stretch:normal;font-size:200px;font-family:Cinzel;-inkscape-font-specification:'Cinzel, Bold';font-variant-ligatures:normal;font-variant-caps:normal;font-variant-numeric:normal;font-variant-east-asian:normal;text-align:center;white-space:pre;shape-inside:url(#rect3);display:inline;fill:#ffffff;fill-opacity:1;stroke:none;stroke-width:3.77953;stroke-linejoin:round;stroke-dasharray:none;stroke-opacity:1"><tspan
           x="581.86958"
           y="672.73681"
           id="tspan1">4</tspan></text>
    </g>
    <path
       fill="#ecca43"
       fill-rule="nonzero"
       d="m 63.493298,117.3573 c 10.584755,0 20.169061,4.29155 27.106168,11.22851 6.937102,6.9371 11.228654,16.52156 11.228654,27.10631 0,10.58461 -4.291552,20.16907 -11.228654,27.10617 -6.937107,6.93651 -16.521413,11.22791 -27.106168,11.22791 -10.584755,0 -20.16906,-4.2914 -27.106167,-11.22791 -6.937105,-6.9371 -11.228659,-16.52156 -11.228659,-27.10617 0,-10.58475 4.291554,-20.16921 11.228659,-27.10631 6.936508,-6.93696 16.520814,-11.22851 27.106167,-11.22851 z"
       id="path1-7"
       style="stroke-width:0.149745" />
    <ellipse
       fill="#f7e259"
       cx="63.493298"
       cy="155.69182"
       rx="37.584904"
       ry="37.584751"
       id="ellipse1"
       style="stroke-width:0.149745" />
    <path
       fill="#f8d548"
       d="m 100.59317,149.65619 a 37.839319,37.839319 0 0 1 0.48458,6.03593 c 0,20.75682 -16.827042,37.58431 -37.584452,37.58431 -20.75741,0 -37.585051,-16.82749 -37.585051,-37.58431 0,-3.27298 0.419437,-6.44744 1.2056,-9.47454 l 36.902512,27.47469 z"
       id="path2"
       style="stroke-width:0.149745" />
    <path
       fill="#d7925b"
       fill-rule="nonzero"
       d="m 63.493252,121.55891 c 9.424325,0 17.958419,3.8209 24.135476,9.99778 6.17689,6.17637 9.997784,14.71047 9.997784,24.13479 0,9.42484 -3.820894,17.95911 -9.997784,24.13531 -6.177057,6.17688 -14.711151,9.99795 -24.135476,9.99795 -9.424327,0 -17.95842,-3.82107 -24.134788,-9.99795 -6.176887,-6.17689 -9.99778,-14.71098 -9.99778,-24.13531 0,-9.42432 3.820893,-17.95842 9.99778,-24.13479 6.176368,-6.17688 14.710461,-9.99778 24.134788,-9.99778 z"
       id="path3"
       style="fill:#8c5122;fill-opacity:1;stroke-width:0.173197" />
    <circle
       fill="#eda140"
       cx="63.493423"
       cy="155.69165"
       r="33.265717"
       id="circle3"
       style="fill:url(#linearGradient2);fill-opacity:1;stroke-width:0.173197" />
    <text
       xml:space="preserve"
       transform="matrix(0.26458333,0,0,0.26458333,-106.96956,-3.253295)"
       id="text3-5"
       style="font-style:normal;font-variant:normal;font-weight:bold;font-stretch:normal;font-size:200px;font-family:Cinzel;-inkscape-font-specification:'Cinzel, Bold';font-variant-ligatures:normal;font-variant-caps:normal;font-variant-numeric:normal;font-variant-east-asian:normal;text-align:center;white-space:pre;shape-inside:url(#rect3-9);display:inline;fill:#ffffcc;fill-opacity:1;stroke:none;stroke-width:3.77953;stroke-linejoin:round;stroke-dasharray:none;stroke-opacity:1;filter:url(#filter70)"><tspan
         x="580.86956"
         y="672.73681"
         id="tspan2">6</tspan></text>
    <text
       xml:space="preserve"
       style="font-style:normal;font-variant:normal;font-weight:bold;font-stretch:normal;font-size:24.6944px;font-family:Cinzel;-inkscape-font-specification:'Cinzel, Bold';font-variant-ligatures:normal;font-variant-caps:normal;font-variant-numeric:normal;font-variant-east-asian:normal;text-align:center;text-anchor:middle;fill:#ffffcc;fill-opacity:1;stroke:none;stroke-width:1;stroke-linejoin:round;stroke-dasharray:none;stroke-opacity:1"
       x="521.23755"
       y="310.15057"
       id="text88"><tspan
         id="tspan88"
         style="stroke-width:1"
         x="521.23755"
         y="310.15057">s</tspan></text>
  </g>
</svg>
