<?xml version="1.0" encoding="UTF-8" standalone="no"?>
<svg
   viewBox="0 0 360.345 463.65799"
   version="1.1"
   id="svg2"
   width="360.345"
   height="463.65799"
   xmlns="http://www.w3.org/2000/svg"
   xmlns:svg="http://www.w3.org/2000/svg">
  <defs
     id="defs2" />
  <g
     class=""
     id="g2"
     transform="translate(-76.279,-24.218)">
    <path
       d="m 226.063,24.22 -9.782,32.624 c 12.992,-2.652 26.423,-4.032 40.19,-4.032 10.475,0 20.766,0.82 30.81,2.376 l -9.405,-30.97 h -51.813 z m 30.406,48.843 c -99.627,0 -180.19,80.53 -180.19,180.156 0,99.624 80.563,180.155 180.19,180.155 99.624,0 180.155,-80.53 180.155,-180.156 0,-99.627 -80.53,-180.157 -180.156,-180.157 z m 0,41.687 c 76.482,0 138.467,61.985 138.467,138.47 0,76.482 -61.985,138.5 -138.468,138.5 -76.485,0 -138.5,-62.018 -138.5,-138.5 0,-76.485 62.015,-138.47 138.5,-138.47 z m -0.033,38.938 c -54.96,0 -99.53,44.54 -99.53,99.5 0,54.96 44.57,99.5 99.53,99.5 54.96,0 99.5,-44.54 99.5,-99.5 0,-54.96 -44.54,-99.5 -99.5,-99.5 z m 0.032,39.687 c 33.052,0 59.842,26.79 59.842,59.844 0,33.052 -26.79,59.843 -59.843,59.843 -33.055,0 -59.845,-26.79 -59.845,-59.844 0,-33.055 26.79,-59.845 59.844,-59.845 z m 0,30.906 c -15.993,0 -28.97,12.947 -28.97,28.94 0,15.99 12.977,28.968 28.97,28.968 15.99,0 28.936,-12.977 28.936,-28.97 0,-15.99 -12.945,-28.937 -28.937,-28.937 z M 114.905,395 87.061,487.875 h 46.876 l 20.28,-62.313 c -14.35,-8.54 -27.56,-18.833 -39.312,-30.562 z m 277.188,5.688 c -11.982,11.026 -25.324,20.595 -39.72,28.468 l 19.25,58.72 h 46.907 l -26.436,-87.188 z m -165.03,50.78 v 36.407 h 52.092 v -35.53 c -7.45,0.84 -15.015,1.28 -22.687,1.28 -9.99,0 -19.81,-0.74 -29.408,-2.156 z"
       fill="#ffffff"
       fill-opacity="1"
       id="path2" />
  </g>
</svg>
