<?xml version="1.0" encoding="UTF-8" standalone="no"?>
<svg
   viewBox="0 0 366.022 433.936"
   version="1.1"
   id="svg2"
   width="366.022"
   height="433.936"
   xmlns="http://www.w3.org/2000/svg"
   xmlns:svg="http://www.w3.org/2000/svg">
  <defs
     id="defs2" />
  <g
     class=""
     id="g2"
     transform="translate(-73,-41)">
    <path
       d="m 256,41 c -43.696,0 -83.28,3.58 -111.37,9.197 -14.047,2.81 -25.26,6.196 -32.21,9.483 -3.476,1.643 -5.842,3.293 -6.88,4.306 l -0.013,0.014 0.014,0.014 c 1.038,1.013 3.404,2.663 6.88,4.306 6.95,3.287 18.163,6.674 32.21,9.483 C 172.72,83.42 212.303,87 256,87 c 43.697,0 83.28,-3.58 111.37,-9.197 14.047,-2.81 25.26,-6.196 32.21,-9.483 3.476,-1.643 5.842,-3.293 6.88,-4.306 L 406.473,64 406.459,63.986 c -1.038,-1.013 -3.404,-2.663 -6.88,-4.306 -6.95,-3.287 -18.163,-6.674 -32.21,-9.483 C 339.28,44.58 299.697,41 256,41 Z m -80,15 a 32,8 0 0 1 32,8 32,8 0 0 1 -32,8 32,8 0 0 1 -32,-8 32,8 0 0 1 32,-8 z m -75.168,26.594 c -2.832,12.035 -7.414,32.162 -12.05,55.28 16.735,4.338 33.52,7.99 50.327,10.995 2.988,-17.203 6.707,-34.438 11.27,-51.708 -3.186,-0.547 -6.3,-1.113 -9.282,-1.71 -14.91,-2.98 -27.13,-6.49 -36.37,-10.86 -1.363,-0.644 -2.656,-1.307 -3.896,-1.998 z m 310.336,0 c -1.24,0.69 -2.533,1.354 -3.895,1.998 -9.24,4.37 -21.462,7.88 -36.37,10.86 -2.93,0.587 -5.99,1.142 -9.116,1.68 5.27,16.954 9.544,34.033 12.953,51.22 16.26,-2.983 32.412,-6.568 48.424,-10.754 -4.617,-23 -9.175,-43.017 -11.996,-55.004 z m -67.4,17.238 c -23.065,2.982 -49.9,4.803 -78.768,5.117 v 54.198 c 30.885,-0.445 61.603,-3.05 91.975,-7.773 -3.45,-17.334 -7.805,-34.523 -13.207,-51.543 z M 168.293,99.84 c -4.647,17.345 -8.416,34.67 -11.426,51.98 30.062,4.54 60.16,6.967 90.133,7.354 V 104.95 c -28.842,-0.314 -55.656,-2.133 -78.707,-5.11 z m -84.38,55.277 -5.518,30.088 c 128.542,30.936 239.89,29.948 353.384,0.137 l -4.98,-30.172 C 316.023,183.968 198.764,184.955 83.913,155.117 Z m 350.634,48.176 c -16.95,4.406 -33.876,8.174 -50.83,11.312 3.656,47.603 1.776,95.87 -3.55,144.49 18.6,-3.803 36.796,-8.527 54.468,-14.17 C 439.592,314.762 439,291.606 439,256 c 0,-14.915 -1.77,-33.334 -4.453,-52.707 z m -357.13,0.256 C 74.758,222.827 73,241.15 73,256 c 0,23.794 4.678,57.228 10.424,89.404 16.604,4.828 33.386,8.97 50.27,12.418 -4.532,-47.516 -6.03,-95.247 -2.577,-143.222 -17.624,-3.063 -35.507,-6.74 -53.7,-11.05 z m 71.546,13.944 c -3.336,47.978 -1.63,95.883 3.164,143.813 31.553,5.49 63.348,8.592 94.873,9.33 V 225.94 c -31.995,-0.576 -64.57,-3.38 -98.037,-8.446 z m 216.902,0.19 c -33.303,5.275 -66.792,8.068 -100.865,8.34 V 370.8 c 32.816,-0.174 65.224,-2.93 96.64,-8.25 5.61,-49.032 7.722,-97.417 4.225,-144.866 z M 86.66,364.93 l 8.29,31.9 c 104.15,32.39 225.75,32.428 326.077,0.733 l 8.272,-32.264 c -106.024,31.367 -228.01,31.34 -342.64,-0.37 z m 11.236,51.666 c 3.816,16.945 6.585,28.183 6.704,28.662 0.792,2.185 4.694,6.427 12.96,10.37 7.587,3.616 18.215,6.947 30.77,9.704 -2.132,-12.566 -4.142,-25.147 -6.016,-37.74 -15.03,-3.066 -29.865,-6.733 -44.418,-10.996 z m 318.366,1.31 c -14.934,4.36 -30.254,8.052 -45.852,11.086 -2.007,12.08 -4.16,24.172 -6.43,36.272 12.422,-2.745 22.935,-6.05 30.46,-9.637 8.376,-3.994 12.302,-8.315 13.02,-10.473 3.26,-9.78 6.178,-18.815 8.802,-27.248 z m -255.217,13.18 c 1.917,12.574 3.97,25.154 6.144,37.74 23.637,3.684 51.525,5.748 79.81,6.11 V 439.24 c -28.815,-0.644 -57.66,-3.36 -85.955,-8.154 z m 190.55,1.223 c -28.306,4.484 -57.373,6.847 -86.595,7.07 v 35.556 c 28.358,-0.363 56.317,-2.437 79.994,-6.14 2.33,-12.19 4.538,-24.353 6.602,-36.487 z"
       fill="#ffffff"
       fill-opacity="1"
       id="path2" />
  </g>
</svg>
