<?xml version="1.0" encoding="UTF-8" standalone="no"?>
<svg
   viewBox="0 0 471.76801 471.75299"
   version="1.1"
   id="svg2"
   width="471.76801"
   height="471.75299"
   xmlns="http://www.w3.org/2000/svg"
   xmlns:svg="http://www.w3.org/2000/svg">
  <defs
     id="defs2" />
  <g
     class=""
     id="g2"
     transform="translate(-20.116,-20.123)">
    <path
       d="m 438.582,296.069 53.302,-14.694 -0.024,-50.728 -53.278,-14.743 c -4.76,-21.901 -13.445,-42.325 -25.185,-60.608 l 27.323,-48.157 -35.904,-35.855 -48.078,27.3 C 338.4,86.818 317.975,78.16 296.053,73.347 L 281.307,20.123 H 230.64 l -14.77,53.224 c -21.874,4.813 -42.324,13.472 -60.61,25.235 l -48.13,-27.298 -35.88,35.883 27.3,48.077 c -11.74,18.336 -20.401,38.76 -25.236,60.66 l -53.198,14.744 v 50.727 l 53.198,14.694 a 186.28,186.28 0 0 0 25.235,60.658 l -27.298,48.157 35.88,35.83 48.128,-27.274 a 186.217,186.217 0 0 0 60.66,25.186 l 14.72,53.25 50.693,-0.024 14.72,-53.225 c 21.923,-4.813 42.348,-13.47 60.686,-25.212 l 48.127,27.327 35.805,-35.883 -27.273,-48.155 c 11.714,-18.31 20.4,-38.708 25.185,-60.635 z M 200.588,122.394 h 110.819 l 78.333,78.358 v 9.207 h -55.162 c -15.844,-26.933 -45.134,-45.051 -78.582,-45.051 -33.445,0 -62.735,18.118 -78.578,45.051 H 122.23 v -9.207 z m 55.408,88.542 c 24.88,0 45.072,20.196 45.072,45.052 0,24.929 -20.19,45.1 -45.072,45.1 -24.872,0 -45.068,-20.17 -45.068,-45.1 0,-24.856 20.196,-45.052 45.068,-45.052 z m 55.411,179.05 H 200.588 l -78.357,-78.358 v -9.612 h 55.106 a 91.66,91.66 0 0 0 14.253,18.417 c 17.206,17.206 40.082,26.681 64.407,26.681 24.333,0 47.208,-9.476 64.415,-26.683 a 91.636,91.636 0 0 0 14.25,-18.415 h 55.079 v 9.612 z"
       fill="#ffffff"
       fill-opacity="1"
       id="path2" />
  </g>
</svg>
