<?xml version="1.0" encoding="UTF-8" standalone="no"?>
<svg
   class="svg-icon"
   style="overflow:hidden;fill:currentColor"
   viewBox="0 0 813.42407 629.02838"
   version="1.1"
   id="svg1"
   width="813.42407"
   height="629.02838"
   xmlns="http://www.w3.org/2000/svg"
   xmlns:svg="http://www.w3.org/2000/svg">
  <defs
     id="defs1" />
  <path
     d="M 407.83357,99.6383 4.36645,600.12508 Z m -17.6418,529.39006 C 314.46506,584.42449 218.83915,560.89664 112.68136,560.89664 65.49876,560.89664 25.33604,565.56291 0,569.42385 V 48.26526 c 0,0 0.0542,-0.0491 0.0767,-0.0491 40.10848,-11.43954 80.749086,-17.20792 120.78185,-17.20792 36.45017,0 72.97094,4.76349 108.59325,14.19633 28.64746,7.57451 56.76791,18.20871 83.63277,31.55671 45.45322,22.57414 71.96913,45.55555 72.9208,46.40489 l 4.53939,4.06662 z m 423.23228,-59.60451 c -25.35855,-3.86094 -65.49467,-8.52721 -112.70388,-8.52721 -106.15778,0 -201.76528,23.52683 -277.53292,68.13172 l -0.38067,-501.79661 4.56804,-4.06662 c 0.95679,-0.84832 27.47168,-23.83076 72.93411,-46.40489 26.87406,-13.34698 55.02112,-23.9822 83.64197,-31.55672 35.62232,-9.43283 72.14309,-14.19632 108.59223,-14.19632 40.03277,0 80.69588,5.76837 120.78288,17.20791 0.0276,0 0.0716,0.0491 0.0982,0.0491 z M 123.14262,0 c 2.0548,0 4.06048,0 6.12142,0.0491 L 129.23744,0 c -2.0316,0 -4.06321,0 -6.09481,0 z"
     id="path2"
     style="fill:#fefefe;fill-opacity:1;fill-rule:nonzero"/>
</svg>
