<?xml version="1.0" encoding="UTF-8" standalone="no"?>
<svg
   viewBox="0 0 425.33499 474.79999"
   version="1.1"
   id="svg2"
   width="425.33499"
   height="474.79999"
   xmlns="http://www.w3.org/2000/svg"
   xmlns:svg="http://www.w3.org/2000/svg">
  <defs
     id="defs2" />
  <g
     class=""
     id="g2"
     transform="translate(-49.07,-18.389)">
    <path
       d="m 65.44,18.39 -2.327,9.717 C 53.95,66.384 49.07,107.884 49.07,151.293 c 0,93.415 23.097,178.085 61.047,240.014 17.218,28.096 37.652,51.6 60.447,68.92 26.69,21.257 56.353,32.962 87.377,32.962 0.364,0 1.147,-0.12 1.927,-0.25 0.623,0.008 1.247,0.02 1.87,0.02 60.13,0 113.67,-39.724 151.62,-101.653 37.95,-61.93 61.047,-146.598 61.047,-240.014 0,-41.557 -4.858,-81.203 -13.256,-118.012 l -2.324,-10.19 -9.582,4.176 c -50.92,22.196 -113.98,35.705 -182.086,35.713 -2.014,-0.022 -4.01,-0.06 -6.002,-0.103 V 62.8 c -1.296,0 -2.586,-0.017 -3.88,-0.03 C 187.492,60.717 131.782,44.692 74.73,22.072 l -9.29,-3.683 z m 380.816,28.747 c 6.792,32.774 10.824,67.647 10.824,104.156 0,90.547 -22.596,172.38 -58.494,230.963 -35.9,58.582 -84.36,93.38 -136.848,93.38 -0.195,0 -0.39,-0.006 -0.584,-0.007 v -63.987 c -2.64,0.023 -5.28,-0.03 -7.914,-0.163 -55.358,-2.77 -109.316,-38.91 -122.03,-99.742 l -2.355,-11.256 h 94.895 l 37.404,14.207 V 80.206 c 1.946,0.042 3.896,0.078 5.862,0.098 h 0.087 c 66.168,0 127.672,-12.383 179.152,-33.168 z m -279.53,98.12 c 35.365,0 64.036,13.248 64.036,29.59 0,16.34 -28.668,29.585 -64.035,29.585 -35.365,0 -64.036,-13.246 -64.036,-29.586 0,-16.34 28.67,-29.588 64.037,-29.588 z m 186.282,0 c -35.367,0 -64.035,13.248 -64.035,29.59 0,16.34 28.67,29.585 64.035,29.585 35.367,0 64.035,-13.246 64.035,-29.586 0,-16.34 -28.67,-29.588 -64.035,-29.588 z M 152.572,319.17 c 14.72,45.053 57.247,71.428 101.602,73.646 44.8,2.24 90.238,-19.45 110.416,-73.646 h -57.447 l -44.204,16.187 -42.62,-16.187 h -67.748 z"
       fill="#ffffff"
       fill-opacity="1"
       id="path2" />
  </g>
</svg>
