<?xml version="1.0" encoding="UTF-8" standalone="no"?>
<svg
   viewBox="0 0 345.86783 454.94635"
   version="1.1"
   id="svg2"
   width="345.86783"
   height="454.94635"
   xmlns="http://www.w3.org/2000/svg"
   xmlns:svg="http://www.w3.org/2000/svg">
  <defs
     id="defs2" />
  <g
     class=""
     style="fill:#ffffff;fill-opacity:1;stroke:none;stroke-width:30;stroke-dasharray:none;stroke-opacity:1;paint-order:stroke fill markers"
     id="g2"
     transform="translate(-83.065508,-28.526573)">
    <path
       d="m 251.188,28.538 c -202.97,2.955 -190.282,230.2 -126.782,409.47 -14.678,9.41 -17.29,6.385 -15.75,17.062 1.105,7.65 12.483,23.233 17.563,25.844 5.08,2.611 9.372,2.85 17.03,2.343 7.658,-0.507 60.337,-8.77 49.22,-22.625 -48,-67.4 -126.572,-365.46 63.53,-374.062 190.102,8.603 111.53,306.66 63.53,374.062 -11.117,13.855 41.562,22.117 49.22,22.625 7.658,0.508 11.95,0.267 17.03,-2.343 5.08,-2.61 16.46,-18.194 17.564,-25.844 1.54,-10.678 -1.072,-7.65 -15.75,-17.063 63.5,-179.27 76.187,-406.514 -126.78,-409.469 -1.6,-0.023 -3.19,-0.005 -4.814,0 -1.625,-0.004 -3.214,-0.023 -4.813,0 z m -45.625,22.157 c 6.903,0 12.5,5.596 12.5,12.5 0,6.904 -5.597,12.5 -12.5,12.5 -6.903,0 -12.5,-5.597 -12.5,-12.5 0,-6.903 5.596,-12.5 12.5,-12.5 z m 100.875,0 c 6.903,0 12.5,5.596 12.5,12.5 0,6.904 -5.597,12.5 -12.5,12.5 -6.903,0 -12.5,-5.597 -12.5,-12.5 0,-6.903 5.596,-12.5 12.5,-12.5 z M 135.594,109.32 c 6.903,0 12.5,5.596 12.5,12.5 0,6.904 -5.597,12.5 -12.5,12.5 -6.903,0 -12.5,-5.597 -12.5,-12.5 0,-6.903 5.596,-12.5 12.5,-12.5 z m 240.812,0 c 6.904,0 12.5,5.596 12.5,12.5 0,6.904 -5.596,12.5 -12.5,12.5 -6.904,0 -12.5,-5.597 -12.5,-12.5 0,-6.903 5.597,-12.5 12.5,-12.5 z m -266.844,96 c 6.904,0 12.5,5.596 12.5,12.5 0,6.904 -5.596,12.5 -12.5,12.5 -6.904,0 -12.5,-5.597 -12.5,-12.5 0,-6.903 5.597,-12.5 12.5,-12.5 z m 292.875,0 c 6.904,0 12.5,5.596 12.5,12.5 0,6.904 -5.596,12.5 -12.5,12.5 -6.904,0 -12.5,-5.597 -12.5,-12.5 0,-6.903 5.597,-12.5 12.5,-12.5 z M 118.22,307.82 c 6.902,0 12.5,5.596 12.5,12.5 0,6.904 -5.598,12.5 -12.5,12.5 -6.902,0 -12.5,-5.597 -12.5,-12.5 0,-6.903 5.595,-12.5 12.5,-12.5 z m 275.56,0 c 6.905,0 12.5,5.596 12.5,12.5 0,6.904 -5.595,12.5 -12.5,12.5 -6.905,0 -12.5,-5.597 -12.5,-12.5 0,-6.903 5.598,-12.5 12.5,-12.5 z m -254.936,84.062 c 6.903,0 12.5,5.597 12.5,12.5 0,6.903 -5.597,12.5 -12.5,12.5 -6.903,0 -12.5,-5.596 -12.5,-12.5 0,-6.904 5.596,-12.5 12.5,-12.5 z m 234.312,0 c 6.904,0 12.5,5.597 12.5,12.5 0,6.903 -5.596,12.5 -12.5,12.5 -6.904,0 -12.5,-5.596 -12.5,-12.5 0,-6.904 5.597,-12.5 12.5,-12.5 z"
       fill="#fff"
       fill-opacity="1"
       id="path2"
       style="fill:#ffffff;fill-opacity:1;stroke:none;stroke-width:30;stroke-dasharray:none;stroke-opacity:1;paint-order:stroke fill markers" />
  </g>
</svg>
