<?xml version="1.0" encoding="UTF-8" standalone="no"?>
<svg
   viewBox="0 0 465.47784 446"
   version="1.1"
   id="svg2"
   width="465.47784"
   height="446"
   xmlns="http://www.w3.org/2000/svg"
   xmlns:svg="http://www.w3.org/2000/svg">
  <defs
     id="defs2" />
  <g
     class=""
     id="g2"
     transform="translate(-23.257556,-41)">
    <path
       d="m 137,41 v 16.828 c 84.313,17.835 157.15,13.99 238,0.348 V 41 Z m 128,105.512 c 19.367,-2.58 41.85,-11.815 64.47,-20.95 22.046,-8.905 44.324,-19.27 65.885,-18.144 10.81,0.564 22.064,5.04 30.637,10.24 28.702,17.556 41.142,56.438 22.207,86.21 -14.93,23.473 -47.34,33.593 -71.794,17.155 -18.602,-12.504 -26.55,-39.04 -12.386,-58.642 10.274,-14.217 31.507,-20.235 46.64,-8.017 5.145,4.154 8.53,9.938 9.652,16.432 1.122,6.494 -0.45,14.17 -5.81,19.734 -3.35,3.476 -7.535,5.53 -12.44,6.01 -4.904,0.478 -11.24,-1.43 -14.904,-6.47 4.576,-2.843 16.11,-12.02 15.426,-16.203 -0.334,-1.935 -1.69,-4.25 -3.223,-5.486 -6.104,-4.928 -15.96,-2.098 -20.764,4.552 -7.58,10.49 -2.957,25.878 7.843,33.138 15.324,10.302 36.736,3.615 46.583,-11.87 13.114,-20.618 4.17,-48.587 -16.414,-61.177 -7.815,-4.78 -16.398,-7.617 -25.006,-7.35 -8.258,0.254 -17.547,2.213 -26.84,6.013 -10.4,4.252 -18.874,12.83 -24.805,22.86 -19.115,32.318 -5.055,74.713 26.97,93.2 38.652,22.313 88.847,5.406 110.478,-32.932 25.616,-45.4 5.766,-103.877 -39.133,-128.802 -17.23,-9.623 -30.26,-13.436 -49.216,-11.737 -37.342,3.348 -69.34,13.7 -124.06,14.55 l -18,-0.01 C 192.182,87.912 162.282,78.093 122.98,74.052 105.604,72.266 87.246,78.616 73.72,86.014 28.822,110.939 8.972,169.416 34.588,214.816 c 21.63,38.338 71.826,55.245 110.478,32.932 32.025,-18.487 46.085,-60.882 26.97,-93.2 -5.93,-10.03 -14.404,-18.608 -24.804,-22.86 -9.293,-3.8 -18.582,-5.76 -26.84,-6.014 -8.608,-0.266 -17.19,2.572 -25.005,7.35 -20.583,12.59 -29.527,40.56 -16.413,61.18 9.847,15.483 31.26,22.17 46.584,11.868 10.8,-7.26 15.425,-22.647 7.844,-33.138 -4.804,-6.65 -14.66,-9.48 -20.765,-4.55 -1.533,1.235 -2.89,3.55 -3.224,5.485 -0.082,6.955 9.04,11.55 15.426,16.203 -3.664,5.04 -10,6.948 -14.904,6.47 -4.905,-0.48 -9.09,-2.534 -12.44,-6.01 -5.36,-5.564 -6.932,-13.24 -5.81,-19.735 1.12,-6.494 4.507,-12.278 9.652,-16.432 15.133,-12.218 36.366,-6.2 46.64,8.018 14.164,19.602 6.216,46.14 -12.386,58.643 C 111.14,237.46 78.73,227.34 63.8,203.867 c -18.934,-29.77 -6.494,-68.653 22.208,-86.21 9.37,-6.07 19.283,-9.443 30.637,-10.24 21.537,-1.51 43.84,9.24 65.884,18.144 22.62,9.137 45.103,18.372 64.47,20.952 z m -76.287,0.98 c 9.008,16.32 11.675,34.306 9.12,51.508 h 116.335 c -2.556,-17.202 0.11,-35.19 9.12,-51.508 -19.145,7.748 -38.797,15.19 -58.288,17.217 h -18 c -19.49,-2.03 -39.144,-9.47 -58.287,-17.218 z M 193.135,217 c -3.398,9.055 -8.266,17.59 -14.416,25.193 l 13.05,40.493 L 211.84,217 Z M 236.16,217 256,281.934 275.84,217 Z m 64,0 19.84,64.934 12.45,-40.752 C 326.685,233.838 322.11,225.652 318.865,217 Z M 224,238.8 201.94,311 h 44.12 z m 64,0 -22.06,72.2 h 44.12 z M 346.826,255.734 329.94,311 h 37.007 l -1.91,-43.963 c -2.393,-1.12 -4.762,-2.34 -7.098,-3.687 -3.927,-2.267 -7.635,-4.82 -11.114,-7.616 z m -182.45,0.635 c -3.247,2.546 -6.688,4.886 -10.315,6.98 -2.335,1.348 -4.704,2.566 -7.097,3.687 L 145.053,311 h 36.93 z M 144.27,329 137.4,487 h 21.846 l 3.758,-135.25 17.992,0.5 -3.742,134.75 h 25.87 L 205,351.875 223,352.125 221.127,487 H 247 V 352 h 18 v 135 h 25.873 L 289,352.125 307,351.875 308.877,487 h 25.87 l -3.743,-134.75 17.992,-0.5 3.758,135.25 H 374.6 l -6.87,-158 z"
       fill="#ffffff"
       fill-opacity="1"
       id="path2" />
  </g>
</svg>
