<?xml version="1.0" encoding="UTF-8" standalone="no"?>
<!-- Generator: Adobe Illustrator 19.0.0, SVG Export Plug-In . SVG Version: 6.00 Build 0)  -->

<svg
   version="1.1"
   id="Layer_1"
   x="0px"
   y="0px"
   viewBox="0 0 519.14746 519.14746"
   xml:space="preserve"
   width="519.14746"
   height="519.14746"
   xmlns:xlink="http://www.w3.org/1999/xlink"
   xmlns="http://www.w3.org/2000/svg"
   xmlns:svg="http://www.w3.org/2000/svg"><defs
   id="defs29"><linearGradient
     id="linearGradient37"><stop
       style="stop-color:#93e392;stop-opacity:1;"
       offset="0"
       id="stop37" /><stop
       style="stop-color:#207a1f;stop-opacity:1;"
       offset="1"
       id="stop38" /></linearGradient><radialGradient
     xlink:href="#linearGradient37"
     id="radialGradient38"
     cx="253.90604"
     cy="255.57373"
     fx="123.90604"
     fy="125.57373"
     r="255.57373"
     gradientUnits="userSpaceOnUse"
     gradientTransform="translate(5.6676941,4)" /></defs>&#10;&#10;&#10;<circle
   style="fill:url(#radialGradient38);fill-opacity:1;stroke:#fefefe;stroke-width:8;stroke-linejoin:bevel;stroke-dasharray:none;stroke-opacity:1"
   id="path29"
   cx="259.57373"
   cy="259.57373"
   r="255.57373" /><path
   style="fill:none;fill-opacity:1;stroke:#0d0d0d;stroke-width:8;stroke-linecap:square;stroke-linejoin:miter;stroke-dasharray:none;stroke-opacity:1"
   d="m 425.26641,389.18624 c 28.73935,-0.72845 58.66775,-27.12408 58.39401,-64.10205 -0.2996,-40.47163 -29.07619,-65.72618 -59.77648,-65.92368 -26.31534,-0.16929 -64.51176,0.1975 -64.51176,0.1975 29.00407,-0.55582 58.97163,-22.80239 59.87096,-63.65671 0.8107,-36.82791 -30.12737,-65.15412 -65.39003,-65.07484 -23.56182,0.053 -185.0414,0.24164 -185.0414,0.24164 -46.401,0.92225 -64.80796,34.93193 -64.8479,64.32898 -0.0375,27.61277 18.9961,63.1231 58.51793,63.47395 -0.18278,1.44754 -58.62714,0.76055 -58.62714,0.76055 -37.967776,0.40669 -65.148397,31.65605 -64.79755,65.5496 0.341388,32.97975 25.889132,64.90676 64.48234,64.55591 38.59321,-0.35085 321.72702,-0.35085 321.72702,-0.35085 z"
   id="path42" /><path
   style="fill:#d89348;fill-opacity:1"
   d="m 354.31669,130.887 h -185.298 V 271.13 L 354.31669,260 c 35.651,0 64.557,-28.906 64.557,-64.557 0,-35.651 -28.907,-64.556 -64.557,-64.556 z"
   id="path3" />&#10;<g
   id="g5"
   transform="translate(5.6676941,4)">&#10;	&#10;	&#10;	&#10;</g>&#10;<path
   style="fill:#edd4b8;stroke:none;stroke-width:3.1;stroke-dasharray:none;stroke-opacity:1"
   d="m 104.46269,195.443 c 0,35.653 28.904,64.557 64.557,64.557 l 16.139,-64.557 -16.139,-64.557 c -35.655,0.001 -64.557,28.904 -64.557,64.557 z"
   id="path5" />&#10;<path
   style="fill:#edbf8c"
   d="M 169.01869,130.887 V 260 c 35.653,0 64.557,-28.904 64.557,-64.557 0,-35.653 -28.904,-64.556 -64.557,-64.556 z"
   id="path6" />&#10;<circle
   style="fill:#edd4b8;fill-opacity:1"
   cx="169.0177"
   cy="195.44299"
   r="42.296001"
   id="circle6" />&#10;<path
   style="fill:#d77254;fill-opacity:1"
   d="m 290.51669,260 h -186.144 v 129.113 h 186.144 c 35.651,0 64.557,-28.906 64.557,-64.557 0,-35.651 -28.906,-64.556 -64.557,-64.556 z"
   id="path7" />&#10;<path
   style="fill:#edd4b8"
   d="m 39.905694,324.557 c 0,35.653 28.904,64.557 64.556996,64.557 l 16.139,-64.557 -16.139,-64.557 c -35.653996,0 -64.556996,28.904 -64.556996,64.557 z"
   id="path8" />&#10;<path
   style="fill:#edbf8c"
   d="m 104.46269,260 v 129.113 c 35.653,0 64.557,-28.904 64.557,-64.557 0,-35.653 -28.904,-64.556 -64.557,-64.556 z"
   id="path9" />&#10;<path
   style="fill:#b85924;fill-opacity:1"
   d="m 418.87269,260 h -185.297 v 129.113 h 185.297 c 35.651,0 64.557,-28.906 64.557,-64.557 0,-35.651 -28.906,-64.556 -64.557,-64.556 z"
   id="path10" />&#10;&#10;<path
   style="fill:#edd4b8"
   d="m 169.01869,324.557 c 0,35.653 28.904,64.557 64.557,64.557 l 16.139,-64.557 -16.139,-64.557 c -35.654,0 -64.557,28.904 -64.557,64.557 z"
   id="path12" />&#10;<path
   style="fill:#edbf8c"
   d="m 233.57569,260 v 129.113 c 35.653,0 64.557,-28.904 64.557,-64.557 0,-35.653 -28.904,-64.556 -64.557,-64.556 z"
   id="path13" />&#10;<g
   id="g14"
   style="fill:#edd4b8;fill-opacity:1"
   transform="translate(5.6676941,4)">&#10;	<circle
   style="fill:#edd4b8;fill-opacity:1"
   cx="227.907"
   cy="320.55701"
   r="42.296001"
   id="circle13" />&#10;	<circle
   style="fill:#edd4b8;fill-opacity:1"
   cx="98.793999"
   cy="320.55701"
   r="42.296001"
   id="circle14" />&#10;</g>&#10;<g
   id="g15"
   transform="translate(5.6676941,4)">&#10;</g>&#10;<g
   id="g16"
   transform="translate(5.6676941,4)">&#10;</g>&#10;<g
   id="g17"
   transform="translate(5.6676941,4)">&#10;</g>&#10;<g
   id="g18"
   transform="translate(5.6676941,4)">&#10;</g>&#10;<g
   id="g19"
   transform="translate(5.6676941,4)">&#10;</g>&#10;<g
   id="g20"
   transform="translate(5.6676941,4)">&#10;</g>&#10;<g
   id="g21"
   transform="translate(5.6676941,4)">&#10;</g>&#10;<g
   id="g22"
   transform="translate(5.6676941,4)">&#10;</g>&#10;<g
   id="g23"
   transform="translate(5.6676941,4)">&#10;</g>&#10;<g
   id="g24"
   transform="translate(5.6676941,4)">&#10;</g>&#10;<g
   id="g25"
   transform="translate(5.6676941,4)">&#10;</g>&#10;<g
   id="g26"
   transform="translate(5.6676941,4)">&#10;</g>&#10;<g
   id="g27"
   transform="translate(5.6676941,4)">&#10;</g>&#10;<g
   id="g28"
   transform="translate(5.6676941,4)">&#10;</g>&#10;<g
   id="g29"
   transform="translate(5.6676941,4)">&#10;</g>&#10;</svg>
