<?xml version="1.0" encoding="UTF-8" standalone="no"?>
<!-- Generator: Adobe Illustrator 19.0.0, SVG Export Plug-In . SVG Version: 6.00 Build 0)  -->

<svg
   version="1.1"
   id="Layer_1"
   x="0px"
   y="0px"
   viewBox="0 0 519.14746 519.14746"
   xml:space="preserve"
   width="519.14746"
   height="519.14746"
   xmlns:xlink="http://www.w3.org/1999/xlink"
   xmlns="http://www.w3.org/2000/svg"
   xmlns:svg="http://www.w3.org/2000/svg"><defs
   id="defs29"><linearGradient
     id="linearGradient37"><stop
       style="stop-color:#93e392;stop-opacity:1;"
       offset="0"
       id="stop37" /><stop
       style="stop-color:#207a1f;stop-opacity:1;"
       offset="1"
       id="stop38" /></linearGradient><radialGradient
     xlink:href="#linearGradient37"
     id="radialGradient38"
     cx="253.90604"
     cy="255.57373"
     fx="123.90604"
     fy="125.57373"
     r="255.57373"
     gradientUnits="userSpaceOnUse"
     gradientTransform="translate(5.6676941,4)" /></defs>&#10;&#10;&#10;<circle
   style="fill:url(#radialGradient38);fill-opacity:1;stroke:#fefefe;stroke-width:8;stroke-linejoin:bevel;stroke-dasharray:none;stroke-opacity:1"
   id="path29"
   cx="259.57373"
   cy="259.57373"
   r="255.57373" /><path
   style="fill:none;fill-opacity:1;stroke:#0d0d0d;stroke-width:6.91263;stroke-linecap:square;stroke-linejoin:miter;stroke-dasharray:none;stroke-opacity:1"
   d="m 402.98772,371.63834 c 24.83305,-0.62944 50.69353,-23.43734 50.457,-55.3892 -0.25888,-34.97066 -25.12411,-56.79257 -51.65157,-56.96323 -22.73851,-0.14628 -55.74322,0.17066 -55.74322,0.17066 25.0618,-0.48027 50.95612,-19.70305 51.73321,-55.00439 0.70051,-31.8222 -26.03241,-56.29827 -56.50211,-56.22976 -20.35926,0.0458 -159.89028,0.20879 -159.89028,0.20879 -40.0941,0.7969 -55.99916,30.18393 -56.03367,55.58528 -0.0324,23.8596 16.41412,54.54331 50.56408,54.84647 -0.15794,1.25079 -50.65844,0.65718 -50.65844,0.65718 -32.80714,0.35141 -56.293327,27.35331 -55.990168,56.63999 0.294986,28.49709 22.37024,56.08453 55.717798,55.78137 33.34756,-0.30316 277.99737,-0.30316 277.99737,-0.30316 z"
   id="path42" /><path
   style="fill:#b67227;fill-opacity:1;stroke-width:0.864078"
   d="m 341.6816,148.44754 h -160.112 v 121.18095 l 160.112,-9.61719 c 30.80525,0 55.7823,-24.97705 55.7823,-55.78231 0,-30.80526 -24.97791,-55.78145 -55.7823,-55.78145 z"
   id="path3" />&#10;<g
   id="g5"
   transform="translate(5.6676941,4)">&#10;	&#10;	&#10;	&#10;</g>&#10;<path
   style="fill:#edd4b8;stroke:none;stroke-width:2.67864;stroke-dasharray:none;stroke-opacity:1"
   d="m 125.78815,204.22899 c 0,30.80699 24.97532,55.78231 55.78231,55.78231 l 13.94536,-55.78231 -13.94536,-55.78231 c -30.80871,8.6e-4 -55.78231,24.97532 -55.78231,55.78231 z"
   id="path5" />&#10;<path
   style="fill:#edbf8c;stroke-width:0.864078"
   d="M 181.5696,148.44754 V 260.0113 c 30.80698,0 55.78231,-24.97532 55.78231,-55.78231 0,-30.80699 -24.97533,-55.78145 -55.78231,-55.78145 z"
   id="path6" />&#10;<circle
   style="fill:#edd4b8;fill-opacity:1;stroke-width:0.864078"
   cx="181.56874"
   cy="204.22899"
   r="36.547062"
   id="circle6" />&#10;<path
   style="fill:#cf5632;fill-opacity:1;stroke-width:0.864078"
   d="m 286.55339,260.0113 h -160.843 v 111.56375 h 160.843 c 30.80526,0 55.78231,-24.97705 55.78231,-55.78231 0,-30.80526 -24.97705,-55.78144 -55.78231,-55.78144 z"
   id="path7" />&#10;<path
   style="fill:#edd4b8;stroke-width:0.864078"
   d="m 70.005847,315.79361 c 0,30.80698 24.975322,55.78231 55.782303,55.78231 l 13.94536,-55.78231 -13.94536,-55.78231 c -30.807845,0 -55.782303,24.97532 -55.782303,55.78231 z"
   id="path8" />&#10;<path
   style="fill:#edbf8c;stroke-width:0.864078"
   d="m 125.78815,260.0113 v 111.56375 c 30.80699,0 55.78231,-24.97532 55.78231,-55.78231 0,-30.80698 -24.97532,-55.78144 -55.78231,-55.78144 z"
   id="path9" />&#10;<path
   style="fill:#94481d;fill-opacity:1;stroke-width:0.864078"
   d="M 397.46304,260.0113 H 237.35191 v 111.56375 h 160.11113 c 30.80526,0 55.78231,-24.97705 55.78231,-55.78231 0,-30.80526 -24.97705,-55.78144 -55.78231,-55.78144 z"
   id="path10" />&#10;&#10;<path
   style="fill:#edd4b8;stroke-width:0.864078"
   d="m 181.5696,315.79361 c 0,30.80698 24.97532,55.78231 55.78231,55.78231 l 13.94536,-55.78231 -13.94536,-55.78231 c -30.80785,0 -55.78231,24.97532 -55.78231,55.78231 z"
   id="path12" />&#10;<path
   style="fill:#edbf8c;stroke-width:0.864078"
   d="m 237.35191,260.0113 v 111.56375 c 30.80698,0 55.7823,-24.97532 55.7823,-55.78231 0,-30.80698 -24.97532,-55.78144 -55.7823,-55.78144 z"
   id="path13" />&#10;<g
   id="g14"
   style="fill:#edd4b8;fill-opacity:1"
   transform="matrix(0.86407839,0,0,0.86407839,40.421531,38.807229)">&#10;	<circle
   style="fill:#edd4b8;fill-opacity:1"
   cx="227.907"
   cy="320.55701"
   r="42.296001"
   id="circle13" />&#10;	<circle
   style="fill:#edd4b8;fill-opacity:1"
   cx="98.793999"
   cy="320.55701"
   r="42.296001"
   id="circle14" />&#10;</g>&#10;<g
   id="g15"
   transform="translate(5.6676941,4)">&#10;</g>&#10;<g
   id="g16"
   transform="translate(5.6676941,4)">&#10;</g>&#10;<g
   id="g17"
   transform="translate(5.6676941,4)">&#10;</g>&#10;<g
   id="g18"
   transform="translate(5.6676941,4)">&#10;</g>&#10;<g
   id="g19"
   transform="translate(5.6676941,4)">&#10;</g>&#10;<g
   id="g20"
   transform="translate(5.6676941,4)">&#10;</g>&#10;<g
   id="g21"
   transform="translate(5.6676941,4)">&#10;</g>&#10;<g
   id="g22"
   transform="translate(5.6676941,4)">&#10;</g>&#10;<g
   id="g23"
   transform="translate(5.6676941,4)">&#10;</g>&#10;<g
   id="g24"
   transform="translate(5.6676941,4)">&#10;</g>&#10;<g
   id="g25"
   transform="translate(5.6676941,4)">&#10;</g>&#10;<g
   id="g26"
   transform="translate(5.6676941,4)">&#10;</g>&#10;<g
   id="g27"
   transform="translate(5.6676941,4)">&#10;</g>&#10;<g
   id="g28"
   transform="translate(5.6676941,4)">&#10;</g>&#10;<g
   id="g29"
   transform="translate(5.6676941,4)">&#10;</g>&#10;</svg>
