<?xml version="1.0" encoding="UTF-8" standalone="no"?>
<!-- Created with Inkscape (http://www.inkscape.org/) -->

<svg
   width="193.80508mm"
   height="193.80508mm"
   viewBox="0 0 193.80508 193.80508"
   version="1.1"
   id="svg1"
   sodipodi:docname="masonry.svg"
   inkscape:version="1.3 (0e150ed, 2023-07-21)"
   xmlns:inkscape="http://www.inkscape.org/namespaces/inkscape"
   xmlns:sodipodi="http://sodipodi.sourceforge.net/DTD/sodipodi-0.dtd"
   xmlns="http://www.w3.org/2000/svg"
   xmlns:svg="http://www.w3.org/2000/svg">
  <defs
     id="defs1" />
  <sodipodi:namedview
     id="namedview1"
     pagecolor="#ffffff"
     bordercolor="#000000"
     borderopacity="0.25"
     inkscape:showpageshadow="2"
     inkscape:pageopacity="0.0"
     inkscape:pagecheckerboard="0"
     inkscape:deskcolor="#d1d1d1"
     inkscape:document-units="mm"
     inkscape:zoom="0.67075594"
     inkscape:cx="345.13298"
     inkscape:cy="248.22739"
     inkscape:window-width="1712"
     inkscape:window-height="1040"
     inkscape:window-x="0"
     inkscape:window-y="39"
     inkscape:window-maximized="1"
     inkscape:current-layer="layer1" />
  <g
     id="layer1"
     transform="translate(-12.122139,-60.809219)">
    <circle
       style="fill:#028000;fill-opacity:1;stroke:none;stroke-width:7.9375;stroke-linejoin:round"
       id="path1"
       cx="109.02468"
       cy="157.71176"
       r="96.902542" />
    <circle
       style="display:inline;fill:none;fill-opacity:1;stroke:#91d190;stroke-width:6.70609;stroke-linejoin:round;stroke-opacity:1"
       id="circle88"
       cx="109.02468"
       cy="157.71176"
       r="81.869209" />
    <path
       style="fill:#028000;fill-opacity:1;stroke:none;stroke-width:1;stroke-linejoin:round;stroke-dasharray:none;stroke-opacity:1"
       d="m 44.558887,105.21796 12.898561,-10.265019 8.387711,2.986038 78.379001,-10.468421 21.80832,-0.313745 1.02105,40.781507 8.34473,61.71128 -24.20874,29.12482 -2.52711,21.74702 -45.70878,7.37353 L 61.27481,235.662 71.724341,221.50906 60.597663,191.38818 52.713295,116.86076 Z"
       id="path89" />
    <circle
       style="display:inline;fill:none;fill-opacity:1;stroke:none;stroke-width:1;stroke-linejoin:round;stroke-dasharray:none;stroke-opacity:1"
       id="circle1"
       cx="-157.71176"
       cy="-109.02468"
       r="87.360924"
       transform="matrix(0,-1,-1,0,0,0)" />
    <path
       d="m 81.83664,240.89118 0.22724,0.0967 -0.06904,0.16232 -4.512337,-1.91944 0.06905,-0.16232 0.22724,0.0967 q 0.308397,0.13119 0.528006,-0.0246 0.235841,-0.14887 0.300041,-0.38992 l 1.341651,-4.91146 -4.327626,3.00874 q -0.977886,0.67663 -1.288587,1.40704 l -0.146083,-0.0621 -1.332896,-7.27593 -2.492024,4.32628 q -0.129125,0.21343 -0.0728,0.48658 0.05633,0.27315 0.34849,0.39743 l 0.22724,0.0967 -0.06904,0.16232 -3.083971,-1.31185 0.06904,-0.16232 0.22724,0.0967 q 0.405786,0.17261 0.794614,0.0696 0.411964,-0.11229 0.63327,-0.49736 l 5.056602,-8.37251 0.129852,0.0552 1.672905,8.81986 7.221916,-5.03621 0.146083,0.0621 -2.526559,9.54456 q -0.07765,0.40785 0.124762,0.74314 0.202407,0.33529 0.57573,0.49409 z m 11.495053,2.78813 0.136765,0.0348 -0.04344,0.17096 -5.026113,-1.27714 0.04344,-0.17096 0.136765,0.0348 q 0.341912,0.0869 0.547901,-0.0792 0.205989,-0.16605 0.249429,-0.33701 0.04344,-0.17095 0.02284,-0.37638 l -0.267081,-1.74221 -3.624272,-0.92093 -1.087818,1.41613 q -0.111823,0.15358 -0.159607,0.34163 -0.04344,0.17096 0.05829,0.4152 0.123172,0.23149 0.465085,0.31837 l 0.136765,0.0348 -0.04344,0.17096 -3.419125,-0.8688 0.04344,-0.17096 0.136765,0.0348 q 0.359008,0.0912 0.774488,-0.0398 0.415481,-0.13102 0.750668,-0.51903 l 5.467535,-6.69125 q 1.182265,-1.50133 1.316368,-1.88584 l 0.153861,0.0391 2.140293,10.77194 q 0.09627,0.55225 0.394459,0.88281 0.319632,0.31781 0.695735,0.41338 z m -7.363722,-5.25623 3.043021,0.77324 -0.596517,-3.95526 z m 8.167232,3.98731 q 0.148752,-1.13683 0.761228,-1.875 l 0.139918,0.0183 q -0.03351,0.12014 -0.04724,0.22508 -0.139598,1.06688 0.507193,1.96981 0.664281,0.90523 2.028487,1.08373 0.979429,0.12816 1.563625,-0.25792 0.601685,-0.38379 0.674917,-0.94347 0.07323,-0.55967 -0.198104,-0.93317 -0.251557,-0.3887 -0.891649,-0.93498 l -2.277589,-1.89905 q -1.445927,-1.18539 -1.24454,-2.7245 0.0206,-0.1574 0.06097,-0.33001 0.267422,-1.22805 1.215963,-1.81551 0.950829,-0.60494 2.105157,-0.4539 1.171818,0.15333 2.44547,0.48008 l 0.94445,0.12358 -0.54694,2.27662 -0.15741,-0.0206 q 0.10756,-0.82202 -0.40781,-1.36976 -0.49789,-0.54546 -1.442339,-0.66904 -0.926961,-0.12129 -1.52178,0.21003 -0.592531,0.31384 -0.677206,0.96096 -0.06865,0.52469 0.405693,0.97812 0.189281,0.18487 0.559508,0.48237 l 2.556604,2.07787 q 1.31974,1.06215 1.11836,2.60125 -0.21283,1.62655 -1.48159,2.35 -1.251259,0.72574 -3.070199,0.48774 -1.119348,-0.14646 -1.942022,-0.52095 -0.822673,-0.37448 -1.172304,-0.82938 -0.06375,-0.32855 -0.0088,-0.74831 z m 8.727937,-2.63045 q 4.5e-4,-2.54 1.69404,-4.02137 1.71124,-1.49901 4.53346,-1.49851 2.83987,5e-4 4.55058,1.5001 1.71071,1.48197 1.71026,4.02197 -4.4e-4,2.54 -1.71168,4.03901 -1.71123,1.48137 -4.53346,1.48087 -2.82222,-4.9e-4 -4.53293,-1.48246 -1.71071,-1.49961 -1.71027,-4.03961 z m 2.69875,4.7e-4 q -3.9e-4,2.22251 0.95189,3.52795 0.96991,1.28781 2.57505,1.28809 1.62278,2.9e-4 2.5755,-1.28718 0.97037,-1.30511 0.97076,-3.52761 3.9e-4,-2.22251 -0.96952,-3.51032 -0.95227,-1.30544 -2.57505,-1.30573 -1.60514,-2.8e-4 -2.57551,1.30483 -0.95273,1.28747 -0.95312,3.50997 z m 16.92651,-6.46466 4.89642,-0.76962 0.0274,0.17425 -0.29622,0.0466 q -0.40077,0.063 -0.64123,0.35076 -0.22303,0.28504 -0.1802,0.67112 l 1.19689,7.61471 q 0.16981,1.08035 0.41876,1.75544 l 0.0732,0.23847 -0.15683,0.0247 -9.1073,-5.79997 0.90657,5.76767 q 0.0777,0.38061 0.38013,0.6009 0.31715,0.20012 0.71792,0.13713 l 0.29623,-0.0466 0.0274,0.17425 -4.87899,0.76688 -0.0274,-0.17425 0.2788,-0.0438 q 0.40077,-0.063 0.64123,-0.35076 0.23771,-0.3052 0.17746,-0.68855 l -1.20511,-7.66698 q -0.16433,-1.0455 -0.41055,-1.70316 l -0.0732,-0.23848 0.15956,-0.007 9.0844,5.76786 -0.90109,-5.73282 q -0.0602,-0.38335 -0.37739,-0.58347 -0.30246,-0.2203 -0.70324,-0.1573 l -0.29622,0.0466 z m 8.76597,-1.35777 -0.53959,0.16565 2.56751,8.36367 q 0.12424,0.40469 0.47168,0.5748 0.35913,0.14807 0.71324,0.0394 l 0.18548,-0.0569 0.0518,0.16862 -4.63711,1.42352 -0.0518,-0.16862 0.20235,-0.0621 q 0.37097,-0.11388 0.54626,-0.44446 0.19215,-0.33576 0.0783,-0.70672 l -2.46398,-8.02643 q -0.11389,-0.37097 -0.46133,-0.54108 -0.33058,-0.17529 -0.68469,-0.0666 l -0.21921,0.0673 -0.0518,-0.16862 5.17671,-1.58917 q 1.5176,-0.46588 2.72737,-0.19147 1.34852,0.30563 1.8144,1.82323 0.30023,0.97801 -0.0466,1.95172 -0.35207,0.95683 -1.4638,1.48263 0.50187,0.012 1.0697,0.29897 0.58469,0.28179 0.98908,0.63738 0.83465,0.7955 1.67329,1.42372 0.83348,0.61135 1.26005,0.73871 0.44344,0.12219 0.96617,-0.0383 l 0.0518,0.16862 -1.41643,0.43483 q -1.39957,0.42964 -2.2619,0.32534 -0.84547,-0.10948 -1.72553,-0.87259 -1.35573,-1.17063 -1.83376,-1.94645 -0.35764,-0.44375 -0.72195,-0.60868 -0.34744,-0.17011 -0.61073,-0.12619 l -0.0414,-0.1349 0.42156,-0.12941 q 1.42811,-0.45686 1.23603,-2.22457 -0.0102,-0.27364 -0.0671,-0.45913 -0.0569,-0.18548 -0.17216,-0.50069 -0.12039,-0.33207 -0.44697,-0.67464 -0.3149,-0.36462 -0.67536,-0.45693 -0.62108,-0.15991 -1.18271,-0.006 -0.19066,0.0401 -0.42673,0.11255 z m 15.18225,-6.71163 -0.20888,0.0946 q -0.41776,0.1892 -0.70151,0.5888 -0.26768,0.39232 -0.35588,0.8389 l -0.86616,5.69791 1.48453,3.27783 q 0.17616,0.34622 0.54968,0.48687 0.36624,0.12459 0.75187,-0.0501 l 0.17675,-0.08 0.0728,0.16068 -4.49899,2.03758 -0.0728,-0.16068 0.19282,-0.0873 q 0.36956,-0.16737 0.51749,-0.52482 0.14065,-0.37352 -0.003,-0.73429 l -1.48452,-3.27783 -4.83793,-3.11454 q -0.38504,-0.25162 -0.86527,-0.28585 -0.47144,-0.0576 -0.90527,0.13891 l -0.19282,0.0873 -0.0728,-0.16068 4.88462,-2.21223 0.0728,0.16068 -0.17674,0.08 q -0.30529,0.13826 -0.3553,0.41264 -0.0412,0.25103 0.0243,0.39564 0.0582,0.12854 0.17342,0.21191 l 3.81075,2.72775 0.49543,-4.67801 q -0.003,-0.13431 -0.061,-0.26285 -0.0655,-0.14461 -0.29743,-0.27193 -0.22315,-0.15066 -0.52844,-0.0124 l -0.16067,0.0728 -0.0728,-0.16068 3.43851,-1.55729 z"
       id="text89"
       style="-inkscape-font-specification:'Cinzel, Bold';fill:#ffffff;stroke-linejoin:round"
       aria-label="masonry" />
    <rect
       style="fill:#1711ee;fill-opacity:1;stroke:#ffffff;stroke-width:5;stroke-linejoin:round;stroke-dasharray:none;stroke-opacity:1"
       id="rect90"
       width="77.426918"
       height="114.0426"
       x="77.343826"
       y="97.043488" />
  </g>
  <circle
     style="fill:#aba298;fill-opacity:1;stroke:#ffffff;stroke-width:0.881767;stroke-linejoin:bevel;stroke-dasharray:none;stroke-opacity:1"
     id="path7-5"
     cx="61.528984"
     cy="59.119957"
     r="16.661814" />
  <path
     style="fill:#6d5d54;fill-opacity:1;stroke-width:0.0881767;stroke-linejoin:bevel"
     d="m 66.919648,69.012709 0.0233,-4.13882 -15.400323,-2.54749 0.01263,3.89108 z"
     id="path2-3-2" />
  <path
     style="fill:#98857a;fill-opacity:1;stroke-width:0.0881767;stroke-linejoin:bevel"
     d="m 69.618503,62.100759 -2.694079,2.7609 -0.02366,4.14577 2.650244,-2.97446 z"
     id="path3-1" />
  <path
     style="fill:#afa096;fill-opacity:1;stroke-width:0.0881767;stroke-linejoin:bevel"
     d="m 55.521312,59.920239 -3.969256,2.41907 15.390651,2.53398 2.729522,-2.75913 z"
     id="path1-0-1" />
  <path
     style="fill:#6d5d54;fill-opacity:1;stroke-width:0.0881767;stroke-linejoin:bevel"
     d="m 59.20831,63.249169 0.0233,-4.13882 -13.193521,-2.13605 0.06783,3.99621 z"
     id="path2-4-4-0" />
  <path
     style="fill:#98857a;fill-opacity:1;stroke-width:0.0881767;stroke-linejoin:bevel"
     d="m 62.363267,56.593779 -3.150181,2.50434 -0.02366,4.14576 2.650244,-2.97445 z"
     id="path3-9-0-1" />
  <path
     style="fill:#afa096;fill-opacity:1;stroke-width:0.0881767;stroke-linejoin:bevel"
     d="m 50.063076,54.748069 -3.97946,2.26364 13.147752,2.09804 3.100106,-2.53108 z"
     id="path1-5-7-8" />
  <path
     style="fill:#6d5d54;fill-opacity:1;stroke-width:0.0881767;stroke-linejoin:bevel"
     d="m 74.413316,65.812969 0.0233,-4.13881 -14.778242,-2.45005 -0.04438,4.03361 z"
     id="path2-4-7" />
  <path
     style="fill:#98857a;fill-opacity:1;stroke-width:0.0881767;stroke-linejoin:bevel"
     d="m 77.074768,58.870999 -2.694079,2.7609 -0.01076,4.22319 2.63734,-3.05188 z"
     id="path3-9-6" />
  <path
     style="fill:#afa096;fill-opacity:1;stroke-width:0.0881767;stroke-linejoin:bevel"
     d="m 62.838883,56.703919 -3.171077,2.5331 14.731166,2.44392 2.665004,-2.75913 z"
     id="path1-5-0" />
  <path
     style="fill:#6d5d54;fill-opacity:1;stroke-width:0.0881767;stroke-linejoin:bevel"
     d="m 67.287573,60.068939 0.0233,-4.13881 -15.512533,-2.13606 0.05004,3.62926 z"
     id="path2-6-0" />
  <path
     style="fill:#98857a;fill-opacity:1;stroke-width:0.0881767;stroke-linejoin:bevel"
     d="m 69.986428,53.156989 -2.694079,2.7609 -0.02366,4.14577 2.650244,-2.97446 z"
     id="path3-4-9" />
  <path
     style="fill:#afa096;fill-opacity:1;stroke-width:0.0881767;stroke-linejoin:bevel"
     d="m 55.739623,51.088679 -3.946063,2.69511 15.517071,2.14573 2.729523,-2.75913 z"
     id="path1-7-5" />
  <path
     style="fill:none;fill-opacity:1;stroke:#000000;stroke-width:0.299801;stroke-linejoin:miter;stroke-dasharray:none;stroke-opacity:1"
     d="m 45.962506,56.935169 4.069993,-2.3026 1.667826,0.23648 -0.01245,-1.14507 3.982868,-2.76311 14.38811,2.14079 -0.04978,3.99531 -0.485413,0.52275 7.579896,1.21976 -0.04979,3.99531 -2.651096,3.08672 -4.742102,-0.82146 v 0.95838 l -2.700882,3.02448 -15.470953,-2.788 -0.04979,-4.07 0.460519,-0.19914 -5.887176,-1.00816 z"
     id="path8-6" />
  <g
     id="g2"
     transform="matrix(0.10948212,0,0,0.10948212,49.682932,83.152579)">
    <circle
       style="fill:#c089f4;fill-opacity:1;stroke:#ffffff;stroke-width:8;stroke-linejoin:bevel;stroke-dasharray:none;stroke-opacity:1"
       id="path7-2-2"
       cx="108.48183"
       cy="126.56213"
       r="151.87456" />
    <circle
       style="fill:#2ebbec;fill-opacity:1;stroke:#0d0d0d;stroke-width:9.75275;stroke-linecap:square;stroke-linejoin:miter;stroke-dasharray:none;stroke-opacity:1;paint-order:stroke fill markers"
       id="path1-71-8"
       cx="101.60825"
       cy="166.67725"
       r="86.194023" />
    <path
       style="fill:#2ebbec;fill-opacity:1;stroke:#0d0d0d;stroke-width:9.75275;stroke-linecap:square;stroke-linejoin:miter;stroke-dasharray:none;stroke-opacity:1;paint-order:stroke fill markers"
       d="m 103.04431,28.94184 c -2.59454,9.973038 -19.06116,54.952137 -23.437359,69.055753 -3.252589,10.482447 19.255479,19.693317 33.195119,23.875207 13.93964,4.18189 40.53398,0.83369 41.17645,-7.16104 0.62393,-7.76401 4.79981,-60.971262 6.21834,-70.900962 1.39396,-9.757756 -8.53079,-18.809209 -23.69739,-22.768089 -14.3958,-3.757677 -31.00946,-1.501815 -33.45516,7.899131 z"
       id="path3-0-5" />
    <ellipse
       style="fill:#2ebbec;fill-opacity:1;stroke:#0d0d0d;stroke-width:8.66099;stroke-linecap:square;stroke-linejoin:miter;stroke-dasharray:none;stroke-opacity:1;paint-order:stroke fill markers"
       id="path6-9"
       cx="136.38994"
       cy="4.3884597"
       rx="36.386883"
       ry="18.097839"
       transform="matrix(0.98782109,0.155594,-0.17886756,0.98387316,0,0)" />
    <circle
       style="fill:url(#radialGradient12);stroke:none;stroke-width:9.75275;stroke-linecap:square;stroke-linejoin:miter;stroke-dasharray:none;stroke-opacity:1;paint-order:stroke fill markers"
       id="circle11-4"
       cx="101.60825"
       cy="166.67725"
       r="86.194023" />
    <path
       style="fill:url(#linearGradient5);stroke:none;stroke-width:9.75275;stroke-linecap:square;stroke-linejoin:miter;stroke-dasharray:none;stroke-opacity:1;paint-order:stroke fill markers"
       d="m 103.04431,28.94184 c -2.59454,9.973038 -19.06116,54.952137 -23.437359,69.055753 -3.252589,10.482447 19.255479,19.693317 33.195119,23.875207 13.93964,4.18189 40.53398,0.83369 41.17645,-7.16104 0.62393,-7.76401 4.79981,-60.971262 6.21834,-70.900962 1.39396,-9.757756 -8.53079,-18.809209 -23.69739,-22.768089 -14.3958,-3.757677 -31.00946,-1.501815 -33.45516,7.899131 z"
       id="path11-3" />
    <ellipse
       style="fill:url(#radialGradient11);stroke:none;stroke-width:8.66099;stroke-linecap:square;stroke-linejoin:miter;stroke-dasharray:none;stroke-opacity:1;paint-order:stroke fill markers"
       id="ellipse11-9"
       cx="136.38994"
       cy="4.3884597"
       rx="36.386883"
       ry="18.097839"
       transform="matrix(0.98782109,0.155594,-0.17886756,0.98387316,0,0)" />
    <ellipse
       style="fill:#000000;fill-opacity:1;stroke:none;stroke-width:5.94037;stroke-linecap:square;stroke-linejoin:miter;stroke-dasharray:none;stroke-opacity:1"
       id="path6-7-0"
       cx="136.31461"
       cy="5.997263"
       rx="26.60618"
       ry="11.643415"
       transform="matrix(0.99067818,0.13622312,-0.20387777,0.97899635,0,0)" />
  </g>
  <path
     style="fill:#ff0000;fill-opacity:1;stroke:none;stroke-width:4.99999;stroke-linejoin:round;stroke-dasharray:none;stroke-opacity:1"
     d="M 69.405237,40.413501 42.770292,74.014509 43.18006,76.882889 76.371298,45.330722 Z"
     id="path90-5" />
  <path
     style="fill:#ff0000;fill-opacity:1;stroke:none;stroke-width:4.99999;stroke-linejoin:round;stroke-dasharray:none;stroke-opacity:1"
     d="m 42.190647,46.98011 33.15445,27.188789 2.874784,-0.36211 -29.767802,-31.251583 z"
     id="path90-9-6" />
  <path
     style="fill:#ff0000;fill-opacity:1;stroke:none;stroke-width:4.99999;stroke-linejoin:round;stroke-dasharray:none;stroke-opacity:1"
     d="M 70.52856,77.877289 43.893615,111.4783 44.303383,114.34668 77.494621,82.794509 Z"
     id="path90-7-3" />
  <path
     style="fill:#ff0000;fill-opacity:1;stroke:none;stroke-width:4.99999;stroke-linejoin:round;stroke-dasharray:none;stroke-opacity:1"
     d="M 43.31397,84.443899 76.46842,111.63269 79.343204,111.27058 49.575402,80.018999 Z"
     id="path90-9-9-6" />
</svg>
