<?xml version="1.0" encoding="UTF-8" standalone="no"?>
<!-- Created with Inkscape (http://www.inkscape.org/) -->

<svg
   width="193.80508mm"
   height="193.80508mm"
   viewBox="0 0 193.80508 193.80508"
   version="1.1"
   id="svg1"
   sodipodi:docname="mathematics.svg"
   inkscape:version="1.3 (0e150ed, 2023-07-21)"
   xmlns:inkscape="http://www.inkscape.org/namespaces/inkscape"
   xmlns:sodipodi="http://sodipodi.sourceforge.net/DTD/sodipodi-0.dtd"
   xmlns="http://www.w3.org/2000/svg"
   xmlns:svg="http://www.w3.org/2000/svg">
  <defs
     id="defs1" />
  <sodipodi:namedview
     id="namedview1"
     pagecolor="#ffffff"
     bordercolor="#000000"
     borderopacity="0.25"
     inkscape:showpageshadow="2"
     inkscape:pageopacity="0.0"
     inkscape:pagecheckerboard="0"
     inkscape:deskcolor="#d1d1d1"
     inkscape:document-units="mm"
     inkscape:zoom="0.24364367"
     inkscape:cx="-728.52292"
     inkscape:cy="605.39229"
     inkscape:window-width="1712"
     inkscape:window-height="1040"
     inkscape:window-x="0"
     inkscape:window-y="39"
     inkscape:window-maximized="1"
     inkscape:current-layer="g4" />
  <g
     id="layer1"
     transform="translate(-12.122139,-60.809219)">
    <circle
       style="fill:#028000;fill-opacity:1;stroke:none;stroke-width:7.9375;stroke-linejoin:round"
       id="path1"
       cx="109.02468"
       cy="157.71176"
       r="96.902542" />
    <circle
       style="display:inline;fill:none;fill-opacity:1;stroke:#91d190;stroke-width:6.70609;stroke-linejoin:round;stroke-opacity:1"
       id="circle88"
       cx="109.02468"
       cy="157.71176"
       r="81.869209" />
    <path
       style="fill:#028000;fill-opacity:1;stroke:none;stroke-width:1;stroke-linejoin:round;stroke-dasharray:none;stroke-opacity:1"
       d="m 65.845159,97.938979 81.811721,-2.840153 19.39665,32.839494 8.34473,61.71128 -14.67341,22.64079 11.20378,12.97451 -70.11924,26.06279 -56.553942,-27.87092 13.500838,-13.0087 1.841377,-19.05989 -7.884368,-74.52742 z"
       id="path89" />
    <circle
       style="display:inline;fill:none;fill-opacity:1;stroke:none;stroke-width:1;stroke-linejoin:round;stroke-dasharray:none;stroke-opacity:1"
       id="circle1"
       cx="-157.71176"
       cy="-109.02468"
       r="87.360924"
       transform="matrix(0,-1,-1,0,0,0)" />
    <path
       d="m 64.843041,233.24975 0.201625,0.14258 -0.101843,0.14402 -4.00369,-2.83124 0.101843,-0.14402 0.201625,0.14258 q 0.273633,0.1935 0.521243,0.0878 0.262012,-0.0956 0.375789,-0.31756 l 2.351043,-4.51609 -4.86651,2.02434 q -1.098969,0.45426 -1.557262,1.10234 l -0.129616,-0.0917 0.2377,-7.39319 -3.35145,3.70063 q -0.171384,0.18126 -0.174164,0.46014 -0.0028,0.27888 0.256452,0.4622 l 0.201625,0.14258 -0.101843,0.14401 -2.736335,-1.93501 0.101843,-0.14402 0.201625,0.14258 q 0.360044,0.25461 0.761856,0.2363 0.426398,-0.0225 0.724211,-0.35202 l 6.714521,-7.11219 0.115214,0.0815 -0.232263,8.9741 8.124428,-3.3931 0.129616,0.0917 -4.489965,8.79332 q -0.16223,0.38216 -0.03539,0.7527 0.126836,0.37054 0.458076,0.60478 z m 10.625418,5.19869 0.125859,0.0638 -0.07976,0.15732 -4.625346,-2.34501 0.07976,-0.15732 0.12586,0.0638 q 0.31465,0.15952 0.551957,0.0425 0.237307,-0.11701 0.317069,-0.27433 0.07976,-0.15732 0.104571,-0.36229 l 0.120247,-1.75846 -3.335284,-1.69096 -1.371088,1.14407 q -0.142692,0.12542 -0.230431,0.29848 -0.07976,0.15732 -0.03388,0.4179 0.06959,0.25282 0.384235,0.41234 l 0.12586,0.0638 -0.07976,0.15733 -3.146494,-1.59525 0.07976,-0.15732 0.12586,0.0638 q 0.330382,0.1675 0.764455,0.13048 0.434072,-0.037 0.845976,-0.34238 l 6.798068,-5.33413 q 1.481875,-1.20656 1.696793,-1.55246 l 0.141592,0.0718 -0.266339,10.97927 q -0.02679,0.55994 0.191926,0.94769 0.242423,0.38 0.588538,0.55548 z m -6.036542,-6.73888 2.80038,1.41977 0.282574,-3.98999 z m 17.064054,2.1709 0.05424,-0.1492 q 0.259139,-0.71283 0.01194,-1.2719 -0.247197,-0.55907 -0.954001,-0.83479 l -1.922985,-0.69907 -3.00722,8.27215 q -0.116006,0.37073 0.05884,0.71582 0.174842,0.34508 0.539547,0.47766 l 0.182352,0.0663 -0.06027,0.16577 -4.575379,-1.66331 0.06026,-0.16578 0.165775,0.0603 q 0.381282,0.13861 0.736918,-0.0136 0.355637,-0.15224 0.494247,-0.53352 l 3.001193,-8.25557 -1.906408,-0.69305 q -0.735435,-0.24859 -1.283956,0.0212 -0.548522,0.2698 -0.807661,0.98263 l -0.05424,0.1492 -0.165775,-0.0603 0.952186,-2.61923 q 0.201952,0.16725 0.702298,0.44299 0.516924,0.28176 0.947938,0.43845 l 6.117083,2.22378 q 0.729408,0.26516 1.229736,0.33444 0.522932,0.0587 0.601295,0.0497 l -0.952186,2.61924 z m 9.927085,10.30124 0.189677,0.0409 -0.03715,0.17243 -4.741909,-1.02155 0.03715,-0.17243 0.172433,0.0371 q 0.396596,0.0854 0.72821,-0.11378 0.331614,-0.19921 0.417052,-0.59581 l 0.80238,-3.72455 -4.534989,-0.97697 -0.802381,3.72455 q -0.06819,0.40031 0.151977,0.7184 0.220172,0.31808 0.599525,0.39981 l 0.189676,0.0409 -0.03715,0.17243 -4.759153,-1.02526 0.03715,-0.17244 0.189676,0.0409 q 0.396596,0.0854 0.72821,-0.11378 0.335328,-0.21646 0.417052,-0.59581 l 1.760779,-8.17333 q 0.08172,-0.37935 -0.138448,-0.69743 -0.216458,-0.33533 -0.613054,-0.42077 l -0.189676,-0.0409 0.03715,-0.17244 4.759153,1.02527 -0.03715,0.17243 -0.189677,-0.0409 q -0.379352,-0.0817 -0.710966,0.11749 -0.331614,0.19921 -0.430581,0.57485 l -0.813525,3.77628 4.53499,0.97698 0.80981,-3.75904 q 0.115156,-0.53455 -0.294692,-0.89349 -0.19816,-0.169 -0.45681,-0.22472 l -0.172433,-0.0371 0.03715,-0.17243 4.74191,1.02155 -0.03715,0.17243 -0.189677,-0.0409 q -0.379352,-0.0817 -0.710966,0.11749 -0.331614,0.19921 -0.434296,0.5921 l -1.764493,8.19057 q -0.09791,0.53825 0.298407,0.87624 0.19816,0.169 0.456809,0.22472 z m 9.529344,0.9259 -8.281191,-0.66587 0.01414,-0.17582 0.210986,0.017 q 0.404389,0.0325 0.689328,-0.21001 0.30252,-0.24111 0.351205,-0.6265 l 0.672941,-8.36911 q 0.01352,-0.38822 -0.246589,-0.67457 -0.242526,-0.28494 -0.646915,-0.31746 l -0.210986,-0.017 0.01414,-0.17582 6.188916,0.49763 q 0.47472,0.0382 1.04442,-0.005 0.5697,-0.0427 0.80533,-0.1122 l -0.22478,2.79556 -0.17582,-0.0141 0.0127,-0.15823 q 0.0622,-0.77362 -0.32442,-1.2471 -0.38663,-0.47349 -1.14125,-0.55186 l -2.53183,-0.20358 -0.34354,4.27247 2.00437,0.16116 q 0.5992,0.0305 0.99953,-0.32663 0.40033,-0.35712 0.44839,-0.95491 l 0.01,-0.12308 0.17582,0.0141 -0.29971,3.72741 -0.17582,-0.0141 0.01,-0.12308 q 0.0665,-0.82636 -0.51924,-1.24507 -0.30092,-0.21885 -0.68773,-0.24995 l -2.02195,-0.16258 -0.33506,4.16697 2.10986,0.16965 q 1.09151,0.0701 1.89985,-0.51968 0.82734,-0.60592 1.27512,-1.77323 l 0.15823,0.0127 z m 16.1502,-0.86855 0.24644,-0.0157 0.0112,0.17603 -4.89366,0.3123 -0.0112,-0.17603 0.24644,-0.0157 q 0.33446,-0.0214 0.46068,-0.25918 0.14383,-0.23895 0.0929,-0.48314 l -1.00781,-4.99068 -2.51467,4.6322 q -0.56968,1.04382 -0.51913,1.83596 l -0.15843,0.0101 -4.45949,-5.90158 -0.28284,4.98466 q -0.0195,0.24869 0.15355,0.46742 0.17304,0.21873 0.48989,0.19851 l 0.24645,-0.0157 0.0112,0.17603 -3.34459,0.21344 -0.0112,-0.17603 0.24644,-0.0157 q 0.44008,-0.0281 0.74121,-0.29475 0.3176,-0.28539 0.34233,-0.72884 l 0.7563,-9.75172 0.14083,-0.009 5.45686,7.12819 4.18963,-7.74381 0.15843,-0.0101 2.0306,9.66224 q 0.11386,0.39926 0.44531,0.60788 0.33146,0.20862 0.73634,0.18278 z m 11.53292,-2.6301 0.13801,-0.0294 0.0368,0.17251 -5.07188,1.08114 -0.0368,-0.17252 0.13801,-0.0294 q 0.34503,-0.0735 0.45616,-0.31365 0.11114,-0.24012 0.0744,-0.41263 -0.0368,-0.17251 -0.14623,-0.34757 l -1.01111,-1.4437 -3.65728,0.77959 -0.34806,1.75147 q -0.0322,0.18722 0.008,0.37698 0.0368,0.17252 0.23616,0.34644 0.21296,0.15299 0.55799,0.0794 l 0.13801,-0.0294 0.0368,0.17252 -3.45026,0.73546 -0.0368,-0.17251 0.13801,-0.0294 q 0.36227,-0.0772 0.67675,-0.37872 0.31447,-0.30149 0.44313,-0.79783 l 1.93829,-8.42079 q 0.395,-1.86968 0.34492,-2.27382 l 0.15526,-0.0331 6.69002,8.70971 q 0.33091,0.45249 0.74467,0.61678 0.42733,0.14337 0.80686,0.0625 z m -8.93011,-1.45099 3.07073,-0.65456 -2.28668,-3.28192 z m 14.64043,-9.03065 -0.0515,-0.15016 q -0.24618,-0.71741 -0.78972,-0.9971 -0.54355,-0.2797 -1.26668,-0.0502 l -1.93534,0.66412 2.85685,8.32528 q 0.14264,0.36132 0.49546,0.51997 0.35282,0.15866 0.71987,0.0327 l 0.18352,-0.063 0.0573,0.16684 -4.60476,1.58014 -0.0573,-0.16684 0.16684,-0.0573 q 0.38373,-0.13168 0.5648,-0.47354 0.18107,-0.34186 0.0494,-0.72559 l -2.85113,-8.3086 -1.91865,0.65839 q -0.72837,0.26859 -0.98565,0.8231 -0.25729,0.5545 -0.0111,1.27191 l 0.0515,0.15015 -0.16684,0.0572 -0.90457,-2.63606 q 0.2622,0.003 0.82471,-0.0965 0.5792,-0.10551 1.01298,-0.25436 l 6.15637,-2.11258 q 0.73409,-0.2519 1.16689,-0.51231 0.44376,-0.28282 0.49904,-0.33909 l 0.90458,2.63606 z m 3.54373,6.95979 0.1927,-0.0876 q 0.3854,-0.17515 0.54892,-0.5401 0.15622,-0.381 -0.004,-0.73428 l -3.45933,-7.61162 q -0.16056,-0.35328 -0.54302,-0.47008 -0.38976,-0.13287 -0.77516,0.0423 l -0.1927,0.0876 -0.073,-0.16059 4.56055,-2.07267 0.073,0.16058 -0.1927,0.0876 q -0.36934,0.16786 -0.53286,0.5328 -0.16352,0.36494 -0.019,0.72552 l 3.46663,7.62768 q 0.18391,0.36204 0.56637,0.47884 0.38247,0.11681 0.75181,-0.0511 l 0.1927,-0.0876 0.073,0.16059 -4.56055,2.07267 z m 11.22562,-5.27695 q -2.56562,1.48299 -4.75786,1.09119 -2.20116,-0.40701 -3.51209,-2.64413 -1.31093,-2.23712 -0.60536,-4.34745 0.72079,-2.11925 3.29272,-3.62637 2.00884,-1.17716 3.83438,-1.30648 l 1.41794,2.41974 -0.10653,0.0624 q -1.17415,-1.1315 -2.30439,-1.24607 -1.13024,-0.11458 -2.3325,0.58994 -1.61316,0.94529 -1.81439,2.55564 -0.21015,1.59514 0.91351,3.51266 1.11473,1.90231 2.61167,2.538 1.54521,0.64828 3.03663,-0.22567 1.08051,-0.63317 1.58436,-1.3782 0.50386,-0.74503 0.4867,-1.7163 -0.0261,-0.98649 -0.56842,-2.36555 l 0.10653,-0.0624 1.52922,2.19098 q -0.017,1.05259 -0.71449,2.09511 -0.68231,1.0336 -2.09763,1.86296 z m 3.99747,-4.4901 q -0.6946,-0.91218 -0.77918,-1.86761 l 0.11227,-0.0855 q 0.0608,0.10892 0.12488,0.19312 0.65185,0.85604 1.74685,1.04208 1.10903,0.17536 2.20364,-0.65815 0.78588,-0.59842 0.92905,-1.28388 0.1572,-0.69614 -0.18476,-1.14521 -0.34195,-0.44907 -0.79759,-0.52336 -0.45229,-0.099 -1.29147,-0.0364 l -2.9545,0.2544 q -1.86143,0.17587 -2.8018,-1.05907 -0.0962,-0.1263 -0.18901,-0.27733 -0.67451,-1.06049 -0.41431,-2.14545 0.24952,-1.09899 1.17573,-1.80427 0.94024,-0.71596 2.07489,-1.38043 l 0.75781,-0.57705 1.21409,2.00203 -0.1263,0.0962 q -0.50224,-0.65957 -1.25387,-0.68583 -0.7376,-0.037 -1.49541,0.54009 -0.74377,0.56636 -0.93303,1.2204 -0.19994,0.64001 0.19544,1.15925 0.32058,0.421 0.97668,0.40916 0.26458,-0.002 0.73695,-0.0513 l 3.27856,-0.3238 q 1.68505,-0.17458 2.62542,1.06037 0.99381,1.30511 0.6019,2.71207 -0.37788,1.39627 -1.83736,2.50762 -0.89814,0.6839 -1.74607,0.99702 -0.84794,0.31311 -1.41649,0.23612 -0.27655,-0.18848 -0.53301,-0.52529 z"
       id="text89"
       style="-inkscape-font-specification:'Cinzel, Bold';fill:#ffffff;stroke-linejoin:round"
       aria-label="mathematics" />
    <circle
       style="fill:#175d16;fill-opacity:1;stroke:#000000;stroke-width:2.89539;stroke-linejoin:round;stroke-dasharray:none;stroke-opacity:1"
       id="path1-1"
       cx="109.05569"
       cy="150.42389"
       r="60.220577" />
    <circle
       style="display:inline;fill:none;fill-opacity:1;stroke:#49ab47;stroke-width:4.168;stroke-linejoin:round;stroke-opacity:1;stroke-dasharray:none"
       id="circle88-6"
       cx="109.05569"
       cy="150.42389"
       r="50.878033" />
    <g
       id="g4"
       style="filter:url(#filter88-0)"
       transform="matrix(0.83424382,0,0,0.83424382,2.4589737,39.952712)">
      <g
         id="g2"
         transform="matrix(0.1317788,0,0,0.1317788,-139.33829,91.401215)">
        <g
           id="group-R5">
          <path
             id="path7"
             d="m 18800.8,15570 c -145,-101.1 -168.4,-211.2 -172.1,-241.7 -23,-13.6 -44.4,-25.6 -64,-36.2 30.7,51.2 59.8,103.3 86.5,156.5 44.4,90.8 82.9,184.2 115.2,279.7 3.6,10.5 7.1,21 10.5,31.5 25.1,78.6 61.5,153.2 110.1,219.8 3.3,4.4 6.5,8.9 9.6,13.3 l -0.1,-0.1 c 406.1,222.3 219.8,675.5 219.8,675.5 6.1,-100.1 -90.5,-176.4 -189.8,-358.9 -84.4,-155.3 -56.1,-264.2 -45.8,-293.2 -20.8,-32 -40.2,-60.1 -57,-83.4 6.7,29.2 12.8,58.5 18.5,87.8 19.3,98.8 30,199.1 34.9,299.4 l 1.6,37.7 c 0.7,12.5 1.1,25 0.9,37.6 l -0.1,75.3 c -0.6,25.1 -2.2,50.1 -3.2,75.2 -0.7,12.5 -0.9,25.1 -2,37.6 l -3.5,37.4 v 0 c -2.2,24.8 -0.9,49.9 4.1,74.3 l 29,143.2 v -0.1 c 296,355.9 -43.7,709 -43.7,709 42.4,-90.8 -19.3,-197.3 -44.7,-403.5 -21.5,-175.5 44.8,-266.3 65.1,-289.5 -8.4,-41.6 -17,-77.9 -24.7,-107.5 l -3.3,23.3 c -2.9,24.9 -8.7,49.3 -13.2,74 l -7.1,36.8 c -2.3,12.3 -4.7,24.6 -7.9,36.7 -12.1,48.6 -23.1,97.4 -38.6,145.1 l -10.9,35.9 -5.4,17.9 -6.3,17.7 -25.2,70.6 c -16,41 -32.7,81.8 -50.6,122 -32,72.2 -52,149.4 -56.4,228.2 -1.1,18.3 -2.5,36.3 -4.3,53.9 l 0.1,-0.1 c 159.3,434.6 -279.3,653.2 -279.3,653.2 70.5,-71.3 48.1,-192.4 93.4,-395.1 38.7,-172.5 131.7,-235.8 158.5,-250.9 8.5,-59 13.1,-108.4 15.5,-143 -0.7,1.2 -1.3,2.5 -2,3.7 l -17.7,33 c -5.9,10.9 -12.8,21.4 -19.1,32.1 l -38.7,64 -41.7,62 c -7.1,10.3 -13.8,20.8 -21.1,30.9 l -22.3,29.9 c -23,32 -47.3,62.9 -72.5,93.2 l 0.1,-0.1 c -35.1,44.5 -83.1,108.6 -124.8,155 -19.6,21.7 -36.8,45.6 -49.3,72.1 -182.5,384.6 -628.1,276.5 -628.1,276.5 100.1,-6.4 163.8,-111.8 332.5,-232.9 133.4,-95.8 239.1,-90.1 277.6,-83.5 4.6,-1.5 10.2,-3.3 14.9,-4.8 l 51,-53.4 c 66.6,-73.3 130.4,-149.2 186.2,-231 l 21.4,-30.2 c 6.9,-10.3 13.4,-20.8 20.1,-31.2 l 39.7,-62.6 16.8,-29.4 c -44.3,37.6 -88.9,70.4 -133.1,98.8 l 0.2,-0.1 c -240.3,395.7 -684.7,189.3 -684.7,189.3 99.7,10.6 180.3,-82.5 367,-173.5 159,-77.4 266.5,-44.2 295,-32.6 63.6,-37.3 116.5,-73.8 147.1,-95.8 19.3,-13.9 35.6,-31.8 46.4,-53 0,-0.1 0.1,-0.2 0.1,-0.3 l 16.7,-33.1 c 46.1,-87.3 83.2,-179 116.6,-271.7 l 23.1,-70.1 5.8,-17.6 4.8,-17.8 9.8,-35.6 c 14.1,-47.2 23.7,-95.6 34.3,-143.6 2.9,-11.9 4.9,-24.1 6.9,-36.2 l 0.1,-0.7 c -30,46.1 -61.5,88.2 -93.7,126.3 l 0.1,-0.1 c -114,448.7 -599.4,381.3 -599.4,381.3 98.5,-19 148.4,-131.6 300.3,-273.2 129.3,-120.6 241.8,-120.3 272.5,-117.5 34.8,-37.9 63.3,-71.8 84.4,-98 29.2,-36.4 48.5,-80.2 52.8,-126.6 0,-0.3 0,-0.5 0,-0.8 l 8.4,-73.2 2.1,-18.3 1.2,-18.4 2.4,-36.8 2.4,-36.7 c 0.9,-12.3 0.7,-24.5 1.1,-36.8 0.4,-24.6 1.3,-49.1 1.2,-73.6 l -1.8,-73.6 c -0.1,-12.2 -0.8,-24.5 -1.7,-36.7 l -2.6,-36.7 c -4,-52.9 -9.6,-105.8 -17.3,-158.3 -10.5,44.1 -22.7,86.1 -36.5,125.6 l 0.1,-0.1 c 53.6,459.8 -423.8,570.1 -423.8,570.1 85.2,-52.9 91.6,-175.9 182.9,-362.4 77.8,-158.8 183,-198.7 212.6,-207.1 11.4,-28.6 21.2,-55 29.4,-78.4 20.2,-57.5 24.5,-119.6 11.4,-179 -0.1,-0.3 -0.2,-0.7 -0.3,-0.9 -20.9,-95.6 -46.7,-190.1 -80.7,-281.7 -33.8,-91.7 -73.2,-181.1 -118.3,-267.6 -13.4,-25 -27.4,-49.7 -41.8,-74.3 8.3,51.9 13,101.8 14.8,149.7 v -0.2 c 218.4,408.2 -185.4,685.8 -185.4,685.8 59.9,-80.5 20.8,-197.2 37.4,-404.3 14.2,-176.2 97.5,-251.9 122,-270.5 0,-6.8 0,-13.4 -0.1,-19.9 -0.6,-112.1 -34.9,-221.8 -99.9,-313.1 -0.3,-0.5 -0.6,-0.9 -0.9,-1.4 -56.2,-79.6 -119.3,-153.9 -185.8,-224.7 -17,-17.3 -33,-35.6 -50.8,-52.1 l -52.6,-50.5 c -0.8,0.7 -0.6,0.5 -1.4,1.2 16,28.4 30.4,56.7 43.4,84.5 v -0.1 c 359.5,291.6 94.9,704 94.9,704 23.9,-97.4 -57.4,-189.8 -122.2,-387.2 -55.2,-167.9 -7.8,-269.9 7.5,-296.6 -10.6,-25.4 -20.8,-48.7 -30.4,-69.4 -23.3,-50.8 -57.6,-96 -101.7,-130.4 -0.2,-0.2 -0.5,-0.4 -0.7,-0.5 -75.8,-60.5 -154.8,-117 -238.3,-166 -48.6,-28.7 -98.2,-55.6 -148.7,-80.7 21.1,21.6 40.6,43.5 58.5,65.3 l -0.1,-0.1 c 344.4,158.9 217.6,539.8 217.6,539.8 -0.6,-82.1 -83.8,-139.1 -175.2,-282.7 -77.8,-122.1 -60.8,-212.7 -54,-237 -11.2,-14.9 -21.9,-28.7 -31.9,-41.2 -32.9,-41.2 -75.3,-74.1 -123.8,-94.6 -0.3,-0.1 -0.5,-0.3 -0.7,-0.3 -89.2,-37.4 -180.6,-68.9 -273.5,-94.7 l -1.1,-0.3 h -0.2 c -25.2,-7.2 -43.8,-29.6 -44.4,-55.8 -1,-44.8 40.4,-73.3 79.1,-61.5 97.6,29.8 193.3,65.6 286.2,107.3 92.8,42.2 182.2,91.4 268.3,145.4 51.9,32.4 102.1,67.5 150.7,104.5 66,50.3 145.3,80.2 228.1,87.3 h -0.2 c 432.2,-165.9 657.4,269.3 657.4,269.3 -72.4,-69.4 -193.1,-45.1 -396.5,-87.5 -173,-36 -237.8,-128 -253.2,-154.6 -41.6,-5.4 -78.4,-8.8 -108.7,-11.1 27.5,24.2 54.1,49.4 80.9,74.3 l 53.5,54.1 c 18.1,17.7 34.4,37.2 51.6,55.7 67.4,75.6 131.1,154.7 187.3,238.8 1.1,1.7 2.3,3.4 3.4,5.1 27.6,41.2 65.3,74.5 109.5,97 7.2,3.6 14.3,7.4 21.4,11.1 l -0.1,-0.1 c 462.6,17.3 498.5,506 498.5,506 -39.2,-92.2 -159.8,-117.3 -330.1,-236.2"
             style="fill:#ffffff;fill-opacity:1;fill-rule:nonzero;stroke:none"
             transform="matrix(0.13333333,0,0,-0.13333333,0,2666.6667)" />
          <path
             id="path8"
             d="m 14551.8,15570 c 145,-101.1 168.4,-211.2 172.1,-241.7 23,-13.6 44.4,-25.6 64,-36.2 -30.7,51.2 -59.7,103.3 -86.5,156.5 -44.4,90.8 -82.8,184.2 -115.2,279.7 -3.6,10.5 -7.1,21 -10.4,31.5 -25.2,78.6 -61.6,153.2 -110.2,219.8 -3.2,4.4 -6.4,8.9 -9.6,13.3 l 0.1,-0.1 c -406.1,222.3 -219.7,675.5 -219.7,675.5 -6.2,-100.1 90.4,-176.4 189.7,-358.9 84.4,-155.3 56.1,-264.2 45.8,-293.2 20.8,-32 40.2,-60.1 57,-83.4 -6.6,29.2 -12.8,58.5 -18.5,87.8 -19.3,98.8 -30,199.1 -34.9,299.4 l -1.6,37.7 c -0.7,12.5 -1.1,25 -0.9,37.6 l 0.1,75.3 c 0.6,25.1 2.2,50.1 3.2,75.2 0.7,12.5 0.9,25.1 2,37.6 l 3.5,37.4 v 0 c 2.3,24.8 0.9,49.9 -4.1,74.3 l -29,143.2 v -0.1 c -296,355.9 43.7,709 43.7,709 -42.4,-90.8 19.4,-197.3 44.7,-403.5 21.5,-175.5 -44.8,-266.3 -65.1,-289.5 8.4,-41.6 17.1,-77.9 24.7,-107.5 l 3.3,23.3 c 2.9,24.9 8.7,49.3 13.2,74 l 7.1,36.8 c 2.3,12.3 4.7,24.6 7.9,36.7 12.1,48.6 23.2,97.4 38.7,145.1 l 10.8,35.9 5.4,17.9 6.3,17.7 25.3,70.6 c 15.9,41 32.6,81.8 50.5,122 32.1,72.2 52,149.4 56.5,228.2 1,18.3 2.4,36.3 4.2,53.9 l -0.1,-0.1 c -159.3,434.6 279.3,653.2 279.3,653.2 -70.5,-71.3 -48.1,-192.4 -93.4,-395.1 -38.7,-172.5 -131.6,-235.8 -158.5,-250.9 -8.5,-59 -13.1,-108.4 -15.5,-143 0.7,1.2 1.3,2.5 2,3.7 l 17.8,33 c 5.8,10.9 12.7,21.4 19,32.1 l 38.7,64 41.8,62 c 7,10.3 13.8,20.8 21,30.9 l 22.3,29.9 c 23.1,32 47.3,62.9 72.5,93.2 l -0.1,-0.1 c 35.1,44.5 83.1,108.6 124.8,155 19.6,21.7 36.8,45.6 49.3,72.1 182.5,384.6 628.1,276.5 628.1,276.5 -100,-6.4 -163.8,-111.8 -332.5,-232.9 -133.4,-95.8 -239.1,-90.1 -277.6,-83.5 -4.6,-1.5 -10.2,-3.3 -14.8,-4.8 l -51.1,-53.4 c -66.5,-73.3 -130.4,-149.2 -186.1,-231 l -21.5,-30.2 c -6.9,-10.3 -13.4,-20.8 -20.1,-31.2 l -39.7,-62.6 -16.8,-29.4 c 44.3,37.6 88.9,70.4 133.1,98.8 l -0.2,-0.1 c 240.3,395.7 684.8,189.3 684.8,189.3 -99.8,10.6 -180.4,-82.5 -367.1,-173.5 -158.9,-77.4 -266.4,-44.2 -295,-32.6 -63.6,-37.3 -116.5,-73.8 -147.1,-95.8 -19.3,-13.9 -35.6,-31.8 -46.3,-53 -0.1,-0.1 -0.2,-0.2 -0.2,-0.3 l -16.7,-33.1 c -46.1,-87.3 -83.2,-179 -116.6,-271.7 l -23.1,-70.1 -5.8,-17.6 -4.8,-17.8 -9.8,-35.6 c -14,-47.2 -23.6,-95.6 -34.3,-143.6 -2.9,-11.9 -4.9,-24.1 -6.9,-36.2 l -0.1,-0.7 c 30,46.1 61.5,88.2 93.7,126.3 l -0.1,-0.1 c 114,448.7 599.4,381.3 599.4,381.3 -98.5,-19 -148.3,-131.6 -300.3,-273.2 -129.3,-120.6 -241.8,-120.3 -272.5,-117.5 -34.8,-37.9 -63.3,-71.8 -84.4,-98 -29.2,-36.4 -48.5,-80.2 -52.7,-126.6 -0.1,-0.3 -0.1,-0.5 -0.1,-0.8 l -8.4,-73.2 -2.1,-18.3 -1.2,-18.4 -2.4,-36.8 -2.4,-36.7 c -0.8,-12.3 -0.7,-24.5 -1.1,-36.8 -0.3,-24.6 -1.3,-49.1 -1.2,-73.6 l 1.8,-73.6 c 0.1,-12.2 0.8,-24.5 1.8,-36.7 l 2.5,-36.7 c 4,-52.9 9.6,-105.8 17.3,-158.3 10.5,44.1 22.7,86.1 36.5,125.6 l -0.1,-0.1 c -53.6,459.8 423.8,570.1 423.8,570.1 -85.2,-52.9 -91.5,-175.9 -182.9,-362.4 -77.8,-158.8 -183,-198.7 -212.6,-207.1 -11.4,-28.6 -21.2,-55 -29.4,-78.4 -20.2,-57.5 -24.5,-119.6 -11.3,-179 0,-0.3 0.1,-0.7 0.2,-0.9 21,-95.6 46.7,-190.1 80.7,-281.7 33.8,-91.7 73.3,-181.1 118.3,-267.6 13.5,-25 27.5,-49.7 41.8,-74.3 -8.3,51.9 -12.9,101.8 -14.8,149.7 v -0.2 c -218.4,408.2 185.4,685.8 185.4,685.8 -59.9,-80.5 -20.7,-197.2 -37.4,-404.3 -14.2,-176.2 -97.4,-251.9 -121.9,-270.5 -0.1,-6.8 -0.1,-13.4 0,-19.9 0.7,-112.1 35,-221.8 99.9,-313.1 0.3,-0.5 0.6,-0.9 1,-1.4 56.1,-79.6 119.2,-153.9 185.7,-224.7 17,-17.3 33,-35.6 50.9,-52.1 l 52.5,-50.5 c 0.8,0.7 0.6,0.5 1.4,1.2 -16,28.4 -30.4,56.7 -43.4,84.5 v -0.1 c -359.5,291.6 -94.8,704 -94.8,704 -24,-97.4 57.3,-189.8 122.1,-387.2 55.3,-167.9 7.9,-269.9 -7.5,-296.6 10.6,-25.4 20.9,-48.7 30.4,-69.4 23.3,-50.8 57.6,-96 101.7,-130.4 0.3,-0.2 0.5,-0.4 0.7,-0.5 75.8,-60.5 154.8,-117 238.4,-166 48.5,-28.7 98.1,-55.6 148.6,-80.7 -21,21.6 -40.6,43.5 -58.5,65.3 l 0.1,-0.1 c -344.4,158.9 -217.6,539.8 -217.6,539.8 0.6,-82.1 83.9,-139.1 175.2,-282.7 77.8,-122.1 60.8,-212.7 54,-237 11.2,-14.9 21.9,-28.7 31.9,-41.2 32.9,-41.2 75.3,-74.1 123.8,-94.6 0.3,-0.1 0.5,-0.3 0.8,-0.3 89.1,-37.4 180.5,-68.9 273.4,-94.7 l 1.1,-0.3 h 0.2 c 25.2,-7.2 43.8,-29.6 44.4,-55.8 1,-44.8 -40.4,-73.3 -79.1,-61.5 -97.6,29.8 -193.3,65.6 -286.2,107.3 -92.8,42.2 -182.2,91.4 -268.3,145.4 -51.9,32.4 -102.1,67.5 -150.7,104.5 -66,50.3 -145.3,80.2 -228.1,87.3 h 0.2 c -432.2,-165.9 -657.4,269.3 -657.4,269.3 72.4,-69.4 193.1,-45.1 396.5,-87.5 173.1,-36 237.8,-128 253.3,-154.6 41.6,-5.4 78.4,-8.8 108.6,-11.1 -27.4,24.2 -54.1,49.4 -80.9,74.3 l -53.4,54.1 c -18.2,17.7 -34.4,37.2 -51.7,55.7 -67.4,75.6 -131.1,154.7 -187.3,238.8 -1.1,1.7 -2.3,3.4 -3.4,5.1 -27.6,41.2 -65.3,74.5 -109.5,97 -7.2,3.6 -14.3,7.4 -21.4,11.1 l 0.1,-0.1 c -462.5,17.3 -498.5,506 -498.5,506 39.2,-92.2 159.8,-117.3 330.1,-236.2"
             style="fill:#ffffff;fill-opacity:1;fill-rule:nonzero;stroke:none"
             transform="matrix(0.13333333,0,0,-0.13333333,0,2666.6667)" />
        </g>
      </g>
      <text
         xml:space="preserve"
         transform="matrix(0.26458333,0,0,0.26458333,140.08457,173.86124)"
         id="text3"
         style="font-style:normal;font-variant:normal;font-weight:bold;font-stretch:normal;font-size:200px;font-family:Cinzel;-inkscape-font-specification:'Cinzel, Bold';font-variant-ligatures:normal;font-variant-caps:normal;font-variant-numeric:normal;font-variant-east-asian:normal;text-align:center;white-space:pre;shape-inside:url(#rect3-90);display:inline;fill:#ffffff;fill-opacity:1;stroke:none;stroke-width:3.77953;stroke-linejoin:round;stroke-dasharray:none;stroke-opacity:1"><tspan
           x="0"
           y="0"
           id="tspan2">3</tspan></text>
    </g>
  </g>
</svg>
