<?xml version="1.0" encoding="UTF-8" standalone="no"?>
<!-- Created with Inkscape (http://www.inkscape.org/) -->

<svg
   width="24.427282mm"
   height="6.4107022mm"
   viewBox="0 0 24.427282 6.4107022"
   version="1.1"
   id="svg1"
   xml:space="preserve"
   xmlns:xlink="http://www.w3.org/1999/xlink"
   xmlns="http://www.w3.org/2000/svg"
   xmlns:svg="http://www.w3.org/2000/svg"><defs
     id="defs1"><linearGradient
       xlink:href="#linearGradient1"
       id="linearGradient2"
       x1="147.44316"
       y1="491.29205"
       x2="362.34576"
       y2="36.928886"
       gradientUnits="userSpaceOnUse"
       gradientTransform="matrix(0.03683464,0,0,0.03683464,76.389414,130.82746)" /><linearGradient
       id="linearGradient1"><stop
         style="stop-color:#9c732d;stop-opacity:1;"
         offset="0"
         id="stop1" /><stop
         style="stop-color:#d3aa65;stop-opacity:1;"
         offset="1"
         id="stop2" /></linearGradient><rect
       x="539.96759"
       y="502.93011"
       width="207.60487"
       height="293.37589"
       id="rect3-9" /><filter
       style="color-interpolation-filters:sRGB"
       id="filter70"
       x="-0.19850187"
       y="-0.14133333"
       width="1.3970037"
       height="1.2826667"><feFlood
         result="flood"
         in="SourceGraphic"
         flood-opacity="1.000000"
         flood-color="rgb(249,237,183)"
         id="feFlood69" /><feGaussianBlur
         result="blur"
         in="SourceGraphic"
         stdDeviation="3.000000"
         id="feGaussianBlur69" /><feOffset
         result="offset"
         in="blur"
         dx="1.000000"
         dy="1.000000"
         id="feOffset69" /><feComposite
         result="comp1"
         operator="in"
         in="flood"
         in2="offset"
         id="feComposite69" /><feComposite
         result="fbSourceGraphic"
         operator="over"
         in="SourceGraphic"
         in2="comp1"
         id="feComposite70" /><feColorMatrix
         result="fbSourceGraphicAlpha"
         in="fbSourceGraphic"
         values="0 0 0 -1 0 0 0 0 -1 0 0 0 0 -1 0 0 0 0 1 0"
         id="feColorMatrix70" /><feFlood
         id="feFlood70"
         result="flood"
         in="fbSourceGraphic"
         flood-opacity="1.000000"
         flood-color="rgb(249,237,183)" /><feGaussianBlur
         id="feGaussianBlur70"
         result="blur"
         in="fbSourceGraphic"
         stdDeviation="3.000000" /><feOffset
         id="feOffset70"
         result="offset"
         in="blur"
         dx="1.000000"
         dy="1.000000" /><feComposite
         id="feComposite71"
         result="comp1"
         operator="in"
         in="flood"
         in2="offset" /><feComposite
         id="feComposite72"
         result="fbSourceGraphic"
         operator="over"
         in="fbSourceGraphic"
         in2="comp1" /><feColorMatrix
         result="fbSourceGraphicAlpha"
         in="fbSourceGraphic"
         values="0 0 0 -1 0 0 0 0 -1 0 0 0 0 -1 0 0 0 0 1 0"
         id="feColorMatrix82" /><feFlood
         id="feFlood82"
         result="flood"
         in="fbSourceGraphic"
         flood-opacity="1.000000"
         flood-color="rgb(85,71,7)" /><feGaussianBlur
         id="feGaussianBlur82"
         result="blur"
         in="fbSourceGraphic"
         stdDeviation="1.000000" /><feOffset
         id="feOffset82"
         result="offset"
         in="blur"
         dx="-1.000000"
         dy="-1.000000" /><feComposite
         id="feComposite82"
         result="comp1"
         operator="in"
         in="flood"
         in2="offset" /><feComposite
         id="feComposite83"
         result="fbSourceGraphic"
         operator="over"
         in="fbSourceGraphic"
         in2="comp1" /><feColorMatrix
         result="fbSourceGraphicAlpha"
         in="fbSourceGraphic"
         values="0 0 0 -1 0 0 0 0 -1 0 0 0 0 -1 0 0 0 0 1 0"
         id="feColorMatrix83" /><feFlood
         id="feFlood83"
         result="flood"
         in="fbSourceGraphic"
         flood-opacity="1.000000"
         flood-color="rgb(85,71,7)" /><feGaussianBlur
         id="feGaussianBlur83"
         result="blur"
         in="fbSourceGraphic"
         stdDeviation="1.000000" /><feOffset
         id="feOffset83"
         result="offset"
         in="blur"
         dx="-1.000000"
         dy="-1.000000" /><feComposite
         id="feComposite84"
         result="comp1"
         operator="in"
         in="flood"
         in2="offset" /><feComposite
         id="feComposite85"
         result="comp2"
         operator="over"
         in="fbSourceGraphic"
         in2="comp1" /></filter><clipPath
       clipPathUnits="userSpaceOnUse"
       id="clipPath10"><path
         style="fill:none;stroke:#040404;stroke-width:1;stroke-dasharray:none;stroke-opacity:1;paint-order:stroke fill markers"
         d="m 73.592915,138.45524 15.632779,-0.9142 -1.188455,2.51405 10.878952,-0.13713 -5.439476,-11.19892 -14.215774,-1.14275 z m -2.422623,2.21693 13.621549,-0.63994 -1.325589,2.23979 13.804387,1.09704 -3.291115,7.72497 h -15.40423 z"
         id="path10" /></clipPath><clipPath
       clipPathUnits="userSpaceOnUse"
       id="clipPath11"><path
         style="fill:none;stroke:#040404;stroke-width:1;stroke-dasharray:none;stroke-opacity:1;paint-order:stroke fill markers"
         d="m 73.592915,138.45524 15.632779,-0.9142 -1.188455,2.51405 10.878952,-0.13713 -5.439476,-11.19892 -14.215774,-1.14275 z m -2.422623,2.21693 13.621549,-0.63994 -1.325589,2.23979 13.804387,1.09704 -3.291115,7.72497 h -15.40423 z"
         id="path11" /></clipPath><clipPath
       clipPathUnits="userSpaceOnUse"
       id="clipPath12"><path
         style="fill:none;stroke:#040404;stroke-width:1;stroke-dasharray:none;stroke-opacity:1;paint-order:stroke fill markers"
         d="m 73.592915,138.45524 15.632779,-0.9142 -1.188455,2.51405 10.878952,-0.13713 -5.439476,-11.19892 -14.215774,-1.14275 z m -2.422623,2.21693 13.621549,-0.63994 -1.325589,2.23979 13.804387,1.09704 -3.291115,7.72497 h -15.40423 z"
         id="path12" /></clipPath><clipPath
       clipPathUnits="userSpaceOnUse"
       id="clipPath13"><path
         style="fill:none;stroke:#040404;stroke-width:1;stroke-dasharray:none;stroke-opacity:1;paint-order:stroke fill markers"
         d="m 73.592915,138.45524 15.632779,-0.9142 -1.188455,2.51405 10.878952,-0.13713 -5.439476,-11.19892 -14.215774,-1.14275 z m -2.422623,2.21693 13.621549,-0.63994 -1.325589,2.23979 13.804387,1.09704 -3.291115,7.72497 h -15.40423 z"
         id="path13" /></clipPath><clipPath
       clipPathUnits="userSpaceOnUse"
       id="clipPath14"><path
         style="fill:none;stroke:#040404;stroke-width:1;stroke-dasharray:none;stroke-opacity:1;paint-order:stroke fill markers"
         d="m 73.592915,138.45524 15.632779,-0.9142 -1.188455,2.51405 10.878952,-0.13713 -5.439476,-11.19892 -14.215774,-1.14275 z m -2.422623,2.21693 13.621549,-0.63994 -1.325589,2.23979 13.804387,1.09704 -3.291115,7.72497 h -15.40423 z"
         id="path14" /></clipPath><clipPath
       clipPathUnits="userSpaceOnUse"
       id="clipPath33"><g
         id="g33"
         transform="matrix(-1.0001583,0.01779195,0,1,0,0)"><path
           id="path33"
           style="fill:#a2a2a2;stroke:none;stroke-width:2;paint-order:stroke fill markers"
           d="m 26.766842,96.439591 -7.886857,13.926279 8.168493,14.34848 h 70.752317 l 2.480935,-3.01584 8.4333,0.009 2.49655,3.00683 h 70.65225 l 8.16902,-14.34848 -7.88738,-13.926279 z" /></g></clipPath><clipPath
       clipPathUnits="userSpaceOnUse"
       id="clipPath34"><g
         id="g34"
         transform="scale(-1,1)"><path
           id="path34"
           style="fill:#a2a2a2;stroke:none;stroke-width:2;paint-order:stroke fill markers"
           d="m 26.766842,96.439591 -7.886857,13.926279 8.168493,14.34848 h 70.752317 l 2.480935,-3.01584 8.4333,0.009 2.49655,3.00683 h 70.65225 l 8.16902,-14.34848 -7.88738,-13.926279 z" /></g></clipPath><clipPath
       clipPathUnits="userSpaceOnUse"
       id="clipPath35"><g
         id="g35"
         transform="scale(-1,1)"><path
           id="path35"
           style="fill:#a2a2a2;stroke:none;stroke-width:2;paint-order:stroke fill markers"
           d="m 26.766842,96.439591 -7.886857,13.926279 8.168493,14.34848 h 70.752317 l 2.480935,-3.01584 8.4333,0.009 2.49655,3.00683 h 70.65225 l 8.16902,-14.34848 -7.88738,-13.926279 z" /></g></clipPath><clipPath
       clipPathUnits="userSpaceOnUse"
       id="clipPath36"><g
         id="g36"
         transform="scale(-1,1)"><path
           id="path36"
           style="fill:#a2a2a2;stroke:none;stroke-width:2;paint-order:stroke fill markers"
           d="m 26.766842,96.439591 -7.886857,13.926279 8.168493,14.34848 h 70.752317 l 2.480935,-3.01584 8.4333,0.009 2.49655,3.00683 h 70.65225 l 8.16902,-14.34848 -7.88738,-13.926279 z" /></g></clipPath><clipPath
       clipPathUnits="userSpaceOnUse"
       id="clipPath37"><g
         id="g37"
         transform="matrix(1.0001583,-0.01779195,0,1,0,0)"><path
           id="path37"
           style="fill:#a2a2a2;stroke:none;stroke-width:2;paint-order:stroke fill markers"
           d="m 26.766842,96.439591 -7.886857,13.926279 8.168493,14.34848 h 70.752317 l 2.480935,-3.01584 8.4333,0.009 2.49655,3.00683 h 70.65225 l 8.16902,-14.34848 -7.88738,-13.926279 z" /></g></clipPath><clipPath
       clipPathUnits="userSpaceOnUse"
       id="clipPath38"><g
         id="g38"><path
           id="path38"
           style="fill:#a2a2a2;stroke:none;stroke-width:2;paint-order:stroke fill markers"
           d="m 26.766842,96.439591 -7.886857,13.926279 8.168493,14.34848 h 70.752317 l 2.480935,-3.01584 8.4333,0.009 2.49655,3.00683 h 70.65225 l 8.16902,-14.34848 -7.88738,-13.926279 z" /></g></clipPath><clipPath
       clipPathUnits="userSpaceOnUse"
       id="clipPath39"><g
         id="g39"><path
           id="path39"
           style="fill:#a2a2a2;stroke:none;stroke-width:2;paint-order:stroke fill markers"
           d="m 26.766842,96.439591 -7.886857,13.926279 8.168493,14.34848 h 70.752317 l 2.480935,-3.01584 8.4333,0.009 2.49655,3.00683 h 70.65225 l 8.16902,-14.34848 -7.88738,-13.926279 z" /></g></clipPath><clipPath
       clipPathUnits="userSpaceOnUse"
       id="clipPath40"><g
         id="g40"><path
           id="path40"
           style="fill:#a2a2a2;stroke:none;stroke-width:2;paint-order:stroke fill markers"
           d="m 26.766842,96.439591 -7.886857,13.926279 8.168493,14.34848 h 70.752317 l 2.480935,-3.01584 8.4333,0.009 2.49655,3.00683 h 70.65225 l 8.16902,-14.34848 -7.88738,-13.926279 z" /></g></clipPath><clipPath
       clipPathUnits="userSpaceOnUse"
       id="clipPath41"><g
         id="g41"><path
           id="path41"
           style="fill:#a2a2a2;stroke:none;stroke-width:2;paint-order:stroke fill markers"
           d="m 26.766842,96.439591 -7.886857,13.926279 8.168493,14.34848 h 70.752317 l 2.480935,-3.01584 8.4333,0.009 2.49655,3.00683 h 70.65225 l 8.16902,-14.34848 -7.88738,-13.926279 z" /></g></clipPath><clipPath
       clipPathUnits="userSpaceOnUse"
       id="clipPath42"><g
         id="g42"><path
           id="path42"
           style="fill:#a2a2a2;stroke:none;stroke-width:2;paint-order:stroke fill markers"
           d="m 26.766842,96.439591 -7.886857,13.926279 8.168493,14.34848 h 70.752317 l 2.480935,-3.01584 8.4333,0.009 2.49655,3.00683 h 70.65225 l 8.16902,-14.34848 -7.88738,-13.926279 z" /></g></clipPath><clipPath
       clipPathUnits="userSpaceOnUse"
       id="clipPath14-2"><path
         style="fill:none;stroke:#040404;stroke-width:1;stroke-dasharray:none;stroke-opacity:1;paint-order:stroke fill markers"
         d="m 73.592915,138.45524 15.632779,-0.9142 -1.188455,2.51405 10.878952,-0.13713 -5.439476,-11.19892 -14.215774,-1.14275 z m -2.422623,2.21693 13.621549,-0.63994 -1.325589,2.23979 13.804387,1.09704 -3.291115,7.72497 h -15.40423 z"
         id="path14-5" /></clipPath><clipPath
       clipPathUnits="userSpaceOnUse"
       id="clipPath13-6"><path
         style="fill:none;stroke:#040404;stroke-width:1;stroke-dasharray:none;stroke-opacity:1;paint-order:stroke fill markers"
         d="m 73.592915,138.45524 15.632779,-0.9142 -1.188455,2.51405 10.878952,-0.13713 -5.439476,-11.19892 -14.215774,-1.14275 z m -2.422623,2.21693 13.621549,-0.63994 -1.325589,2.23979 13.804387,1.09704 -3.291115,7.72497 h -15.40423 z"
         id="path13-4" /></clipPath><clipPath
       clipPathUnits="userSpaceOnUse"
       id="clipPath12-8"><path
         style="fill:none;stroke:#040404;stroke-width:1;stroke-dasharray:none;stroke-opacity:1;paint-order:stroke fill markers"
         d="m 73.592915,138.45524 15.632779,-0.9142 -1.188455,2.51405 10.878952,-0.13713 -5.439476,-11.19892 -14.215774,-1.14275 z m -2.422623,2.21693 13.621549,-0.63994 -1.325589,2.23979 13.804387,1.09704 -3.291115,7.72497 h -15.40423 z"
         id="path12-0" /></clipPath><clipPath
       clipPathUnits="userSpaceOnUse"
       id="clipPath11-1"><path
         style="fill:none;stroke:#040404;stroke-width:1;stroke-dasharray:none;stroke-opacity:1;paint-order:stroke fill markers"
         d="m 73.592915,138.45524 15.632779,-0.9142 -1.188455,2.51405 10.878952,-0.13713 -5.439476,-11.19892 -14.215774,-1.14275 z m -2.422623,2.21693 13.621549,-0.63994 -1.325589,2.23979 13.804387,1.09704 -3.291115,7.72497 h -15.40423 z"
         id="path11-0" /></clipPath><linearGradient
       xlink:href="#linearGradient1"
       id="linearGradient2-5"
       x1="147.44316"
       y1="491.29205"
       x2="362.34576"
       y2="36.928886"
       gradientUnits="userSpaceOnUse"
       gradientTransform="matrix(0.03683464,0,0,0.03683464,76.389414,130.82746)" /><clipPath
       clipPathUnits="userSpaceOnUse"
       id="clipPath10-6"><path
         style="fill:none;stroke:#040404;stroke-width:1;stroke-dasharray:none;stroke-opacity:1;paint-order:stroke fill markers"
         d="m 73.592915,138.45524 15.632779,-0.9142 -1.188455,2.51405 10.878952,-0.13713 -5.439476,-11.19892 -14.215774,-1.14275 z m -2.422623,2.21693 13.621549,-0.63994 -1.325589,2.23979 13.804387,1.09704 -3.291115,7.72497 h -15.40423 z"
         id="path10-7" /></clipPath><rect
       x="539.96759"
       y="502.93011"
       width="207.60487"
       height="293.37589"
       id="rect3-9-9" /><filter
       style="color-interpolation-filters:sRGB"
       id="filter70-5"
       x="-0.22601279"
       y="-0.13434728"
       width="1.4520256"
       height="1.2686946"><feFlood
         result="flood"
         in="SourceGraphic"
         flood-opacity="1.000000"
         flood-color="rgb(249,237,183)"
         id="feFlood69-9" /><feGaussianBlur
         result="blur"
         in="SourceGraphic"
         stdDeviation="3.000000"
         id="feGaussianBlur69-1" /><feOffset
         result="offset"
         in="blur"
         dx="1.000000"
         dy="1.000000"
         id="feOffset69-0" /><feComposite
         result="comp1"
         operator="in"
         in="flood"
         in2="offset"
         id="feComposite69-8" /><feComposite
         result="fbSourceGraphic"
         operator="over"
         in="SourceGraphic"
         in2="comp1"
         id="feComposite70-9" /><feColorMatrix
         result="fbSourceGraphicAlpha"
         in="fbSourceGraphic"
         values="0 0 0 -1 0 0 0 0 -1 0 0 0 0 -1 0 0 0 0 1 0"
         id="feColorMatrix70-9" /><feFlood
         id="feFlood70-7"
         result="flood"
         in="fbSourceGraphic"
         flood-opacity="1.000000"
         flood-color="rgb(249,237,183)" /><feGaussianBlur
         id="feGaussianBlur70-9"
         result="blur"
         in="fbSourceGraphic"
         stdDeviation="3.000000" /><feOffset
         id="feOffset70-6"
         result="offset"
         in="blur"
         dx="1.000000"
         dy="1.000000" /><feComposite
         id="feComposite71-9"
         result="comp1"
         operator="in"
         in="flood"
         in2="offset" /><feComposite
         id="feComposite72-0"
         result="fbSourceGraphic"
         operator="over"
         in="fbSourceGraphic"
         in2="comp1" /><feColorMatrix
         result="fbSourceGraphicAlpha"
         in="fbSourceGraphic"
         values="0 0 0 -1 0 0 0 0 -1 0 0 0 0 -1 0 0 0 0 1 0"
         id="feColorMatrix82-5" /><feFlood
         id="feFlood82-7"
         result="flood"
         in="fbSourceGraphic"
         flood-opacity="1.000000"
         flood-color="rgb(85,71,7)" /><feGaussianBlur
         id="feGaussianBlur82-2"
         result="blur"
         in="fbSourceGraphic"
         stdDeviation="1.000000" /><feOffset
         id="feOffset82-2"
         result="offset"
         in="blur"
         dx="-1.000000"
         dy="-1.000000" /><feComposite
         id="feComposite82-0"
         result="comp1"
         operator="in"
         in="flood"
         in2="offset" /><feComposite
         id="feComposite83-1"
         result="fbSourceGraphic"
         operator="over"
         in="fbSourceGraphic"
         in2="comp1" /><feColorMatrix
         result="fbSourceGraphicAlpha"
         in="fbSourceGraphic"
         values="0 0 0 -1 0 0 0 0 -1 0 0 0 0 -1 0 0 0 0 1 0"
         id="feColorMatrix83-5" /><feFlood
         id="feFlood83-0"
         result="flood"
         in="fbSourceGraphic"
         flood-opacity="1.000000"
         flood-color="rgb(85,71,7)" /><feGaussianBlur
         id="feGaussianBlur83-5"
         result="blur"
         in="fbSourceGraphic"
         stdDeviation="1.000000" /><feOffset
         id="feOffset83-6"
         result="offset"
         in="blur"
         dx="-1.000000"
         dy="-1.000000" /><feComposite
         id="feComposite84-4"
         result="comp1"
         operator="in"
         in="flood"
         in2="offset" /><feComposite
         id="feComposite85-5"
         result="comp2"
         operator="over"
         in="fbSourceGraphic"
         in2="comp1" /></filter><filter
       style="color-interpolation-filters:sRGB"
       id="filter88"
       x="-0.027509674"
       y="-0.033824515"
       width="1.0550193"
       height="1.067649"><feFlood
         result="flood"
         in="SourceGraphic"
         flood-opacity="1.000000"
         flood-color="rgb(85,71,7)"
         id="feFlood87" /><feGaussianBlur
         result="blur"
         in="SourceGraphic"
         stdDeviation="1.000000"
         id="feGaussianBlur87" /><feOffset
         result="offset"
         in="blur"
         dx="0.000000"
         dy="0.000000"
         id="feOffset87" /><feComposite
         result="comp1"
         operator="in"
         in="offset"
         in2="flood"
         id="feComposite87" /><feComposite
         result="comp2"
         operator="over"
         in="SourceGraphic"
         in2="comp1"
         id="feComposite88" /></filter><rect
       x="539.96759"
       y="502.93011"
       width="207.60487"
       height="293.37589"
       id="rect3" /><rect
       x="539.96759"
       y="502.93011"
       width="207.60487"
       height="293.37589"
       id="rect46" /><rect
       x="539.96759"
       y="502.93011"
       width="280.48453"
       height="280.88223"
       id="rect49" /><filter
       style="color-interpolation-filters:sRGB"
       id="filter88-9"
       x="-0.027509674"
       y="-0.033824515"
       width="1.0550193"
       height="1.067649"><feFlood
         result="flood"
         in="SourceGraphic"
         flood-opacity="1.000000"
         flood-color="rgb(85,71,7)"
         id="feFlood87-0" /><feGaussianBlur
         result="blur"
         in="SourceGraphic"
         stdDeviation="1.000000"
         id="feGaussianBlur87-1" /><feOffset
         result="offset"
         in="blur"
         dx="0.000000"
         dy="0.000000"
         id="feOffset87-5" /><feComposite
         result="comp1"
         operator="in"
         in="offset"
         in2="flood"
         id="feComposite87-8" /><feComposite
         result="comp2"
         operator="over"
         in="SourceGraphic"
         in2="comp1"
         id="feComposite88-2" /></filter><rect
       x="539.96759"
       y="502.93011"
       width="207.60487"
       height="293.37589"
       id="rect46-5" /><rect
       x="539.96759"
       y="502.93011"
       width="207.60487"
       height="293.37589"
       id="rect52" /><rect
       x="539.96759"
       y="502.93011"
       width="207.60487"
       height="293.37589"
       id="rect55" /><rect
       x="539.96759"
       y="502.93011"
       width="280.48453"
       height="280.88223"
       id="rect58" /><rect
       x="539.96759"
       y="502.93011"
       width="207.60487"
       height="293.37589"
       id="rect61" /></defs><g
     id="layer1"
     transform="translate(-56.940193,-129.51097)"><rect
       style="fill:#ff0000;fill-opacity:1;stroke:#040404;stroke-width:1;stroke-linecap:round;stroke-linejoin:round;stroke-dasharray:none;stroke-opacity:1;paint-order:stroke fill markers"
       id="rect14-3"
       width="23.427282"
       height="5.4107022"
       x="57.440193"
       y="130.01097" /><path
       fill="#ecca43"
       fill-rule="nonzero"
       d="m 85.819082,130.82746 c 2.603657,0 4.961221,1.05564 6.667624,2.76201 1.7064,1.7064 2.762046,4.064 2.762046,6.66766 0,2.60362 -1.055646,4.96122 -2.762046,6.66762 -1.706403,1.70626 -4.063967,2.76187 -6.667624,2.76187 -2.603657,0 -4.961221,-1.05561 -6.667623,-2.76187 -1.706401,-1.7064 -2.762046,-4.064 -2.762046,-6.66762 0,-2.60366 1.055645,-4.96126 2.762046,-6.66766 1.706255,-1.70637 4.063819,-2.76201 6.667623,-2.76201 z"
       id="path1-7-0"
       style="stroke-width:0.0368345"
       clip-path="url(#clipPath14-2)"
       transform="matrix(0.20835542,0,0,0.20835542,51.281356,103.36691)" /><ellipse
       fill="#f7e259"
       cx="85.819084"
       cy="140.25705"
       rx="9.2452021"
       ry="9.2451639"
       id="ellipse1-6"
       style="stroke-width:0.0368345"
       clip-path="url(#clipPath13-6)"
       transform="matrix(0.20835542,0,0,0.20835542,51.281356,103.36691)" /><path
       fill="#f8d548"
       d="m 94.944976,138.7724 a 9.3077832,9.3077832 0 0 1 0.119196,1.48473 c 0,5.1058 -4.139146,9.24506 -9.24509,9.24506 -5.105944,0 -9.245238,-4.13926 -9.245238,-9.24506 0,-0.80509 0.103174,-1.58595 0.296556,-2.33056 l 9.077346,6.75827 z"
       id="path2-11-4"
       style="stroke-width:0.0368345"
       clip-path="url(#clipPath12-8)"
       transform="matrix(0.20835542,0,0,0.20835542,51.281356,103.36691)" /><path
       fill="#d7925b"
       fill-rule="nonzero"
       d="m 85.819071,131.86098 c 2.318212,0 4.417445,0.93987 5.936887,2.45927 1.519402,1.51928 2.459274,3.61851 2.459274,5.93672 0,2.31834 -0.939872,4.41762 -2.459274,5.93685 -1.519442,1.5194 -3.618675,2.45931 -5.936887,2.45931 -2.318213,0 -4.417444,-0.93991 -5.936718,-2.45931 -1.519402,-1.5194 -2.459272,-3.61863 -2.459272,-5.93685 0,-2.31821 0.93987,-4.41744 2.459272,-5.93672 1.519274,-1.5194 3.618505,-2.45927 5.936718,-2.45927 z"
       id="path3-7"
       style="fill:#8c5122;fill-opacity:1;stroke-width:0.0426033"
       clip-path="url(#clipPath11-1)"
       transform="matrix(0.20835542,0,0,0.20835542,51.281356,103.36691)" /><circle
       fill="#eda140"
       cx="85.819115"
       cy="140.257"
       r="8.1827602"
       id="circle3-1"
       style="fill:url(#linearGradient2-5);fill-opacity:1;stroke-width:0.0426033"
       clip-path="url(#clipPath10-6)"
       transform="matrix(0.20835542,0,0,0.20835542,51.281356,103.36691)" /><text
       xml:space="preserve"
       transform="matrix(0.01356033,0,0,0.01356033,60.425727,124.44403)"
       id="text3-5-1"
       style="font-style:normal;font-variant:normal;font-weight:bold;font-stretch:normal;font-size:200px;font-family:Cinzel;-inkscape-font-specification:'Cinzel, Bold';font-variant-ligatures:normal;font-variant-caps:normal;font-variant-numeric:normal;font-variant-east-asian:normal;text-align:center;white-space:pre;shape-inside:url(#rect3-9-9);display:inline;fill:#ffffcc;fill-opacity:1;stroke:none;stroke-width:3.77953;stroke-linejoin:round;stroke-dasharray:none;stroke-opacity:1;filter:url(#filter70-5)"><tspan
         x="588.36964"
         y="672.73681"
         id="tspan1">5</tspan></text></g></svg>
