<?xml version="1.0" encoding="UTF-8" standalone="no"?>
<!-- Created with Inkscape (http://www.inkscape.org/) -->

<svg
   width="24.427282mm"
   height="6.4107022mm"
   viewBox="0 0 24.427282 6.4107022"
   version="1.1"
   id="svg1"
   xml:space="preserve"
   xmlns:xlink="http://www.w3.org/1999/xlink"
   xmlns="http://www.w3.org/2000/svg"
   xmlns:svg="http://www.w3.org/2000/svg"><g
     id="layer1"
     transform="translate(-56.940193,-129.51097)"><rect
       style="fill:#ff0000;fill-opacity:1;stroke:#040404;stroke-width:1;stroke-linecap:round;stroke-linejoin:round;stroke-dasharray:none;stroke-opacity:1;paint-order:stroke fill markers"
       id="rect14-3"
       width="23.427282"
       height="5.4107022"
       x="57.440193"
       y="130.01097" /><path
       fill="#ecca43"
       fill-rule="nonzero"
       d="m 85.819082,130.82746 c 2.603657,0 4.961221,1.05564 6.667624,2.76201 1.7064,1.7064 2.762046,4.064 2.762046,6.66766 0,2.60362 -1.055646,4.96122 -2.762046,6.66762 -1.706403,1.70626 -4.063967,2.76187 -6.667624,2.76187 -2.603657,0 -4.961221,-1.05561 -6.667623,-2.76187 -1.706401,-1.7064 -2.762046,-4.064 -2.762046,-6.66762 0,-2.60366 1.055645,-4.96126 2.762046,-6.66766 1.706255,-1.70637 4.063819,-2.76201 6.667623,-2.76201 z"
       id="path1-7-0"
       style="stroke-width:0.0368345"
       clip-path="url(#clipPath14-2)"
       transform="matrix(0.20835542,0,0,0.20835542,51.281356,103.36691)" /><ellipse
       fill="#f7e259"
       cx="85.819084"
       cy="140.25705"
       rx="9.2452021"
       ry="9.2451639"
       id="ellipse1-6"
       style="stroke-width:0.0368345"
       clip-path="url(#clipPath13-6)"
       transform="matrix(0.20835542,0,0,0.20835542,51.281356,103.36691)" /><path
       fill="#f8d548"
       d="m 94.944976,138.7724 a 9.3077832,9.3077832 0 0 1 0.119196,1.48473 c 0,5.1058 -4.139146,9.24506 -9.24509,9.24506 -5.105944,0 -9.245238,-4.13926 -9.245238,-9.24506 0,-0.80509 0.103174,-1.58595 0.296556,-2.33056 l 9.077346,6.75827 z"
       id="path2-11-4"
       style="stroke-width:0.0368345"
       clip-path="url(#clipPath12-8)"
       transform="matrix(0.20835542,0,0,0.20835542,51.281356,103.36691)" /><path
       fill="#d7925b"
       fill-rule="nonzero"
       d="m 85.819071,131.86098 c 2.318212,0 4.417445,0.93987 5.936887,2.45927 1.519402,1.51928 2.459274,3.61851 2.459274,5.93672 0,2.31834 -0.939872,4.41762 -2.459274,5.93685 -1.519442,1.5194 -3.618675,2.45931 -5.936887,2.45931 -2.318213,0 -4.417444,-0.93991 -5.936718,-2.45931 -1.519402,-1.5194 -2.459272,-3.61863 -2.459272,-5.93685 0,-2.31821 0.93987,-4.41744 2.459272,-5.93672 1.519274,-1.5194 3.618505,-2.45927 5.936718,-2.45927 z"
       id="path3-7"
       style="fill:#8c5122;fill-opacity:1;stroke-width:0.0426033"
       clip-path="url(#clipPath11-1)"
       transform="matrix(0.20835542,0,0,0.20835542,51.281356,103.36691)" /><circle
       fill="#eda140"
       cx="85.819115"
       cy="140.257"
       r="8.1827602"
       id="circle3-1"
       style="fill:url(#linearGradient2-5);fill-opacity:1;stroke-width:0.0426033"
       clip-path="url(#clipPath10-6)"
       transform="matrix(0.20835542,0,0,0.20835542,51.281356,103.36691)" /><text
       xml:space="preserve"
       transform="matrix(0.01356033,0,0,0.01356033,60.425727,124.44403)"
       id="text3-5-1"
       style="font-style:normal;font-variant:normal;font-weight:bold;font-stretch:normal;font-size:200px;font-family:Cinzel;-inkscape-font-specification:'Cinzel, Bold';font-variant-ligatures:normal;font-variant-caps:normal;font-variant-numeric:normal;font-variant-east-asian:normal;text-align:center;white-space:pre;shape-inside:url(#rect3-9-9);display:inline;fill:#ffffcc;fill-opacity:1;stroke:none;stroke-width:3.77953;stroke-linejoin:round;stroke-dasharray:none;stroke-opacity:1;filter:url(#filter70-5)"><tspan
         x="582.16961"
         y="672.73681"
         id="tspan1">2</tspan></text></g></svg>
