<?xml version="1.0" encoding="UTF-8" standalone="no"?>
<svg
   viewBox="0 0 478.57999 427"
   version="1.1"
   id="svg2"
   width="478.57999"
   height="427"
   xmlns:xlink="http://www.w3.org/1999/xlink"
   xmlns="http://www.w3.org/2000/svg"
   xmlns:svg="http://www.w3.org/2000/svg">
  <defs
     id="defs2">
    <linearGradient
       id="linearGradient4">
      <stop
         style="stop-color:#ad7a27;stop-opacity:1;"
         offset="0"
         id="stop1" />
      <stop
         style="stop-color:#f0e5b9;stop-opacity:1;"
         offset="1"
         id="stop4" />
    </linearGradient>
    <linearGradient
       xlink:href="#linearGradient2"
       id="linearGradient3"
       x1="180.3654"
       y1="491.33411"
       x2="342.78079"
       y2="14.6231"
       gradientUnits="userSpaceOnUse"
       gradientTransform="translate(-563.74,180.00202)" />
    <linearGradient
       id="linearGradient2">
      <stop
         style="stop-color:#664817;stop-opacity:1;"
         offset="0"
         id="stop2" />
      <stop
         style="stop-color:#e9d898;stop-opacity:1;"
         offset="1"
         id="stop3" />
    </linearGradient>
    <linearGradient
       xlink:href="#linearGradient2"
       id="linearGradient5"
       gradientUnits="userSpaceOnUse"
       gradientTransform="translate(-563.74,180.00202)"
       x1="694.53491"
       y1="298.24936"
       x2="963.25537"
       y2="-130.73283" />
    <linearGradient
       xlink:href="#linearGradient4"
       id="linearGradient6"
       gradientUnits="userSpaceOnUse"
       gradientTransform="translate(-563.74,180.00202)"
       x1="698.8739"
       y1="317.77478"
       x2="954.57739"
       y2="-130.73283" />
  </defs>
  <g
     class=""
     style="font-variation-settings:normal;opacity:1;vector-effect:none;fill:url(#linearGradient5);fill-opacity:1;stroke:#040404;stroke-width:40;stroke-linecap:butt;stroke-linejoin:round;stroke-miterlimit:4;stroke-dasharray:none;stroke-dashoffset:0;stroke-opacity:1;-inkscape-stroke:none;paint-order:stroke fill markers;stop-color:#000000;stop-opacity:1"
     id="g2"
     transform="translate(-15.42,-55)">
    <path
       d="m 375.4,395.8 c -7,8.2 -18.6,15.2 -32.7,20.2 -24.3,9 -55.5,13 -86.7,13 -31.2,0 -62.4,-4 -86.7,-13 -14.1,-5 -25.7,-12 -32.7,-20.2 L 110.8,417 c 10.2,12 26.6,23 47.1,30 27.5,10 62.8,15 98.1,15 35.3,0 70.6,-5 98.1,-15 20.6,-7 36.9,-18 47.1,-30 z M 144.7,379 h 222.6 c -22.7,43 -199.9,43 -222.6,0 z M 62.17,257.7 c -15.35,-3.8 -26.75,-17.6 -26.75,-34.1 0,-19.4 15.72,-35.1 35.08,-35.1 19.36,0 35.1,15.7 35.1,35.1 0,16.5 -11.42,30.3 -26.77,34.1 v 83 H 334 v 16.6 H 62.17 Z m 373.53,6.1 C 423.2,260.2 414,248.7 414,235 c 0,-16.6 13.4,-30 30,-30 16.6,0 30,13.4 30,30 0,13.7 -9.2,25.2 -21.7,28.8 v 61.5 h -248 v -16.6 h 231.4 z m -48,-96.8 c -9.2,-3.4 -15.7,-12.2 -15.7,-22.5 0,-13.2 10.8,-24 24,-24 13.2,0 24,10.8 24,24 0,10.3 -6.5,19.1 -15.7,22.5 v 43.4 c -4.4,7.2 -7,15.6 -7,24.6 0,9 2.6,17.4 7,24.6 v 32.7 h -190 V 275.7 H 387.7 Z M 256,75 c 50.8,0 92,41.2 92,92 0,50.8 -41.2,92 -92,92 -50.8,0 -92,-41.2 -92,-92 0,-50.8 41.2,-92 92,-92 z"
       fill="#fff"
       fill-opacity="1"
       id="path2"
       style="font-variation-settings:normal;vector-effect:none;fill:url(#linearGradient6);fill-opacity:1;stroke:#040404;stroke-width:40;stroke-linecap:butt;stroke-linejoin:round;stroke-miterlimit:4;stroke-dasharray:none;stroke-dashoffset:0;stroke-opacity:1;-inkscape-stroke:none;paint-order:stroke fill markers;stop-color:#000000;stop-opacity:1" />
  </g>
</svg>
