<?xml version="1.0" encoding="UTF-8" standalone="no"?>
<svg
   viewBox="0 0 286.90201 464"
   version="1.1"
   id="svg2"
   width="286.90201"
   height="464"
   xmlns="http://www.w3.org/2000/svg"
   xmlns:svg="http://www.w3.org/2000/svg">
  <defs
     id="defs2" />
  <g
     class=""
     id="g2"
     transform="translate(-112.549,-24)">
    <path
       d="m 240,24 c -16,0 -48,16 -64,32 0,13 0,26 8.582,39 H 327.418 C 336,82 336,69 336,56 320,40 288,24 272,24 Z m -44.072,89 c 10.008,26.313 10.699,59.404 2.084,78 h 115.976 c -8.615,-18.596 -7.924,-51.687 2.084,-78 z m -16.471,96 c -36.902,28.393 -62.07,65.607 -66.684,94 h 286.454 c -4.614,-28.393 -29.782,-65.607 -66.684,-94 z m -66.908,112 c 5.395,44.88 49.453,88 79.451,103 8.465,8.465 12.43,16.904 14.307,23 h 99.386 c 1.878,-6.096 5.842,-14.535 14.307,-23 29.998,-15 74.056,-58.12 79.451,-103 z m 84.105,144 c -11.436,6.993 -20.654,7 -20.654,7 -16,0 -16,16 0,16 h 160 c 16,0 16,-16 0,-16 0,0 -9.218,-0.007 -20.654,-7 z"
       fill="#ffffff"
       fill-opacity="1"
       id="path2" />
  </g>
</svg>
