<?xml version="1.0" encoding="UTF-8" standalone="no"?>
<!-- Created with Inkscape (http://www.inkscape.org/) -->

<svg
   version="1.1"
   id="svg1"
   width="311.74911"
   height="311.74911"
   viewBox="0 0 311.74911 311.74911"
   xmlns:xlink="http://www.w3.org/1999/xlink"
   xmlns="http://www.w3.org/2000/svg"
   xmlns:svg="http://www.w3.org/2000/svg">
  <defs
     id="defs1">
    <linearGradient
       id="linearGradient12">
      <stop
         style="stop-color:#bcb77b;stop-opacity:1;"
         offset="0"
         id="stop12" />
      <stop
         style="stop-color:#e9e8d4;stop-opacity:1;"
         offset="0.74117637"
         id="stop14" />
      <stop
         style="stop-color:#a49e53;stop-opacity:1;"
         offset="1"
         id="stop13" />
    </linearGradient>
    <linearGradient
       id="linearGradient7">
      <stop
         style="stop-color:#f1e1a6;stop-opacity:1;"
         offset="0"
         id="stop7" />
      <stop
         style="stop-color:#b7971e;stop-opacity:0.99585062;"
         offset="1"
         id="stop8" />
    </linearGradient>
    <radialGradient
       xlink:href="#linearGradient7"
       id="radialGradient8"
       cx="108.48183"
       cy="126.56213"
       fx="52.605186"
       fy="75.377106"
       r="151.87456"
       gradientUnits="userSpaceOnUse" />
    <linearGradient
       xlink:href="#linearGradient12"
       id="linearGradient13"
       x1="88.170464"
       y1="231.71786"
       x2="170.35199"
       y2="21.885994"
       gradientUnits="userSpaceOnUse" />
  </defs>
  <g
     id="g1"
     transform="translate(47.392731,29.312424)">
    <circle
       style="fill:url(#radialGradient8);stroke:#ffffff;stroke-width:8;stroke-linejoin:bevel;stroke-dasharray:none;stroke-opacity:1"
       id="path7"
       cx="108.48183"
       cy="126.56213"
       r="151.87456" />
    <path
       style="fill:#000000;fill-opacity:1;stroke:none;stroke-width:7.27461;stroke-linecap:square;stroke-linejoin:miter;stroke-dasharray:none;stroke-opacity:1;paint-order:stroke fill markers"
       d="m 112.28706,15.377378 c 0,0 24.14847,12.056704 37.70062,17.477562 13.55214,5.420857 37.40391,13.552145 49.1491,17.527441 11.74519,3.975296 19.3344,11.925888 21.50274,18.069527 2.16834,6.143638 2.16834,15.539795 1.44557,22.406209 0.90347,0.903476 -3.61391,7.769897 -3.61391,7.769897 l -12.28727,-3.252509 11.56448,13.913525 -15.35909,-1.26486 6.86642,9.57686 c 0,0 -12.64867,15.53978 -18.79231,20.59925 -6.14363,5.05948 -22.94829,12.82936 -30.71819,18.43092 -7.7699,5.60156 -19.69578,22.04482 -24.21317,31.80236 0.1807,-0.18069 16.08188,5.78226 25.11664,11.02242 9.03476,5.24016 15.3591,13.55214 15.3591,13.55214 l -13.55214,1.08417 14.45562,6.86643 c 0,0 2.34903,3.25251 -0.36139,11.5645 -2.71043,8.31197 -9.03476,11.38379 -13.19076,13.01005 -4.15599,1.62625 -6.32433,3.07182 -12.46797,0.90348 C 144.74751,244.2684 33.61992,199.27528 24.946547,195.29998 16.273175,191.32469 9.0453649,186.26522 7.5998023,176.50768 6.1542407,166.75013 3.8052024,152.8366 15.189003,134.94777 26.572805,117.05893 36.691741,107.84348 36.691741,107.84348 l 14.817011,3.43321 -4.878773,-12.467978 c 0,0 15.359098,-11.022408 21.32204,-15.539793 5.962949,-4.517381 14.997708,-12.829363 14.997708,-12.829363 0,0 -13.465905,-5.289802 -22.586907,-10.841717 C 52.050838,54.538371 47.533457,42.070399 47.352761,35.384674 47.172066,28.698949 48.436932,16.953757 58.013782,9.7259466 67.590635,2.4981358 79.877912,-0.93507378 87.105715,0.87187847 94.333528,2.6788307 105.86958,9.0552751 112.28706,15.377378 Z"
       id="path12" />
    <path
       fill="#000000"
       d="M 93.032634,9.334817 C 92.611917,9.1621542 92.188571,8.9979582 91.76267,8.8420161 90.788864,8.4855822 89.801382,8.173677 88.800805,7.909186 80.797301,5.7915453 71.959154,6.9272505 63.890361,12.3841 c -15.08497,10.20336 -14.48406,37.15981 5.959666,45.660046 0.201316,0.0837 0.399258,0.160687 0.597982,0.238981 l -0.109937,0.264416 22.747594,9.458151 c -9.036952,10.33659 -21.779608,20.281278 -35.53879,29.905507 -1.342983,0.939377 -2.671863,1.91898 -3.987512,2.926109 l 7.51957,18.86768 -22.603357,-5.24715 C 12.75837,141.63481 -0.2567289,178.56091 28.174288,190.38216 l 3.01e-4,-7.3e-4 3.486437,1.47867 c 9.039326,3.50733 18.584652,6.94849 25.406942,6.00147 1.951559,-0.27137 7.116798,-2.58238 8.67941,-3.33483 l -15.619585,-6.1511 c -7.661445,-3.10844 -12.433326,-6.4484 -11.946382,-14.60792 0.660598,-11.07756 7.206642,-15.6004 14.723697,-16.64446 2.48095,0.18134 6.652568,-0.31787 8.846762,0.59445 l 2.231724,0.75098 66.256146,28.02966 c 6.72013,-16.76633 21.48015,-33.28438 39.4147,-41.63113 13.08503,-6.0905 25.25341,-16.20613 34.0794,-27.6119 l -11.59017,-15.80212 15.45305,3.38294 -12.25918,-16.46574 -0.002,-6.98e-4 9.1e-4,-4.2e-4 4.3e-4,0.001 20.96042,4.81646 c 4.14629,-15.515387 -0.19512,-30.08635 -18.42249,-37.665051 -17.8131,-3.65057 -62.99272,-21.100888 -89.2634,-35.016794 -4.53563,-4.8651 -9.79858,-8.79783 -15.579101,-11.1700173 z m -2.746491,7.097113 c 4.927409,2.067699 9.699733,5.708766 13.831927,10.43387 l 0.0234,-0.02112 c 1.01342,2.507241 1.6877,4.991081 2.04674,7.452221 L 78.418577,22.750662 80.081943,29.95317 c 1.668322,7.226597 2.442068,15.107657 1.358497,19.07731 -0.541977,1.984748 -1.160545,2.674676 -2.061205,3.035424 -0.90117,0.360976 -2.944306,0.482815 -6.610808,-1.04167 -15.244066,-6.338281 -14.34286,-25.765879 -4.618912,-32.342877 6.41654,-4.339458 12.587152,-5.042465 18.706697,-3.423133 1.147141,0.302959 2.293128,0.696628 3.429977,1.173719 z m -1.42254,18.894099 17.382297,7.227331 c -0.85146,6.577135 -3.79124,12.991694 -8.248401,19.261677 L 85.709706,56.70593 c 1.498669,-1.591373 2.503129,-3.617303 3.063674,-5.673185 1.286868,-4.712864 0.97687,-10.194974 0.0902,-15.706716 z M 75.679684,172.63175 c 1.169926,4.11683 1.451314,5.14904 0.769538,9.09633 -1.18747,6.87884 -1.905334,11.1201 -5.60368,14.86687 -3.445063,3.49041 -8.8981,5.46899 -13.516365,6.28441 l 90.531693,38.12502 c 5.41622,2.2809 10.23402,1.75389 14.32998,-0.34917 4.09558,-2.10322 7.41017,-5.95581 9.07293,-10.47933 0.62868,-1.70907 1.02458,-3.50037 1.15422,-5.32617 l -24.97614,-13.99922 18.98691,-1.14852 c -2.58738,-2.59207 -6.1363,-4.99056 -10.91944,-6.97933 L 71.704697,167.02945 Z M 61.381949,163.8095 c -0.43233,-0.18075 -0.873617,-0.34207 -1.322287,-0.48243 -1.02672,-0.32029 -2.095132,-0.52972 -3.19317,-0.60962 -6.459115,-0.4742 -12.880492,4.13328 -13.2661,10.59971 -0.271134,4.54358 2.998483,9.04836 7.458745,9.24123 l 0.673055,0.0287 16.283316,6.77039 c 1.34853,-2.24102 2.451088,-5.0962 3.111731,-8.92276 1.161118,-6.72326 -3.267671,-13.90602 -9.745963,-16.62471 z"
       id="path1"
       style="fill:url(#linearGradient13);stroke-width:0.406762" />
  </g>
</svg>
