<?xml version="1.0" encoding="UTF-8" standalone="no"?>
<svg
   viewBox="0 0 436.51999 480.00201"
   version="1.1"
   id="svg2"
   width="436.51999"
   height="480.00201"
   xmlns:xlink="http://www.w3.org/1999/xlink"
   xmlns="http://www.w3.org/2000/svg"
   xmlns:svg="http://www.w3.org/2000/svg">
  <defs
     id="defs2">
    <linearGradient
       id="linearGradient5">
      <stop
         style="stop-color:#2f25a6;stop-opacity:1;"
         offset="0"
         id="stop1" />
      <stop
         style="stop-color:#e9d898;stop-opacity:1;"
         offset="1"
         id="stop4" />
    </linearGradient>
    <linearGradient
       xlink:href="#linearGradient5"
       id="linearGradient3"
       x1="180.3654"
       y1="491.33411"
       x2="342.78079"
       y2="14.6231"
       gradientUnits="userSpaceOnUse" />
    <linearGradient
       id="linearGradient2">
      <stop
         style="stop-color:#a27325;stop-opacity:1;"
         offset="0"
         id="stop2" />
      <stop
         style="stop-color:#eddfac;stop-opacity:1;"
         offset="1"
         id="stop3" />
    </linearGradient>
    <linearGradient
       xlink:href="#linearGradient2"
       id="linearGradient4"
       gradientUnits="userSpaceOnUse"
       x1="180.3654"
       y1="491.33411"
       x2="342.78079"
       y2="14.6231" />
  </defs>
  <g
     class=""
     style="font-variation-settings:normal;opacity:1;vector-effect:none;fill:url(#linearGradient3);fill-opacity:1;stroke:#040404;stroke-width:40;stroke-linecap:butt;stroke-linejoin:round;stroke-miterlimit:4;stroke-dasharray:none;stroke-dashoffset:0;stroke-opacity:1;-inkscape-stroke:none;paint-order:stroke fill markers;stop-color:#000000;stop-opacity:1"
     id="g2"
     transform="translate(-37.74,-15.997983)">
    <path
       d="M 454.26,312.874 C 454.26,402.782 365.33,476 256,476 146.67,476 57.74,402.83 57.74,312.874 A 136.787,136.787 0 0 1 68.9,258.918 c 7.295,20.99 25.277,40.055 52.422,55.05 34.442,19.043 80.042,29.533 128.384,29.533 48.343,0 93.943,-10.49 128.385,-29.53 34.442,-19.043 54.29,-44.805 55.963,-72.71 a 139.07,139.07 0 0 1 20.206,71.614 z M 416.842,64.578 c -12.99,-11.33 -27.49,-20.506 -39.813,-25.174 -11.215,-4.265 -19.826,-4.53 -23.606,-0.75 l -0.554,0.508 -5.21,4.426 a 8.253,8.253 0 0 0 -1.026,11.527 26.57,26.57 0 0 1 -0.495,34.487 L 177.18,283.135 a 58.106,58.106 0 0 0 -13.693,28.92 c 26.027,8.53 55.674,13.015 86.254,13.015 9.637,0 19.33,-0.46 28.887,-1.36 L 389.203,134.153 a 26.66,26.66 0 0 1 37.312,-9.083 l 0.68,0.427 a 8.242,8.242 0 0 0 11.043,-2.087 l 7.988,-10.916 c 4.876,-6.478 -4.957,-26.638 -29.382,-47.916 z m -148.164,85.76 a 309.78,309.78 0 0 0 -18.893,-0.59 c -45.277,0 -87.706,9.672 -119.462,27.227 -30.027,16.598 -46.568,38.038 -46.568,60.434 0,22.395 16.54,43.8 46.568,60.434 4.968,2.743 10.224,5.28 15.687,7.63 a 76.4,76.4 0 0 1 17.29,-34.476 z m 100.57,147.54 c 30.027,-16.598 46.568,-38.038 46.568,-60.434 0,-19.17 -12.16,-37.67 -34.58,-53.023 l -79.454,136.13 c 25.21,-4.425 48.262,-12.125 67.408,-22.706 z"
       fill="#fff"
       fill-opacity="1"
       id="path2"
       style="font-variation-settings:normal;vector-effect:none;fill:url(#linearGradient4);fill-opacity:1;stroke:#040404;stroke-width:40;stroke-linecap:butt;stroke-linejoin:round;stroke-miterlimit:4;stroke-dasharray:none;stroke-dashoffset:0;stroke-opacity:1;-inkscape-stroke:none;paint-order:stroke fill markers;stop-color:#000000;stop-opacity:1" />
  </g>
</svg>
