<?xml version="1.0" encoding="UTF-8" standalone="no"?>
<!-- Created with Inkscape (http://www.inkscape.org/) -->

<svg
   width="193.80508mm"
   height="193.80508mm"
   viewBox="0 0 193.80508 193.80508"
   version="1.1"
   id="svg1"
   xmlns:xlink="http://www.w3.org/1999/xlink"
   xmlns="http://www.w3.org/2000/svg"
   xmlns:svg="http://www.w3.org/2000/svg">
  <g
     id="layer1"
     transform="translate(-12.122139,-60.809219)">
    <circle
       style="fill:#028000;fill-opacity:1;stroke:none;stroke-width:7.9375;stroke-linejoin:round"
       id="path1"
       cx="109.02468"
       cy="157.71176"
       r="96.902542" />
    <circle
       style="display:inline;fill:none;fill-opacity:1;stroke:#91d190;stroke-width:6.70609;stroke-linejoin:round;stroke-opacity:1"
       id="circle88"
       cx="109.02468"
       cy="157.71176"
       r="81.869209" />
    <path
       style="fill:#028000;fill-opacity:1;stroke:none;stroke-width:1;stroke-linejoin:round;stroke-dasharray:none;stroke-opacity:1"
       d="m 65.845159,97.938979 81.811721,-2.840153 19.39665,32.839494 8.34473,61.71128 -14.67341,22.64079 -1.02794,12.3786 4.60776,6.63154 -62.49528,20.02716 -50.835975,-22.15295 11.912514,-15.23236 -2.288266,-22.5542 -7.884368,-74.52742 z"
       id="path89" />
    <circle
       style="display:inline;fill:none;fill-opacity:1;stroke:none;stroke-width:1;stroke-linejoin:round;stroke-dasharray:none;stroke-opacity:1"
       id="circle1"
       cx="-157.71176"
       cy="-109.02468"
       r="87.360924"
       transform="matrix(0,-1,-1,0,0,0)" />
    <path
       d="m 68.429657,228.54155 q -1.573643,0.8102 -3.158819,-0.21418 -0.785181,-0.50741 -1.22047,-1.52375 l 0.07659,-0.11852 q 1.481473,0.95737 2.872796,-0.28568 0.309082,-0.28329 0.443113,-0.4907 0.660581,-1.02222 0.487625,-1.82703 -0.172957,-0.80482 -0.987767,-1.33137 l -0.666663,-0.43081 -4.76767,7.37774 q -0.291541,0.48364 -0.04039,0.93996 0.110761,0.21859 0.332982,0.36219 l 0.177777,0.11489 -0.09574,0.14814 -4.088867,-2.64232 0.09574,-0.14815 0.177776,0.11489 q 0.325924,0.21062 0.69175,0.132 0.38064,-0.069 0.59126,-0.39497 l 4.547476,-7.03699 q 0.220194,-0.34074 0.126762,-0.71614 -0.07862,-0.36583 -0.419355,-0.58602 l -0.177777,-0.11489 0.09574,-0.14814 4.385161,2.83379 q 1.703694,1.10097 2.107747,2.32815 0.453738,1.28028 -0.3313,2.49509 -0.497829,0.77036 -1.255475,1.16282 z m 8.827145,10.57448 0.175585,0.0826 -0.07506,0.15962 -4.38962,-2.06409 0.07506,-0.15963 0.159622,0.0751 q 0.367132,0.17264 0.735116,0.0533 0.367983,-0.11934 0.540617,-0.48647 l 1.621255,-3.44785 -4.198073,-1.97402 -1.621256,3.44784 q -0.156671,0.37464 -0.01386,0.73417 0.142809,0.35952 0.493978,0.52465 l 0.175585,0.0826 -0.07506,0.15962 -4.405583,-2.07161 0.07506,-0.15962 0.175584,0.0826 q 0.367132,0.17263 0.735116,0.0533 0.375489,-0.1353 0.540616,-0.48647 l 3.557755,-7.56611 q 0.165128,-0.35117 0.02232,-0.7107 -0.135303,-0.37549 -0.502435,-0.54812 l -0.175584,-0.0826 0.07506,-0.15962 4.405582,2.07161 -0.07506,0.15962 -0.175585,-0.0826 q -0.351169,-0.16512 -0.719153,-0.0458 -0.367983,0.11934 -0.549073,0.463 l -1.643773,3.49574 4.198073,1.97402 1.636267,-3.47977 q 0.232681,-0.49483 -0.08571,-0.93692 -0.154969,-0.20931 -0.394403,-0.3219 l -0.159622,-0.0751 0.07506,-0.15963 4.38962,2.0641 -0.07506,0.15962 -0.175585,-0.0826 q -0.351169,-0.16513 -0.719153,-0.0458 -0.367983,0.11934 -0.556579,0.47897 l -3.56526,7.58207 q -0.216718,0.50234 0.09322,0.92096 0.154969,0.20931 0.394402,0.3219 z m 1.237735,0.2968 0.20028,0.0685 q 0.40056,0.13698 0.769902,-0.0163 0.375048,-0.17002 0.500611,-0.5372 l 2.705311,-7.91106 q 0.125563,-0.36718 -0.07256,-0.71456 -0.192412,-0.36406 -0.592972,-0.50104 l -0.20028,-0.0685 0.05707,-0.1669 4.739962,1.6209 -0.05707,0.1669 -0.20028,-0.0685 q -0.38387,-0.13127 -0.753212,0.0221 -0.369341,0.15332 -0.511594,0.51479 l -2.711018,7.92776 q -0.11458,0.38958 0.08354,0.73695 0.198119,0.34738 0.581989,0.47865 l 0.20028,0.0685 -0.05707,0.1669 -4.739962,-1.62091 z m 5.714689,2.17265 0.04163,-0.17141 0.205688,0.0499 q 0.394237,0.0957 0.713786,-0.0989 0.336689,-0.19051 0.428265,-0.56761 l 1.977208,-8.14183 q 0.09158,-0.3771 -0.120237,-0.70081 -0.207651,-0.34085 -0.584747,-0.43243 l -0.205688,-0.0499 0.04162,-0.17141 4.765119,1.15719 -0.04163,0.17141 -0.205688,-0.0499 q -0.394237,-0.0957 -0.730926,0.0948 -0.33669,0.19051 -0.432428,0.58474 l -2.068784,8.51894 2.056885,0.4995 q 1.066887,0.24094 1.957952,-0.21428 0.895227,-0.47235 1.521094,-1.55467 l 0.188548,0.0458 -1.434396,2.99155 z m 10.136312,-2.88547 q 0.261543,-2.5265 2.098444,-3.82593 1.856261,-1.31516 4.663488,-1.02456 2.82476,0.29242 4.37226,1.95994 1.54931,1.64997 1.28777,4.17647 -0.26154,2.5265 -2.11781,3.84165 -1.85444,1.29762 -4.661665,1.00702 -2.807222,-0.29061 -4.356534,-1.94058 -1.547496,-1.66751 -1.285953,-4.19401 z m 2.684407,0.27789 q -0.22885,2.21068 0.584183,3.6071 0.832395,1.38069 2.429002,1.54597 1.61415,0.1671 2.69418,-1.01562 1.09939,-1.19844 1.32824,-3.40913 0.22885,-2.21069 -0.60355,-3.59138 -0.81303,-1.39642 -2.42718,-1.56351 -1.596613,-0.16528 -2.695999,1.03316 -1.080026,1.18272 -1.308876,3.39341 z m 10.634745,4.72053 q -0.0322,-1.14608 0.45633,-1.97152 l 0.14106,-0.004 q -0.0142,0.12392 -0.0112,0.22971 0.0302,1.07555 0.81118,1.86531 0.7986,0.78927 2.17389,0.75063 0.98739,-0.0277 1.50347,-0.50104 0.5337,-0.47379 0.51785,-1.03801 -0.0159,-0.56423 -0.34264,-0.89031 -0.30966,-0.34422 -1.02781,-0.78283 l -2.54833,-1.51652 q -1.61462,-0.9428 -1.65822,-2.49441 -0.004,-0.15869 0.008,-0.3355 0.0706,-1.25484 0.91476,-1.9844 0.84365,-0.74719 2.00736,-0.77989 1.18134,-0.0332 2.49056,0.0888 l 0.95213,-0.0267 -0.18145,2.33435 -0.15869,0.004 q -0.0233,-0.8287 -0.61852,-1.28841 -0.5776,-0.46021 -1.52972,-0.43346 -0.93449,0.0263 -1.46969,0.44716 -0.53569,0.40326 -0.51736,1.05564 0.0149,0.52896 0.55472,0.902 0.21605,0.15274 0.62852,0.38819 l 2.85203,1.64915 q 1.47059,0.84097 1.51419,2.39258 0.0461,1.63977 -1.09285,2.55407 -1.12131,0.9138 -2.95503,0.96533 -1.12844,0.0317 -1.99984,-0.20849 -0.8714,-0.2402 -1.28833,-0.63434 -0.11471,-0.31441 -0.1266,-0.73757 z m 8.20539,-3.97403 q -0.39921,-2.50844 1.04021,-4.23783 1.45407,-1.74958 4.24122,-2.19315 2.80456,-0.44634 4.72992,0.76543 1.92258,1.19434 2.32179,3.70277 0.39921,2.50844 -1.05486,4.25802 -1.45684,1.73216 -4.24399,2.17573 -2.78714,0.44357 -4.70973,-0.75078 -1.92535,-1.21176 -2.32456,-3.72019 z m 2.66521,-0.42416 q 0.34931,2.19488 1.49512,3.33423 1.16046,1.11916 2.74565,0.86689 1.60261,-0.25505 2.3409,-1.67639 0.75293,-1.44154 0.40363,-3.63642 -0.34931,-2.19488 -1.50977,-3.31404 -1.14581,-1.13935 -2.74842,-0.8843 -1.58519,0.25228 -2.33813,1.69381 -0.73828,1.42134 -0.38898,3.61622 z m 18.28355,-4.82716 q -0.39921,1.72436 -2.20552,2.27149 -0.89472,0.27101 -1.95153,-0.0539 l -0.0409,-0.13505 q 1.68814,-0.51135 1.63926,-2.37643 -0.0163,-0.41895 -0.0879,-0.6553 -0.35283,-1.16482 -1.07866,-1.55316 -0.72583,-0.38835 -1.65431,-0.10711 l -0.75967,0.2301 2.54648,8.40697 q 0.18051,0.5351 0.69102,0.63849 0.23837,0.0568 0.49159,-0.0199 l 0.20258,-0.0614 0.0511,0.16881 -4.65929,1.4113 -0.0511,-0.16881 0.20257,-0.0614 q 0.3714,-0.1125 0.54792,-0.44242 0.1934,-0.33504 0.0809,-0.70643 l -2.42887,-8.0187 q -0.1176,-0.38827 -0.46441,-0.55968 -0.32992,-0.17652 -0.7182,-0.0589 l -0.20257,0.0614 -0.0511,-0.16881 4.99692,-1.51357 q 1.94136,-0.58805 3.13882,-0.10296 1.2701,0.48151 1.6894,1.86579 0.2659,0.87783 0.0755,1.70958 z m 13.7726,0.0985 0.17645,-0.0807 0.0734,0.16041 -4.41135,2.01724 -0.0734,-0.16041 0.16041,-0.0734 q 0.36895,-0.16872 0.51558,-0.5267 0.14663,-0.35799 -0.0221,-0.72694 l -1.58445,-3.46491 -4.21886,1.92921 1.58445,3.46492 q 0.18476,0.36161 0.55145,0.48486 0.36669,0.12325 0.7196,-0.0381 l 0.17645,-0.0807 0.0734,0.16041 -4.42739,2.02457 -0.0734,-0.16041 0.17646,-0.0807 q 0.36895,-0.16871 0.51557,-0.5267 0.1393,-0.37403 -0.0221,-0.72693 l -3.47699,-7.60357 q -0.16138,-0.35291 -0.52807,-0.47616 -0.37403,-0.13929 -0.74298,0.0294 l -0.17645,0.0807 -0.0734,-0.16041 4.42739,-2.02458 0.0734,0.16042 -0.17645,0.0807 q -0.35291,0.16138 -0.49954,0.51936 -0.14663,0.35799 -0.001,0.71823 l 1.60646,3.51304 4.21885,-1.92922 -1.59912,-3.49699 q -0.2274,-0.49728 -0.77054,-0.53985 -0.25989,-0.0169 -0.50051,0.0931 l -0.16041,0.0734 -0.0734,-0.16041 4.41135,-2.01724 0.0734,0.16041 -0.17645,0.0807 q -0.35291,0.16138 -0.49954,0.51937 -0.14663,0.35798 0.006,0.73427 l 3.48433,7.6196 q 0.24344,0.48995 0.7632,0.5238 0.25989,0.0169 0.50051,-0.0931 z m 5.11619,-15.36776 -0.19321,0.1235 q -0.38642,0.24698 -0.61013,0.68304 -0.20884,0.42657 -0.23228,0.88117 l -0.0426,5.7632 1.93791,3.03192 q 0.22385,0.31748 0.61364,0.40328 0.38029,0.071 0.73699,-0.15704 l 0.16348,-0.1045 0.095,0.14863 -4.16147,2.65986 -0.095,-0.14862 0.17835,-0.114 q 0.34183,-0.21848 0.43714,-0.59341 0.0858,-0.38979 -0.10832,-0.72626 l -1.93791,-3.03193 -5.2335,-2.39087 q -0.41707,-0.19398 -0.89726,-0.1592 -0.47482,0.0104 -0.87611,0.2669 l -0.17835,0.114 -0.095,-0.14863 4.51816,-2.88785 0.095,0.14862 -0.16348,0.1045 q -0.28239,0.18049 -0.29266,0.45919 -0.005,0.25435 0.0806,0.38811 0.076,0.1189 0.20194,0.18494 l 4.16158,2.1549 -0.17847,-4.70077 q -0.0219,-0.13254 -0.0979,-0.25144 -0.0855,-0.13376 -0.33325,-0.22661 -0.2424,-0.11722 -0.52478,0.0633 l -0.14863,0.095 -0.095,-0.14862 3.18055,-2.0329 z"
       id="text89"
       style="-inkscape-font-specification:'Cinzel, Bold';fill:#ffffff;stroke-linejoin:round"
       aria-label="philosophy" />
    <g
       id="g4"
       style="filter:url(#filter88-0)"
       transform="matrix(1.5042143,0,0,1.5042143,-120.802,-77.386894)">
      <g
         id="g2"
         transform="matrix(0.1317788,0,0,0.1317788,-139.33829,91.401215)">
        <g
           id="group-R5">
          <path
             id="path7"
             d="m 18800.8,15570 c -145,-101.1 -168.4,-211.2 -172.1,-241.7 -23,-13.6 -44.4,-25.6 -64,-36.2 30.7,51.2 59.8,103.3 86.5,156.5 44.4,90.8 82.9,184.2 115.2,279.7 3.6,10.5 7.1,21 10.5,31.5 25.1,78.6 61.5,153.2 110.1,219.8 3.3,4.4 6.5,8.9 9.6,13.3 l -0.1,-0.1 c 406.1,222.3 219.8,675.5 219.8,675.5 6.1,-100.1 -90.5,-176.4 -189.8,-358.9 -84.4,-155.3 -56.1,-264.2 -45.8,-293.2 -20.8,-32 -40.2,-60.1 -57,-83.4 6.7,29.2 12.8,58.5 18.5,87.8 19.3,98.8 30,199.1 34.9,299.4 l 1.6,37.7 c 0.7,12.5 1.1,25 0.9,37.6 l -0.1,75.3 c -0.6,25.1 -2.2,50.1 -3.2,75.2 -0.7,12.5 -0.9,25.1 -2,37.6 l -3.5,37.4 v 0 c -2.2,24.8 -0.9,49.9 4.1,74.3 l 29,143.2 v -0.1 c 296,355.9 -43.7,709 -43.7,709 42.4,-90.8 -19.3,-197.3 -44.7,-403.5 -21.5,-175.5 44.8,-266.3 65.1,-289.5 -8.4,-41.6 -17,-77.9 -24.7,-107.5 l -3.3,23.3 c -2.9,24.9 -8.7,49.3 -13.2,74 l -7.1,36.8 c -2.3,12.3 -4.7,24.6 -7.9,36.7 -12.1,48.6 -23.1,97.4 -38.6,145.1 l -10.9,35.9 -5.4,17.9 -6.3,17.7 -25.2,70.6 c -16,41 -32.7,81.8 -50.6,122 -32,72.2 -52,149.4 -56.4,228.2 -1.1,18.3 -2.5,36.3 -4.3,53.9 l 0.1,-0.1 c 159.3,434.6 -279.3,653.2 -279.3,653.2 70.5,-71.3 48.1,-192.4 93.4,-395.1 38.7,-172.5 131.7,-235.8 158.5,-250.9 8.5,-59 13.1,-108.4 15.5,-143 -0.7,1.2 -1.3,2.5 -2,3.7 l -17.7,33 c -5.9,10.9 -12.8,21.4 -19.1,32.1 l -38.7,64 -41.7,62 c -7.1,10.3 -13.8,20.8 -21.1,30.9 l -22.3,29.9 c -23,32 -47.3,62.9 -72.5,93.2 l 0.1,-0.1 c -35.1,44.5 -83.1,108.6 -124.8,155 -19.6,21.7 -36.8,45.6 -49.3,72.1 -182.5,384.6 -628.1,276.5 -628.1,276.5 100.1,-6.4 163.8,-111.8 332.5,-232.9 133.4,-95.8 239.1,-90.1 277.6,-83.5 4.6,-1.5 10.2,-3.3 14.9,-4.8 l 51,-53.4 c 66.6,-73.3 130.4,-149.2 186.2,-231 l 21.4,-30.2 c 6.9,-10.3 13.4,-20.8 20.1,-31.2 l 39.7,-62.6 16.8,-29.4 c -44.3,37.6 -88.9,70.4 -133.1,98.8 l 0.2,-0.1 c -240.3,395.7 -684.7,189.3 -684.7,189.3 99.7,10.6 180.3,-82.5 367,-173.5 159,-77.4 266.5,-44.2 295,-32.6 63.6,-37.3 116.5,-73.8 147.1,-95.8 19.3,-13.9 35.6,-31.8 46.4,-53 0,-0.1 0.1,-0.2 0.1,-0.3 l 16.7,-33.1 c 46.1,-87.3 83.2,-179 116.6,-271.7 l 23.1,-70.1 5.8,-17.6 4.8,-17.8 9.8,-35.6 c 14.1,-47.2 23.7,-95.6 34.3,-143.6 2.9,-11.9 4.9,-24.1 6.9,-36.2 l 0.1,-0.7 c -30,46.1 -61.5,88.2 -93.7,126.3 l 0.1,-0.1 c -114,448.7 -599.4,381.3 -599.4,381.3 98.5,-19 148.4,-131.6 300.3,-273.2 129.3,-120.6 241.8,-120.3 272.5,-117.5 34.8,-37.9 63.3,-71.8 84.4,-98 29.2,-36.4 48.5,-80.2 52.8,-126.6 0,-0.3 0,-0.5 0,-0.8 l 8.4,-73.2 2.1,-18.3 1.2,-18.4 2.4,-36.8 2.4,-36.7 c 0.9,-12.3 0.7,-24.5 1.1,-36.8 0.4,-24.6 1.3,-49.1 1.2,-73.6 l -1.8,-73.6 c -0.1,-12.2 -0.8,-24.5 -1.7,-36.7 l -2.6,-36.7 c -4,-52.9 -9.6,-105.8 -17.3,-158.3 -10.5,44.1 -22.7,86.1 -36.5,125.6 l 0.1,-0.1 c 53.6,459.8 -423.8,570.1 -423.8,570.1 85.2,-52.9 91.6,-175.9 182.9,-362.4 77.8,-158.8 183,-198.7 212.6,-207.1 11.4,-28.6 21.2,-55 29.4,-78.4 20.2,-57.5 24.5,-119.6 11.4,-179 -0.1,-0.3 -0.2,-0.7 -0.3,-0.9 -20.9,-95.6 -46.7,-190.1 -80.7,-281.7 -33.8,-91.7 -73.2,-181.1 -118.3,-267.6 -13.4,-25 -27.4,-49.7 -41.8,-74.3 8.3,51.9 13,101.8 14.8,149.7 v -0.2 c 218.4,408.2 -185.4,685.8 -185.4,685.8 59.9,-80.5 20.8,-197.2 37.4,-404.3 14.2,-176.2 97.5,-251.9 122,-270.5 0,-6.8 0,-13.4 -0.1,-19.9 -0.6,-112.1 -34.9,-221.8 -99.9,-313.1 -0.3,-0.5 -0.6,-0.9 -0.9,-1.4 -56.2,-79.6 -119.3,-153.9 -185.8,-224.7 -17,-17.3 -33,-35.6 -50.8,-52.1 l -52.6,-50.5 c -0.8,0.7 -0.6,0.5 -1.4,1.2 16,28.4 30.4,56.7 43.4,84.5 v -0.1 c 359.5,291.6 94.9,704 94.9,704 23.9,-97.4 -57.4,-189.8 -122.2,-387.2 -55.2,-167.9 -7.8,-269.9 7.5,-296.6 -10.6,-25.4 -20.8,-48.7 -30.4,-69.4 -23.3,-50.8 -57.6,-96 -101.7,-130.4 -0.2,-0.2 -0.5,-0.4 -0.7,-0.5 -75.8,-60.5 -154.8,-117 -238.3,-166 -48.6,-28.7 -98.2,-55.6 -148.7,-80.7 21.1,21.6 40.6,43.5 58.5,65.3 l -0.1,-0.1 c 344.4,158.9 217.6,539.8 217.6,539.8 -0.6,-82.1 -83.8,-139.1 -175.2,-282.7 -77.8,-122.1 -60.8,-212.7 -54,-237 -11.2,-14.9 -21.9,-28.7 -31.9,-41.2 -32.9,-41.2 -75.3,-74.1 -123.8,-94.6 -0.3,-0.1 -0.5,-0.3 -0.7,-0.3 -89.2,-37.4 -180.6,-68.9 -273.5,-94.7 l -1.1,-0.3 h -0.2 c -25.2,-7.2 -43.8,-29.6 -44.4,-55.8 -1,-44.8 40.4,-73.3 79.1,-61.5 97.6,29.8 193.3,65.6 286.2,107.3 92.8,42.2 182.2,91.4 268.3,145.4 51.9,32.4 102.1,67.5 150.7,104.5 66,50.3 145.3,80.2 228.1,87.3 h -0.2 c 432.2,-165.9 657.4,269.3 657.4,269.3 -72.4,-69.4 -193.1,-45.1 -396.5,-87.5 -173,-36 -237.8,-128 -253.2,-154.6 -41.6,-5.4 -78.4,-8.8 -108.7,-11.1 27.5,24.2 54.1,49.4 80.9,74.3 l 53.5,54.1 c 18.1,17.7 34.4,37.2 51.6,55.7 67.4,75.6 131.1,154.7 187.3,238.8 1.1,1.7 2.3,3.4 3.4,5.1 27.6,41.2 65.3,74.5 109.5,97 7.2,3.6 14.3,7.4 21.4,11.1 l -0.1,-0.1 c 462.6,17.3 498.5,506 498.5,506 -39.2,-92.2 -159.8,-117.3 -330.1,-236.2"
             style="fill:#ffffff;fill-opacity:1;fill-rule:nonzero;stroke:none"
             transform="matrix(0.13333333,0,0,-0.13333333,0,2666.6667)" />
          <path
             id="path8"
             d="m 14551.8,15570 c 145,-101.1 168.4,-211.2 172.1,-241.7 23,-13.6 44.4,-25.6 64,-36.2 -30.7,51.2 -59.7,103.3 -86.5,156.5 -44.4,90.8 -82.8,184.2 -115.2,279.7 -3.6,10.5 -7.1,21 -10.4,31.5 -25.2,78.6 -61.6,153.2 -110.2,219.8 -3.2,4.4 -6.4,8.9 -9.6,13.3 l 0.1,-0.1 c -406.1,222.3 -219.7,675.5 -219.7,675.5 -6.2,-100.1 90.4,-176.4 189.7,-358.9 84.4,-155.3 56.1,-264.2 45.8,-293.2 20.8,-32 40.2,-60.1 57,-83.4 -6.6,29.2 -12.8,58.5 -18.5,87.8 -19.3,98.8 -30,199.1 -34.9,299.4 l -1.6,37.7 c -0.7,12.5 -1.1,25 -0.9,37.6 l 0.1,75.3 c 0.6,25.1 2.2,50.1 3.2,75.2 0.7,12.5 0.9,25.1 2,37.6 l 3.5,37.4 v 0 c 2.3,24.8 0.9,49.9 -4.1,74.3 l -29,143.2 v -0.1 c -296,355.9 43.7,709 43.7,709 -42.4,-90.8 19.4,-197.3 44.7,-403.5 21.5,-175.5 -44.8,-266.3 -65.1,-289.5 8.4,-41.6 17.1,-77.9 24.7,-107.5 l 3.3,23.3 c 2.9,24.9 8.7,49.3 13.2,74 l 7.1,36.8 c 2.3,12.3 4.7,24.6 7.9,36.7 12.1,48.6 23.2,97.4 38.7,145.1 l 10.8,35.9 5.4,17.9 6.3,17.7 25.3,70.6 c 15.9,41 32.6,81.8 50.5,122 32.1,72.2 52,149.4 56.5,228.2 1,18.3 2.4,36.3 4.2,53.9 l -0.1,-0.1 c -159.3,434.6 279.3,653.2 279.3,653.2 -70.5,-71.3 -48.1,-192.4 -93.4,-395.1 -38.7,-172.5 -131.6,-235.8 -158.5,-250.9 -8.5,-59 -13.1,-108.4 -15.5,-143 0.7,1.2 1.3,2.5 2,3.7 l 17.8,33 c 5.8,10.9 12.7,21.4 19,32.1 l 38.7,64 41.8,62 c 7,10.3 13.8,20.8 21,30.9 l 22.3,29.9 c 23.1,32 47.3,62.9 72.5,93.2 l -0.1,-0.1 c 35.1,44.5 83.1,108.6 124.8,155 19.6,21.7 36.8,45.6 49.3,72.1 182.5,384.6 628.1,276.5 628.1,276.5 -100,-6.4 -163.8,-111.8 -332.5,-232.9 -133.4,-95.8 -239.1,-90.1 -277.6,-83.5 -4.6,-1.5 -10.2,-3.3 -14.8,-4.8 l -51.1,-53.4 c -66.5,-73.3 -130.4,-149.2 -186.1,-231 l -21.5,-30.2 c -6.9,-10.3 -13.4,-20.8 -20.1,-31.2 l -39.7,-62.6 -16.8,-29.4 c 44.3,37.6 88.9,70.4 133.1,98.8 l -0.2,-0.1 c 240.3,395.7 684.8,189.3 684.8,189.3 -99.8,10.6 -180.4,-82.5 -367.1,-173.5 -158.9,-77.4 -266.4,-44.2 -295,-32.6 -63.6,-37.3 -116.5,-73.8 -147.1,-95.8 -19.3,-13.9 -35.6,-31.8 -46.3,-53 -0.1,-0.1 -0.2,-0.2 -0.2,-0.3 l -16.7,-33.1 c -46.1,-87.3 -83.2,-179 -116.6,-271.7 l -23.1,-70.1 -5.8,-17.6 -4.8,-17.8 -9.8,-35.6 c -14,-47.2 -23.6,-95.6 -34.3,-143.6 -2.9,-11.9 -4.9,-24.1 -6.9,-36.2 l -0.1,-0.7 c 30,46.1 61.5,88.2 93.7,126.3 l -0.1,-0.1 c 114,448.7 599.4,381.3 599.4,381.3 -98.5,-19 -148.3,-131.6 -300.3,-273.2 -129.3,-120.6 -241.8,-120.3 -272.5,-117.5 -34.8,-37.9 -63.3,-71.8 -84.4,-98 -29.2,-36.4 -48.5,-80.2 -52.7,-126.6 -0.1,-0.3 -0.1,-0.5 -0.1,-0.8 l -8.4,-73.2 -2.1,-18.3 -1.2,-18.4 -2.4,-36.8 -2.4,-36.7 c -0.8,-12.3 -0.7,-24.5 -1.1,-36.8 -0.3,-24.6 -1.3,-49.1 -1.2,-73.6 l 1.8,-73.6 c 0.1,-12.2 0.8,-24.5 1.8,-36.7 l 2.5,-36.7 c 4,-52.9 9.6,-105.8 17.3,-158.3 10.5,44.1 22.7,86.1 36.5,125.6 l -0.1,-0.1 c -53.6,459.8 423.8,570.1 423.8,570.1 -85.2,-52.9 -91.5,-175.9 -182.9,-362.4 -77.8,-158.8 -183,-198.7 -212.6,-207.1 -11.4,-28.6 -21.2,-55 -29.4,-78.4 -20.2,-57.5 -24.5,-119.6 -11.3,-179 0,-0.3 0.1,-0.7 0.2,-0.9 21,-95.6 46.7,-190.1 80.7,-281.7 33.8,-91.7 73.3,-181.1 118.3,-267.6 13.5,-25 27.5,-49.7 41.8,-74.3 -8.3,51.9 -12.9,101.8 -14.8,149.7 v -0.2 c -218.4,408.2 185.4,685.8 185.4,685.8 -59.9,-80.5 -20.7,-197.2 -37.4,-404.3 -14.2,-176.2 -97.4,-251.9 -121.9,-270.5 -0.1,-6.8 -0.1,-13.4 0,-19.9 0.7,-112.1 35,-221.8 99.9,-313.1 0.3,-0.5 0.6,-0.9 1,-1.4 56.1,-79.6 119.2,-153.9 185.7,-224.7 17,-17.3 33,-35.6 50.9,-52.1 l 52.5,-50.5 c 0.8,0.7 0.6,0.5 1.4,1.2 -16,28.4 -30.4,56.7 -43.4,84.5 v -0.1 c -359.5,291.6 -94.8,704 -94.8,704 -24,-97.4 57.3,-189.8 122.1,-387.2 55.3,-167.9 7.9,-269.9 -7.5,-296.6 10.6,-25.4 20.9,-48.7 30.4,-69.4 23.3,-50.8 57.6,-96 101.7,-130.4 0.3,-0.2 0.5,-0.4 0.7,-0.5 75.8,-60.5 154.8,-117 238.4,-166 48.5,-28.7 98.1,-55.6 148.6,-80.7 -21,21.6 -40.6,43.5 -58.5,65.3 l 0.1,-0.1 c -344.4,158.9 -217.6,539.8 -217.6,539.8 0.6,-82.1 83.9,-139.1 175.2,-282.7 77.8,-122.1 60.8,-212.7 54,-237 11.2,-14.9 21.9,-28.7 31.9,-41.2 32.9,-41.2 75.3,-74.1 123.8,-94.6 0.3,-0.1 0.5,-0.3 0.8,-0.3 89.1,-37.4 180.5,-68.9 273.4,-94.7 l 1.1,-0.3 h 0.2 c 25.2,-7.2 43.8,-29.6 44.4,-55.8 1,-44.8 -40.4,-73.3 -79.1,-61.5 -97.6,29.8 -193.3,65.6 -286.2,107.3 -92.8,42.2 -182.2,91.4 -268.3,145.4 -51.9,32.4 -102.1,67.5 -150.7,104.5 -66,50.3 -145.3,80.2 -228.1,87.3 h 0.2 c -432.2,-165.9 -657.4,269.3 -657.4,269.3 72.4,-69.4 193.1,-45.1 396.5,-87.5 173.1,-36 237.8,-128 253.3,-154.6 41.6,-5.4 78.4,-8.8 108.6,-11.1 -27.4,24.2 -54.1,49.4 -80.9,74.3 l -53.4,54.1 c -18.2,17.7 -34.4,37.2 -51.7,55.7 -67.4,75.6 -131.1,154.7 -187.3,238.8 -1.1,1.7 -2.3,3.4 -3.4,5.1 -27.6,41.2 -65.3,74.5 -109.5,97 -7.2,3.6 -14.3,7.4 -21.4,11.1 l 0.1,-0.1 c -462.5,17.3 -498.5,506 -498.5,506 39.2,-92.2 159.8,-117.3 330.1,-236.2"
             style="fill:#ffffff;fill-opacity:1;fill-rule:nonzero;stroke:none"
             transform="matrix(0.13333333,0,0,-0.13333333,0,2666.6667)" />
        </g>
      </g>
      <text
         xml:space="preserve"
         transform="matrix(0.26458333,0,0,0.26458333,-15.73078,-3.6103428)"
         id="text3"
         style="font-style:normal;font-variant:normal;font-weight:bold;font-stretch:normal;font-size:200px;font-family:Cinzel;-inkscape-font-specification:'Cinzel, Bold';font-variant-ligatures:normal;font-variant-caps:normal;font-variant-numeric:normal;font-variant-east-asian:normal;text-align:center;white-space:pre;shape-inside:url(#rect3-90);display:inline;fill:#ffffff;fill-opacity:1;stroke:none;stroke-width:3.77953;stroke-linejoin:round;stroke-dasharray:none;stroke-opacity:1"><tspan
           x="589.36966"
           y="672.73681"
           id="tspan1">7</tspan></text>
    </g>
  </g>
</svg>
