<?xml version="1.0" encoding="UTF-8" standalone="no"?>
<svg
   viewBox="0 0 511.8735 516.59302"
   version="1.1"
   id="svg2"
   width="511.8735"
   height="516.59302"
   xmlns:xlink="http://www.w3.org/1999/xlink"
   xmlns="http://www.w3.org/2000/svg"
   xmlns:svg="http://www.w3.org/2000/svg">
  <defs
     id="defs2">
    <linearGradient
       id="linearGradient2">
      <stop
         style="stop-color:#b37e28;stop-opacity:1;"
         offset="0"
         id="stop2" />
      <stop
         style="stop-color:#eee1af;stop-opacity:1;"
         offset="1"
         id="stop3" />
    </linearGradient>
    <linearGradient
       xlink:href="#linearGradient2"
       id="linearGradient3"
       x1="180.3654"
       y1="491.33411"
       x2="342.78079"
       y2="14.6231"
       gradientUnits="userSpaceOnUse" />
  </defs>
  <g
     class=""
     style="stroke:#040404;stroke-width:40;stroke-linejoin:round;stroke-dasharray:none;stroke-opacity:1;paint-order:stroke fill markers"
     id="g2"
     transform="translate(-4.9702109,5.937)">
    <path
       d="m 496.938,14.063 c -95.14,3.496 -172.297,24.08 -231.282,55.812 l -29.47,49.28 -4.967,-28.093 c -10.535,7.402 -20.314,15.222 -29.314,23.407 l -14.687,45.06 -5.032,-25.155 c -40.65,45.507 -60.41,99.864 -58.938,155.906 47.273,-93.667 132.404,-172.727 211.97,-221.155 l 9.717,15.97 c -75.312,45.838 -156.387,121.202 -202.187,208.25 h 12.156 c 19.78,-12.02 39.16,-26.858 58.406,-43.44 l -30.28,1.595 54.218,-23.094 c 46.875,-43.637 93.465,-94.974 143.313,-138.28 l -24.47,-5.19 56.5,-21.03 c 26.853,-20.485 54.8,-37.844 84.344,-49.843 z M 59.53,312.03 v 30.408 H 194 V 312.03 Z M 79.906,361.125 47.25,389.813 24.97,474.78 39.5,490.656 H 216.72 L 231.28,474.781 209,389.814 178.094,361.126 H 79.906 Z"
       fill="#fff"
       fill-opacity="1"
       id="path2"
       style="fill:url(#linearGradient3);stroke:#040404;stroke-width:40;stroke-linejoin:round;stroke-dasharray:none;stroke-opacity:1;paint-order:stroke fill markers" />
  </g>
</svg>
