<?xml version="1.0" encoding="UTF-8" standalone="no"?>
<svg
   viewBox="0 0 477.91638 524.64184"
   version="1.1"
   id="svg2"
   width="477.91638"
   height="524.64185"
   xmlns="http://www.w3.org/2000/svg"
   xmlns:svg="http://www.w3.org/2000/svg">
  <defs
     id="defs2" />
  <g
     class=""
     style="fill:#db0606;fill-opacity:1;stroke:#ffffff;stroke-width:40;stroke-dasharray:none;stroke-opacity:1;paint-order:stroke fill markers"
     id="g2"
     transform="translate(-17.264219,2.98951)">
    <path
       d="m 66.54,18.002 c -0.327,-0.007 -0.655,-0.005 -0.98,0.006 -4.064,0.136 -8.105,1.634 -11.39,4.535 -7.508,6.632 -8.218,18.094 -1.586,25.602 4.394,4.974 10.906,6.945 16.986,5.792 l 57.838,65.475 -50.373,44.498 24.188,27.38 c 9.69,-21.368 22.255,-39.484 37.427,-54.65 l 6.91,36.188 c 25.092,-6.29 49.834,-10.563 74.366,-12.873 l -23.912,-27.07 -38.66,-12.483 c 17.117,-12.9 36.734,-22.97 58.62,-30.474 l -24.19,-27.385 -50.37,44.496 -57.92,-65.57 c 1.79,-5.835 0.617,-12.43 -3.72,-17.34 -3.498,-3.96 -8.34,-6.03 -13.235,-6.128 z m 384.397,0 c -4.895,0.1 -9.735,2.168 -13.232,6.127 -4.338,4.91 -5.514,11.506 -3.723,17.343 l -57.92,65.568 -50.37,-44.497 -24.188,27.385 c 21.884,7.504 41.5,17.573 58.62,30.472 l -38.66,12.485 -23.255,26.324 c 24.71,1.863 49.367,5.706 74.118,11.46 l 6.498,-34.03 c 15.173,15.166 27.74,33.282 37.43,54.65 l 24.185,-27.38 -50.372,-44.498 57.838,-65.475 c 6.08,1.153 12.593,-0.818 16.987,-5.792 6.63,-7.508 5.92,-18.97 -1.586,-25.602 -3.285,-2.9 -7.326,-4.4 -11.39,-4.535 -0.326,-0.01 -0.653,-0.013 -0.98,-0.006 z m -186.425,158.51 c -39.56,-0.098 -79.467,5.226 -120.633,16.095 -2.046,90.448 34.484,209.35 118.47,259.905 81.295,-49.13 122.402,-169.902 120.552,-259.914 -39.75,-10.496 -78.91,-15.988 -118.39,-16.086 z m -117.176,153.5 -86.866,98.338 -12.2,63.894 61.9,-19.994 68.49,-77.535 c -12.86,-20.108 -23.246,-42.03 -31.324,-64.703 z m 228.203,6.11 c -8.69,22.238 -19.577,43.634 -32.706,63.142 l 64.473,72.986 61.898,19.994 -12.2,-63.894 -81.466,-92.23 z"
       fill="#fff"
       fill-opacity="1"
       id="path2"
       style="fill:#db0606;fill-opacity:1;stroke:#ffffff;stroke-width:40;stroke-dasharray:none;stroke-opacity:1;paint-order:stroke fill markers" />
  </g>
</svg>
