<?xml version="1.0" encoding="UTF-8" standalone="no"?>
<svg
   viewBox="0 0 480 480"
   version="1.1"
   id="svg2"
   width="480"
   height="480"
   xmlns="http://www.w3.org/2000/svg"
   xmlns:svg="http://www.w3.org/2000/svg">
  <defs
     id="defs2" />
  <g
     class=""
     id="g2"
     transform="translate(-16,-16)">
    <path
       d="m 256,16 c -7.5,67.5 -37.5,150 -37.5,180 0,15 15,30 37.5,30 22.5,0 37.5,-15 37.5,-30 0,-30 -30,-112.5 -37.5,-180 z M 143.5,61.156 c 27.255,62.207 24.5,72.447 32,85.438 7.5,12.99 15.01,25.97 28,18.47 12.99,-7.5 5.5,-20.48 -2,-33.47 -7.5,-12.99 -17.755,-15.73 -58,-70.438 z m 225,0 c -40.245,54.707 -50.5,57.447 -58,70.438 -7.5,12.99 -14.99,25.97 -2,33.47 12.99,7.5 20.5,-5.48 28,-18.47 7.5,-12.99 4.745,-23.23 32,-85.438 z M 61.156,143.5 c 54.707,40.245 57.447,50.5 70.438,58 12.99,7.5 25.97,14.99 33.47,2 7.5,-12.99 -5.48,-20.5 -18.47,-28 -12.99,-7.5 -23.23,-4.745 -85.438,-32 z m 389.688,0 c -62.207,27.255 -72.447,24.5 -85.438,32 -12.99,7.5 -25.97,15.01 -18.47,28 7.502,12.99 20.48,5.5 33.47,-2 12.99,-7.5 15.73,-17.755 70.438,-58 z M 196,218.5 c -30,0 -112.5,30 -180,37.5 67.5,7.5 150,37.5 180,37.5 15,0 30,-15 30,-37.5 0,-22.5 -15,-37.5 -30,-37.5 z m 120,0 c -15,0 -30,15 -30,37.5 0,22.5 15,37.5 30,37.5 30,0 112.5,-30 180,-37.5 -67.5,-7.5 -150,-37.5 -180,-37.5 z M 256,286 c -22.5,0 -37.5,15 -37.5,30 0,30 30,112.5 37.5,180 7.5,-67.5 37.5,-150 37.5,-180 0,-15 -15,-30 -37.5,-30 z m -102.438,15.438 c -6.563,0.164 -14.255,4.61 -21.968,9.062 -12.99,7.5 -15.73,17.755 -70.438,58 62.207,-27.255 72.447,-24.5 85.438,-32 12.99,-7.5 25.97,-15.01 18.47,-28 -3.048,-5.277 -7.01,-7.175 -11.5,-7.063 z m 203.844,0 c -4.067,0.19 -7.656,2.19 -10.47,7.062 -7.498,12.99 5.48,20.5 18.47,28 12.99,7.5 23.23,4.745 85.438,32 -54.707,-40.245 -57.447,-50.5 -70.438,-58 -8.12,-4.688 -16.22,-9.378 -23,-9.063 z M 195.72,344.75 c -8.48,0.378 -14.36,10.508 -20.22,20.656 -7.5,12.99 -4.745,23.23 -32,85.438 40.245,-54.707 50.5,-57.447 58,-70.438 7.5,-12.99 14.99,-25.97 2,-33.47 -2.842,-1.64 -5.408,-2.292 -7.78,-2.186 z m 119.53,0 c -2.086,0.1 -4.314,0.78 -6.75,2.188 -12.99,7.5 -5.5,20.478 2,33.468 7.5,12.99 17.755,15.73 58,70.438 -27.255,-62.207 -24.5,-72.447 -32,-85.438 -6.094,-10.554 -12.21,-21.092 -21.25,-20.656 z"
       fill="#ffffff"
       fill-opacity="1"
       id="path2" />
  </g>
</svg>
