<?xml version="1.0" encoding="UTF-8" standalone="no"?>
<!-- Created with Inkscape (http://www.inkscape.org/) -->

<svg
   width="193.80508mm"
   height="193.80508mm"
   viewBox="0 0 193.80508 193.80508"
   version="1.1"
   id="svg1"
   xmlns:xlink="http://www.w3.org/1999/xlink"
   xmlns="http://www.w3.org/2000/svg"
   xmlns:svg="http://www.w3.org/2000/svg">
  <defs
     id="defs1">
    <rect
       x="539.96759"
       y="502.93011"
       width="207.60487"
       height="293.37589"
       id="rect3" />
    <rect
       x="174.46606"
       y="734.90173"
       width="463.94327"
       height="104.28977"
       id="rect2" />
    <rect
       x="235.87032"
       y="749.52179"
       width="386.94427"
       height="83.821686"
       id="rect1" />
    <linearGradient
       xlink:href="#linearGradient1"
       id="linearGradient2"
       x1="147.44316"
       y1="491.29205"
       x2="362.34576"
       y2="36.928886"
       gradientUnits="userSpaceOnUse"
       gradientTransform="matrix(0.1882479,0,0,0.1882479,60.728605,104.17234)" />
    <linearGradient
       id="linearGradient1">
      <stop
         style="stop-color:#9c732d;stop-opacity:1;"
         offset="0"
         id="stop1" />
      <stop
         style="stop-color:#d3aa65;stop-opacity:1;"
         offset="1"
         id="stop2" />
    </linearGradient>
    <rect
       x="539.96759"
       y="502.93011"
       width="207.60487"
       height="293.37589"
       id="rect3-9" />
    <filter
       style="color-interpolation-filters:sRGB"
       id="filter32"
       x="0"
       y="0"
       width="1"
       height="1">
      <feComposite
         id="feComposite54"
         result="comp2"
         operator="over"
         in="fbSourceGraphic"
         in2="comp1" />
    </filter>
    <filter
       style="color-interpolation-filters:sRGB"
       id="filter70"
       x="-0.19850187"
       y="-0.14133333"
       width="1.3970037"
       height="1.2826667">
      <feFlood
         result="flood"
         in="SourceGraphic"
         flood-opacity="1.000000"
         flood-color="rgb(249,237,183)"
         id="feFlood69" />
      <feGaussianBlur
         result="blur"
         in="SourceGraphic"
         stdDeviation="3.000000"
         id="feGaussianBlur69" />
      <feOffset
         result="offset"
         in="blur"
         dx="1.000000"
         dy="1.000000"
         id="feOffset69" />
      <feComposite
         result="comp1"
         operator="in"
         in="flood"
         in2="offset"
         id="feComposite69" />
      <feComposite
         result="fbSourceGraphic"
         operator="over"
         in="SourceGraphic"
         in2="comp1"
         id="feComposite70" />
      <feColorMatrix
         result="fbSourceGraphicAlpha"
         in="fbSourceGraphic"
         values="0 0 0 -1 0 0 0 0 -1 0 0 0 0 -1 0 0 0 0 1 0"
         id="feColorMatrix70" />
      <feFlood
         id="feFlood70"
         result="flood"
         in="fbSourceGraphic"
         flood-opacity="1.000000"
         flood-color="rgb(249,237,183)" />
      <feGaussianBlur
         id="feGaussianBlur70"
         result="blur"
         in="fbSourceGraphic"
         stdDeviation="3.000000" />
      <feOffset
         id="feOffset70"
         result="offset"
         in="blur"
         dx="1.000000"
         dy="1.000000" />
      <feComposite
         id="feComposite71"
         result="comp1"
         operator="in"
         in="flood"
         in2="offset" />
      <feComposite
         id="feComposite72"
         result="fbSourceGraphic"
         operator="over"
         in="fbSourceGraphic"
         in2="comp1" />
      <feColorMatrix
         result="fbSourceGraphicAlpha"
         in="fbSourceGraphic"
         values="0 0 0 -1 0 0 0 0 -1 0 0 0 0 -1 0 0 0 0 1 0"
         id="feColorMatrix82" />
      <feFlood
         id="feFlood82"
         result="flood"
         in="fbSourceGraphic"
         flood-opacity="1.000000"
         flood-color="rgb(85,71,7)" />
      <feGaussianBlur
         id="feGaussianBlur82"
         result="blur"
         in="fbSourceGraphic"
         stdDeviation="1.000000" />
      <feOffset
         id="feOffset82"
         result="offset"
         in="blur"
         dx="-1.000000"
         dy="-1.000000" />
      <feComposite
         id="feComposite82"
         result="comp1"
         operator="in"
         in="flood"
         in2="offset" />
      <feComposite
         id="feComposite83"
         result="fbSourceGraphic"
         operator="over"
         in="fbSourceGraphic"
         in2="comp1" />
      <feColorMatrix
         result="fbSourceGraphicAlpha"
         in="fbSourceGraphic"
         values="0 0 0 -1 0 0 0 0 -1 0 0 0 0 -1 0 0 0 0 1 0"
         id="feColorMatrix83" />
      <feFlood
         id="feFlood83"
         result="flood"
         in="fbSourceGraphic"
         flood-opacity="1.000000"
         flood-color="rgb(85,71,7)" />
      <feGaussianBlur
         id="feGaussianBlur83"
         result="blur"
         in="fbSourceGraphic"
         stdDeviation="1.000000" />
      <feOffset
         id="feOffset83"
         result="offset"
         in="blur"
         dx="-1.000000"
         dy="-1.000000" />
      <feComposite
         id="feComposite84"
         result="comp1"
         operator="in"
         in="flood"
         in2="offset" />
      <feComposite
         id="feComposite85"
         result="comp2"
         operator="over"
         in="fbSourceGraphic"
         in2="comp1" />
    </filter>
    <filter
       style="color-interpolation-filters:sRGB"
       id="filter88"
       x="-0.027509675"
       y="-0.033824515"
       width="1.0550193"
       height="1.067649">
      <feFlood
         result="flood"
         in="SourceGraphic"
         flood-opacity="1.000000"
         flood-color="rgb(85,71,7)"
         id="feFlood87" />
      <feGaussianBlur
         result="blur"
         in="SourceGraphic"
         stdDeviation="1.000000"
         id="feGaussianBlur87" />
      <feOffset
         result="offset"
         in="blur"
         dx="0.000000"
         dy="0.000000"
         id="feOffset87" />
      <feComposite
         result="comp1"
         operator="in"
         in="offset"
         in2="flood"
         id="feComposite87" />
      <feComposite
         result="comp2"
         operator="over"
         in="SourceGraphic"
         in2="comp1"
         id="feComposite88" />
    </filter>
    <radialGradient
       xlink:href="#linearGradient7"
       id="radialGradient8"
       cx="108.48183"
       cy="126.56213"
       fx="58.481831"
       fy="66.562134"
       r="151.87456"
       gradientUnits="userSpaceOnUse"
       gradientTransform="matrix(0.08817681,0,0,0.08817681,61.565416,99.082356)" />
    <linearGradient
       id="linearGradient7">
      <stop
         style="stop-color:#d8c8bf;stop-opacity:1;"
         offset="0"
         id="stop7" />
      <stop
         style="stop-color:#87644e;stop-opacity:0.99585062;"
         offset="1"
         id="stop8" />
    </linearGradient>
    <radialGradient
       xlink:href="#linearGradient7-0"
       id="radialGradient8-6"
       cx="108.48183"
       cy="126.56213"
       fx="52.605186"
       fy="75.377106"
       r="151.87456"
       gradientUnits="userSpaceOnUse" />
    <linearGradient
       id="linearGradient7-0">
      <stop
         style="stop-color:#b1a6f1;stop-opacity:1;"
         offset="0"
         id="stop7-3" />
      <stop
         style="stop-color:#441eb7;stop-opacity:0.99585062;"
         offset="1"
         id="stop8-3" />
    </linearGradient>
    <radialGradient
       xlink:href="#linearGradient2-5"
       id="radialGradient3"
       cx="81.689285"
       cy="163.6459"
       fx="81.689285"
       fy="163.6459"
       r="70.703392"
       gradientUnits="userSpaceOnUse"
       gradientTransform="matrix(1.1527565,0.00842552,-0.00827659,1.1323805,-18.962501,-44.720364)" />
    <linearGradient
       id="linearGradient2-5">
      <stop
         style="stop-color:#d1e8fc;stop-opacity:1;"
         offset="0"
         id="stop2-0" />
      <stop
         style="stop-color:#4993e0;stop-opacity:1;"
         offset="1"
         id="stop3" />
    </linearGradient>
    <linearGradient
       xlink:href="#linearGradient3"
       id="linearGradient5"
       x1="89.320221"
       y1="106.46516"
       x2="153.76755"
       y2="122.85452"
       gradientUnits="userSpaceOnUse"
       gradientTransform="matrix(1.2190932,0,0,1.2190932,-25.73593,-58.222275)" />
    <linearGradient
       id="linearGradient3">
      <stop
         style="stop-color:#277fb7;stop-opacity:1;"
         offset="0"
         id="stop4" />
      <stop
         style="stop-color:#b9daf0;stop-opacity:1;"
         offset="0.32376182"
         id="stop6" />
      <stop
         style="stop-color:#60acdd;stop-opacity:1;"
         offset="1"
         id="stop5" />
    </linearGradient>
    <radialGradient
       xlink:href="#linearGradient6"
       id="radialGradient10"
       cx="140.05202"
       cy="48.642284"
       fx="140.05202"
       fy="48.642284"
       r="29.925861"
       gradientTransform="matrix(1.215901,-1.1346678e-8,0,0.60475582,-33.899479,-25.028252)"
       gradientUnits="userSpaceOnUse" />
    <linearGradient
       id="linearGradient6">
      <stop
         style="stop-color:#2881bb;stop-opacity:1;"
         offset="0"
         id="stop9" />
      <stop
         style="stop-color:#7fbce3;stop-opacity:1;"
         offset="0.80988747"
         id="stop11" />
      <stop
         style="stop-color:#66afdd;stop-opacity:1;"
         offset="1"
         id="stop10" />
    </linearGradient>
    <radialGradient
       xlink:href="#linearGradient2-5"
       id="radialGradient12"
       gradientUnits="userSpaceOnUse"
       gradientTransform="matrix(1.1527565,0.00842552,-0.00827659,1.1323805,-18.962501,-44.720364)"
       cx="81.689285"
       cy="163.6459"
       fx="81.689285"
       fy="163.6459"
       r="70.703392" />
    <radialGradient
       xlink:href="#linearGradient6"
       id="radialGradient11"
       gradientUnits="userSpaceOnUse"
       gradientTransform="matrix(1.215901,-1.1346678e-8,0,0.60475582,-33.899479,-25.028252)"
       cx="140.05202"
       cy="48.642284"
       fx="140.05202"
       fy="48.642284"
       r="29.925861" />
    <rect
       x="539.96759"
       y="502.93011"
       width="207.60487"
       height="293.37589"
       id="rect3-9-6" />
    <filter
       style="color-interpolation-filters:sRGB"
       id="filter70-1"
       x="-0.19850187"
       y="-0.14133333"
       width="1.3970037"
       height="1.2826667">
      <feFlood
         result="flood"
         in="SourceGraphic"
         flood-opacity="1.000000"
         flood-color="rgb(249,237,183)"
         id="feFlood69-9" />
      <feGaussianBlur
         result="blur"
         in="SourceGraphic"
         stdDeviation="3.000000"
         id="feGaussianBlur69-6" />
      <feOffset
         result="offset"
         in="blur"
         dx="1.000000"
         dy="1.000000"
         id="feOffset69-7" />
      <feComposite
         result="comp1"
         operator="in"
         in="flood"
         in2="offset"
         id="feComposite69-8" />
      <feComposite
         result="fbSourceGraphic"
         operator="over"
         in="SourceGraphic"
         in2="comp1"
         id="feComposite70-9" />
      <feColorMatrix
         result="fbSourceGraphicAlpha"
         in="fbSourceGraphic"
         values="0 0 0 -1 0 0 0 0 -1 0 0 0 0 -1 0 0 0 0 1 0"
         id="feColorMatrix70-7" />
      <feFlood
         id="feFlood70-5"
         result="flood"
         in="fbSourceGraphic"
         flood-opacity="1.000000"
         flood-color="rgb(249,237,183)" />
      <feGaussianBlur
         id="feGaussianBlur70-5"
         result="blur"
         in="fbSourceGraphic"
         stdDeviation="3.000000" />
      <feOffset
         id="feOffset70-2"
         result="offset"
         in="blur"
         dx="1.000000"
         dy="1.000000" />
      <feComposite
         id="feComposite71-4"
         result="comp1"
         operator="in"
         in="flood"
         in2="offset" />
      <feComposite
         id="feComposite72-9"
         result="fbSourceGraphic"
         operator="over"
         in="fbSourceGraphic"
         in2="comp1" />
      <feColorMatrix
         result="fbSourceGraphicAlpha"
         in="fbSourceGraphic"
         values="0 0 0 -1 0 0 0 0 -1 0 0 0 0 -1 0 0 0 0 1 0"
         id="feColorMatrix82-4" />
      <feFlood
         id="feFlood82-4"
         result="flood"
         in="fbSourceGraphic"
         flood-opacity="1.000000"
         flood-color="rgb(85,71,7)" />
      <feGaussianBlur
         id="feGaussianBlur82-7"
         result="blur"
         in="fbSourceGraphic"
         stdDeviation="1.000000" />
      <feOffset
         id="feOffset82-9"
         result="offset"
         in="blur"
         dx="-1.000000"
         dy="-1.000000" />
      <feComposite
         id="feComposite82-5"
         result="comp1"
         operator="in"
         in="flood"
         in2="offset" />
      <feComposite
         id="feComposite83-5"
         result="fbSourceGraphic"
         operator="over"
         in="fbSourceGraphic"
         in2="comp1" />
      <feColorMatrix
         result="fbSourceGraphicAlpha"
         in="fbSourceGraphic"
         values="0 0 0 -1 0 0 0 0 -1 0 0 0 0 -1 0 0 0 0 1 0"
         id="feColorMatrix83-6" />
      <feFlood
         id="feFlood83-1"
         result="flood"
         in="fbSourceGraphic"
         flood-opacity="1.000000"
         flood-color="rgb(85,71,7)" />
      <feGaussianBlur
         id="feGaussianBlur83-5"
         result="blur"
         in="fbSourceGraphic"
         stdDeviation="1.000000" />
      <feOffset
         id="feOffset83-9"
         result="offset"
         in="blur"
         dx="-1.000000"
         dy="-1.000000" />
      <feComposite
         id="feComposite84-1"
         result="comp1"
         operator="in"
         in="flood"
         in2="offset" />
      <feComposite
         id="feComposite85-3"
         result="comp2"
         operator="over"
         in="fbSourceGraphic"
         in2="comp1" />
    </filter>
    <radialGradient
       xlink:href="#linearGradient7"
       id="radialGradient8-1"
       cx="108.48183"
       cy="126.56213"
       fx="58.481831"
       fy="66.562134"
       r="151.87456"
       gradientUnits="userSpaceOnUse"
       gradientTransform="matrix(0.07585412,0,0,0.07585412,138.25846,109.44616)" />
    <rect
       x="539.96759"
       y="502.93011"
       width="207.60487"
       height="293.37589"
       id="rect3-9-6-4" />
    <filter
       style="color-interpolation-filters:sRGB"
       id="filter70-1-1"
       x="-0.13589744"
       y="-0.15142857"
       width="1.2717949"
       height="1.3028571">
      <feFlood
         result="flood"
         in="SourceGraphic"
         flood-opacity="1.000000"
         flood-color="rgb(249,237,183)"
         id="feFlood69-9-8" />
      <feGaussianBlur
         result="blur"
         in="SourceGraphic"
         stdDeviation="3.000000"
         id="feGaussianBlur69-6-2" />
      <feOffset
         result="offset"
         in="blur"
         dx="1.000000"
         dy="1.000000"
         id="feOffset69-7-6" />
      <feComposite
         result="comp1"
         operator="in"
         in="flood"
         in2="offset"
         id="feComposite69-8-0" />
      <feComposite
         result="fbSourceGraphic"
         operator="over"
         in="SourceGraphic"
         in2="comp1"
         id="feComposite70-9-3" />
      <feColorMatrix
         result="fbSourceGraphicAlpha"
         in="fbSourceGraphic"
         values="0 0 0 -1 0 0 0 0 -1 0 0 0 0 -1 0 0 0 0 1 0"
         id="feColorMatrix70-7-9" />
      <feFlood
         id="feFlood70-5-4"
         result="flood"
         in="fbSourceGraphic"
         flood-opacity="1.000000"
         flood-color="rgb(249,237,183)" />
      <feGaussianBlur
         id="feGaussianBlur70-5-9"
         result="blur"
         in="fbSourceGraphic"
         stdDeviation="3.000000" />
      <feOffset
         id="feOffset70-2-6"
         result="offset"
         in="blur"
         dx="1.000000"
         dy="1.000000" />
      <feComposite
         id="feComposite71-4-5"
         result="comp1"
         operator="in"
         in="flood"
         in2="offset" />
      <feComposite
         id="feComposite72-9-1"
         result="fbSourceGraphic"
         operator="over"
         in="fbSourceGraphic"
         in2="comp1" />
      <feColorMatrix
         result="fbSourceGraphicAlpha"
         in="fbSourceGraphic"
         values="0 0 0 -1 0 0 0 0 -1 0 0 0 0 -1 0 0 0 0 1 0"
         id="feColorMatrix82-4-3" />
      <feFlood
         id="feFlood82-4-2"
         result="flood"
         in="fbSourceGraphic"
         flood-opacity="1.000000"
         flood-color="rgb(85,71,7)" />
      <feGaussianBlur
         id="feGaussianBlur82-7-6"
         result="blur"
         in="fbSourceGraphic"
         stdDeviation="1.000000" />
      <feOffset
         id="feOffset82-9-9"
         result="offset"
         in="blur"
         dx="-1.000000"
         dy="-1.000000" />
      <feComposite
         id="feComposite82-5-0"
         result="comp1"
         operator="in"
         in="flood"
         in2="offset" />
      <feComposite
         id="feComposite83-5-0"
         result="fbSourceGraphic"
         operator="over"
         in="fbSourceGraphic"
         in2="comp1" />
      <feColorMatrix
         result="fbSourceGraphicAlpha"
         in="fbSourceGraphic"
         values="0 0 0 -1 0 0 0 0 -1 0 0 0 0 -1 0 0 0 0 1 0"
         id="feColorMatrix83-6-3" />
      <feFlood
         id="feFlood83-1-9"
         result="flood"
         in="fbSourceGraphic"
         flood-opacity="1.000000"
         flood-color="rgb(85,71,7)" />
      <feGaussianBlur
         id="feGaussianBlur83-5-5"
         result="blur"
         in="fbSourceGraphic"
         stdDeviation="1.000000" />
      <feOffset
         id="feOffset83-9-3"
         result="offset"
         in="blur"
         dx="-1.000000"
         dy="-1.000000" />
      <feComposite
         id="feComposite84-1-1"
         result="comp1"
         operator="in"
         in="flood"
         in2="offset" />
      <feComposite
         id="feComposite85-3-1"
         result="comp2"
         operator="over"
         in="fbSourceGraphic"
         in2="comp1" />
    </filter>
    <linearGradient
       xlink:href="#linearGradient2-1"
       id="linearGradient4"
       gradientUnits="userSpaceOnUse"
       x1="180.3654"
       y1="491.33411"
       x2="342.78079"
       y2="14.6231" />
    <linearGradient
       id="linearGradient2-1">
      <stop
         style="stop-color:#664817;stop-opacity:1;"
         offset="0"
         id="stop2-7" />
      <stop
         style="stop-color:#e9d898;stop-opacity:1;"
         offset="1"
         id="stop3-9" />
    </linearGradient>
    <radialGradient
       xlink:href="#linearGradient7"
       id="radialGradient8-4"
       cx="108.48183"
       cy="126.56213"
       fx="58.481831"
       fy="66.562134"
       r="151.87456"
       gradientUnits="userSpaceOnUse"
       gradientTransform="matrix(0.08817681,0,0,0.08817681,63.618709,106.37453)" />
    <radialGradient
       xlink:href="#linearGradient7-0"
       id="radialGradient8-6-2"
       cx="108.48183"
       cy="126.56213"
       fx="52.605186"
       fy="75.377106"
       r="151.87456"
       gradientUnits="userSpaceOnUse" />
    <radialGradient
       xlink:href="#linearGradient2-5"
       id="radialGradient3-0"
       cx="81.689285"
       cy="163.6459"
       fx="81.689285"
       fy="163.6459"
       r="70.703392"
       gradientUnits="userSpaceOnUse"
       gradientTransform="matrix(1.1527565,0.00842552,-0.00827659,1.1323805,-18.962501,-44.720364)" />
    <linearGradient
       xlink:href="#linearGradient3"
       id="linearGradient89"
       gradientUnits="userSpaceOnUse"
       gradientTransform="matrix(1.2190932,0,0,1.2190932,-25.73593,-58.222275)"
       x1="89.320221"
       y1="106.46516"
       x2="153.76755"
       y2="122.85452" />
    <radialGradient
       xlink:href="#linearGradient6"
       id="radialGradient10-6"
       cx="140.05202"
       cy="48.642284"
       fx="140.05202"
       fy="48.642284"
       r="29.925861"
       gradientTransform="matrix(1.215901,-1.1346678e-8,0,0.60475582,-33.899479,-25.028252)"
       gradientUnits="userSpaceOnUse" />
    <radialGradient
       xlink:href="#linearGradient2-5"
       id="radialGradient12-8"
       gradientUnits="userSpaceOnUse"
       gradientTransform="matrix(1.1527565,0.00842552,-0.00827659,1.1323805,-18.962501,-44.720364)"
       cx="81.689285"
       cy="163.6459"
       fx="81.689285"
       fy="163.6459"
       r="70.703392" />
    <radialGradient
       xlink:href="#linearGradient6"
       id="radialGradient11-9"
       gradientUnits="userSpaceOnUse"
       gradientTransform="matrix(1.215901,-1.1346678e-8,0,0.60475582,-33.899479,-25.028252)"
       cx="140.05202"
       cy="48.642284"
       fx="140.05202"
       fy="48.642284"
       r="29.925861" />
    <filter
       style="color-interpolation-filters:sRGB"
       id="filter88-0"
       x="-0.027509675"
       y="-0.033824515"
       width="1.0550193"
       height="1.067649">
      <feFlood
         result="flood"
         in="SourceGraphic"
         flood-opacity="1.000000"
         flood-color="rgb(85,71,7)"
         id="feFlood87-7" />
      <feGaussianBlur
         result="blur"
         in="SourceGraphic"
         stdDeviation="1.000000"
         id="feGaussianBlur87-6" />
      <feOffset
         result="offset"
         in="blur"
         dx="0.000000"
         dy="0.000000"
         id="feOffset87-8" />
      <feComposite
         result="comp1"
         operator="in"
         in="offset"
         in2="flood"
         id="feComposite87-2" />
      <feComposite
         result="comp2"
         operator="over"
         in="SourceGraphic"
         in2="comp1"
         id="feComposite88-3" />
    </filter>
    <rect
       x="539.96759"
       y="502.93011"
       width="207.60487"
       height="293.37589"
       id="rect3-90" />
  </defs>
  <g
     id="layer1"
     transform="translate(-12.122139,-60.809219)">
    <circle
       style="fill:#028000;fill-opacity:1;stroke:none;stroke-width:7.9375;stroke-linejoin:round"
       id="path1"
       cx="109.02468"
       cy="157.71176"
       r="96.902542" />
    <circle
       style="display:inline;fill:none;fill-opacity:1;stroke:#91d190;stroke-width:6.70609;stroke-linejoin:round;stroke-opacity:1"
       id="circle88"
       cx="109.02468"
       cy="157.71176"
       r="81.869209" />
    <path
       style="fill:#028000;fill-opacity:1;stroke:none;stroke-width:1;stroke-linejoin:round;stroke-dasharray:none;stroke-opacity:1"
       d="m 65.845159,97.938979 107.224911,-5.063807 -0.29857,37.922128 2.62676,58.8523 13.73333,14.16749 -14.04321,18.0598 -24.21114,0.57877 0.56038,6.9783 2.38411,7.58454 -52.01234,14.30919 L 60.821024,235.52804 70.82755,218.07202 60.597663,191.38818 52.713295,116.86076 Z"
       id="path89" />
    <rect
       style="fill:#ff0000;fill-opacity:1;stroke:#ffffff;stroke-width:5;stroke-linejoin:round;stroke-dasharray:none;stroke-opacity:1"
       id="rect90"
       width="77.426918"
       height="114.0426"
       x="87.064064"
       y="100.74174" />
    <circle
       style="display:inline;fill:none;fill-opacity:1;stroke:none;stroke-width:1;stroke-linejoin:round;stroke-dasharray:none;stroke-opacity:1"
       id="circle1"
       cx="-157.71176"
       cy="-109.02468"
       r="87.360924"
       transform="matrix(0,-1,-1,0,0,0)" />
    <path
       d="m 68.832354,233.73122 q 0.492796,-1.03522 1.303411,-1.54797 l 0.127412,0.0607 q -0.069,0.10391 -0.114486,0.19946 -0.46247,0.97152 -0.12638,2.03014 0.352016,1.0662 1.59428,1.65756 0.891881,0.42456 1.566793,0.23792 0.690839,-0.17907 0.933446,-0.68871 0.242607,-0.50965 0.09998,-0.94872 -0.11912,-0.44741 -0.55906,-1.16476 l -1.579224,-2.50995 q -1.008819,-1.57422 -0.341649,-2.97574 0.06823,-0.14334 0.159975,-0.29503 0.633843,-1.08528 1.717499,-1.35085 1.091237,-0.28149 2.142383,0.21888 1.067072,0.50796 2.177397,1.21233 l 0.860029,0.4094 -1.223726,1.99615 -0.143338,-0.0682 q 0.35633,-0.74854 0.03546,-1.42875 -0.304946,-0.67262 -1.164975,-1.08202 -0.844102,-0.40182 -1.512196,-0.27053 -0.660513,0.11535 -0.941028,0.70463 -0.227444,0.47779 0.08356,1.05562 0.122884,0.23432 0.383052,0.63166 l 1.789322,2.76625 q 0.926896,1.418 0.259726,2.81953 -0.705077,1.48116 -2.135297,1.77711 -1.414293,0.30352 -3.070645,-0.48495 -1.019293,-0.48521 -1.685968,-1.0956 -0.666674,-0.61039 -0.858608,-1.15108 0.04091,-0.33216 0.222863,-0.7144 z m 18.920062,0.50965 0.05178,-0.15007 q 0.247374,-0.717 -0.009,-1.27193 -0.256363,-0.55493 -0.967609,-0.81898 l -1.934228,-0.66733 -2.870691,8.32052 q -0.109889,0.37259 0.07061,0.71475 0.180497,0.34216 0.547333,0.46872 l 0.183419,0.0633 -0.05753,0.16675 -4.602131,-1.5878 0.05753,-0.16674 0.166744,0.0575 q 0.383511,0.13231 0.736594,-0.0258 0.353084,-0.15807 0.4854,-0.54158 l 2.864938,-8.30384 -1.917555,-0.66158 q -0.739425,-0.23646 -1.283433,0.0423 -0.544007,0.2788 -0.791381,0.99579 l -0.05178,0.15007 -0.166744,-0.0575 0.908956,-2.63455 q 0.204677,0.16391 0.709493,0.43138 0.52149,0.27322 0.955024,0.42279 l 6.152848,2.12282 q 0.733673,0.25312 1.235073,0.31416 0.523828,0.0501 0.602031,0.0398 l -0.908956,2.63456 z m 4.728838,-0.8085 -0.552889,-0.11363 -1.761254,8.56978 q -0.08522,0.41466 0.137959,0.73065 0.24401,0.30225 0.606843,0.37682 l 0.190056,0.0391 -0.03551,0.17278 -4.751391,-0.9765 0.03551,-0.17278 0.207333,0.0426 q 0.380112,0.0781 0.692542,-0.12778 0.329708,-0.20236 0.407829,-0.58247 l 1.690235,-8.22422 q 0.07812,-0.38011 -0.145061,-0.69609 -0.205903,-0.31244 -0.568737,-0.387 l -0.224611,-0.0462 0.03551,-0.17277 5.30428,1.09013 q 1.555001,0.31958 2.484664,1.14091 1.036403,0.91529 0.716821,2.47029 -0.205953,1.00212 -0.977569,1.68989 -0.768064,0.67049 -1.99574,0.59826 0.434542,0.25137 0.794991,0.77564 0.377728,0.52782 0.561848,1.03386 0.350487,1.09846 0.784766,2.05208 0.437829,0.93634 0.75095,1.25279 0.330399,0.32001 0.86601,0.43009 l -0.03551,0.17278 -1.451334,-0.29828 q -1.434056,-0.29472 -2.140538,-0.80007 -0.689205,-0.5018 -1.095076,-1.59363 -0.627622,-1.67764 -0.674687,-2.58769 -0.100806,-0.56095 -0.341265,-0.88048 -0.22318,-0.31598 -0.475245,-0.4038 l 0.02841,-0.13822 0.431945,0.0888 q 1.472162,0.28455 2.151981,-1.35848 0.122374,-0.24497 0.161434,-0.43502 0.03906,-0.19006 0.08925,-0.52189 0.05374,-0.3491 -0.06837,-0.80638 -0.101283,-0.47101 -0.373223,-0.72498 -0.468144,-0.43835 -1.03476,-0.57281 -0.186504,-0.0563 -0.428393,-0.10605 z m 16.537546,11.71182 0.14071,0.0106 -0.0133,0.17589 -5.1711,-0.39059 0.0133,-0.17588 0.14071,0.0106 q 0.35178,0.0266 0.52602,-0.17253 0.17424,-0.19911 0.18753,-0.375 0.0133,-0.17589 -0.0425,-0.37468 l -0.56374,-1.66998 -3.72883,-0.28165 -0.8271,1.58262 q -0.08364,0.17057 -0.09825,0.36405 -0.01328,0.17589 0.129072,0.39891 0.161274,0.20676 0.513052,0.23333 l 0.14071,0.0106 -0.0133,0.17589 -3.517757,-0.2657 0.01328,-0.17589 0.140711,0.0106 q 0.369365,0.0279 0.756,-0.17286 0.386636,-0.20076 0.649832,-0.64079 l 4.230739,-7.53443 q 0.90543,-1.68283 0.97117,-2.08472 l 0.1583,0.012 3.96717,10.24094 q 0.19013,0.52735 0.54089,0.80149 0.36968,0.25788 0.75664,0.28711 z m -8.16034,-3.90655 3.1308,0.23648 -1.27015,-3.79297 z m 16.59074,-4.54335 -0.007,-0.15859 q -0.0342,-0.7577 -0.47704,-1.17911 -0.44281,-0.42142 -1.2013,-0.4048 l -2.04403,0.0924 0.39731,8.79284 q 0.0351,0.38686 0.32901,0.63844 0.29388,0.25157 0.68154,0.23406 l 0.19383,-0.009 0.008,0.17621 -4.86337,0.21975 -0.008,-0.17621 0.17621,-0.008 q 0.40528,-0.0183 0.67527,-0.29537 0.26999,-0.27705 0.25168,-0.68233 l -0.39651,-8.77522 -2.02641,0.0916 q -0.77453,0.0526 -1.17752,0.51228 -0.403,0.45963 -0.36876,1.21733 l 0.007,0.15859 -0.17621,0.008 -0.1258,-2.7841 q 0.25068,0.077 0.81853,0.13958 0.58547,0.0618 1.04361,0.0411 l 6.50212,-0.2938 q 0.77532,-0.035 1.26393,-0.16305 0.50544,-0.14644 0.57433,-0.18487 l 0.1258,2.78411 z m 9.67381,6.56921 -8.19565,1.36121 -0.0289,-0.174 0.20881,-0.0347 q 0.40021,-0.0665 0.61787,-0.37083 0.23506,-0.30725 0.18887,-0.69295 l -1.37566,-8.28265 q -0.081,-0.37992 -0.40274,-0.59469 -0.30436,-0.21766 -0.70457,-0.15119 l -0.20881,0.0347 -0.0289,-0.174 6.12498,-1.0173 q 0.46982,-0.078 1.01219,-0.25752 0.54236,-0.17948 0.75412,-0.30406 l 0.45952,2.76669 -0.17401,0.0289 -0.026,-0.15661 q -0.12716,-0.76562 -0.61702,-1.13127 -0.48987,-0.36565 -1.24098,-0.25878 l -2.50568,0.41617 0.70229,4.22833 1.98366,-0.32947 q 0.58872,-0.11566 0.89055,-0.55917 0.30183,-0.4435 0.20357,-1.03512 l -0.0202,-0.1218 0.17401,-0.0289 0.61269,3.68891 -0.17401,0.0289 -0.0202,-0.1218 q -0.13583,-0.81783 -0.80554,-1.08209 -0.345,-0.13938 -0.72781,-0.0758 l -2.00106,0.33236 0.68494,4.12392 2.08807,-0.34681 q 1.07594,-0.19658 1.71723,-0.96467 0.6558,-0.78838 0.80729,-2.02942 l 0.1566,-0.026 z m 2.96445,-1.957 q -1.93256,-0.96178 -2.68061,-3.42602 -0.74805,-2.46424 0.32886,-4.32115 1.09379,-1.86203 3.74369,-2.66644 1.18149,-0.35866 2.39582,-0.48765 1.20922,-0.14587 2.0257,-0.007 l 0.81466,2.68366 -0.13502,0.041 q -1.58805,-2.55949 -4.38986,-1.70897 -1.75535,0.53286 -2.30963,2.04678 -0.54253,1.49192 0.12354,3.68611 0.66095,2.17731 1.85177,3.12461 1.2077,0.94218 2.74363,0.47593 0.84392,-0.25618 1.40121,-0.84933 0.55216,-0.61003 0.54614,-1.41928 l -0.59796,-2.03053 q -0.0974,-0.32069 -0.35112,-0.42799 -0.24203,-0.1293 -0.59647,-0.0217 l -0.2363,0.0717 -0.041,-0.13503 4.33774,-1.31677 0.041,0.13502 -0.20254,0.0615 q -0.74265,0.22544 -0.5377,0.90057 l 0.68657,2.2617 q -0.36018,0.93885 -1.57663,1.97174 -1.21646,1.03288 -2.88742,1.54012 -2.55375,0.75679 -4.49807,-0.18298 z m 16.73036,-16.27274 -0.20835,0.0958 q -0.41668,0.19157 -0.69817,0.59276 -0.26546,0.39383 -0.35113,0.84091 l -0.83393,5.70271 1.50304,3.26939 q 0.17811,0.34521 0.55242,0.48375 0.36694,0.12251 0.75158,-0.0543 l 0.17629,-0.081 0.0737,0.16026 -4.4874,2.06298 -0.0737,-0.16026 0.19231,-0.0884 q 0.36861,-0.16946 0.51452,-0.52774 0.13854,-0.37431 -0.008,-0.73426 l -1.50303,-3.26939 -4.85546,-3.08714 q -0.38646,-0.24943 -0.86687,-0.28095 -0.47176,-0.0549 -0.90447,0.14402 l -0.19232,0.0884 -0.0737,-0.16026 4.87203,-2.23981 0.0737,0.16026 -0.17629,0.081 q -0.3045,0.13999 -0.35296,0.41464 -0.0398,0.25126 0.0265,0.3955 0.0589,0.12821 0.17462,0.21092 l 3.82611,2.70616 0.46897,-4.68073 q -0.003,-0.13429 -0.0624,-0.2625 -0.0663,-0.14424 -0.29896,-0.27024 -0.22399,-0.1494 -0.52849,-0.009 l -0.16027,0.0737 -0.0737,-0.16026 3.42966,-1.57671 z"
       id="text89"
       style="-inkscape-font-specification:'Cinzel, Bold';fill:#ffffff;stroke-linejoin:round"
       aria-label="strategy" />
    <g
       class=""
       style="fill:#db0606;fill-opacity:1;stroke:#ffffff;stroke-width:40;stroke-dasharray:none;stroke-opacity:1;paint-order:stroke fill markers"
       id="g2"
       transform="matrix(0.1350087,0,0,0.1350087,115.20434,144.06648)">
      <path
         d="m 66.54,18.002 c -0.327,-0.007 -0.655,-0.005 -0.98,0.006 -4.064,0.136 -8.105,1.634 -11.39,4.535 -7.508,6.632 -8.218,18.094 -1.586,25.602 4.394,4.974 10.906,6.945 16.986,5.792 l 57.838,65.475 -50.373,44.498 24.188,27.38 c 9.69,-21.368 22.255,-39.484 37.427,-54.65 l 6.91,36.188 c 25.092,-6.29 49.834,-10.563 74.366,-12.873 l -23.912,-27.07 -38.66,-12.483 c 17.117,-12.9 36.734,-22.97 58.62,-30.474 l -24.19,-27.385 -50.37,44.496 -57.92,-65.57 c 1.79,-5.835 0.617,-12.43 -3.72,-17.34 -3.498,-3.96 -8.34,-6.03 -13.235,-6.128 z m 384.397,0 c -4.895,0.1 -9.735,2.168 -13.232,6.127 -4.338,4.91 -5.514,11.506 -3.723,17.343 l -57.92,65.568 -50.37,-44.497 -24.188,27.385 c 21.884,7.504 41.5,17.573 58.62,30.472 l -38.66,12.485 -23.255,26.324 c 24.71,1.863 49.367,5.706 74.118,11.46 l 6.498,-34.03 c 15.173,15.166 27.74,33.282 37.43,54.65 l 24.185,-27.38 -50.372,-44.498 57.838,-65.475 c 6.08,1.153 12.593,-0.818 16.987,-5.792 6.63,-7.508 5.92,-18.97 -1.586,-25.602 -3.285,-2.9 -7.326,-4.4 -11.39,-4.535 -0.326,-0.01 -0.653,-0.013 -0.98,-0.006 z m -186.425,158.51 c -39.56,-0.098 -79.467,5.226 -120.633,16.095 -2.046,90.448 34.484,209.35 118.47,259.905 81.295,-49.13 122.402,-169.902 120.552,-259.914 -39.75,-10.496 -78.91,-15.988 -118.39,-16.086 z m -117.176,153.5 -86.866,98.338 -12.2,63.894 61.9,-19.994 68.49,-77.535 c -12.86,-20.108 -23.246,-42.03 -31.324,-64.703 z m 228.203,6.11 c -8.69,22.238 -19.577,43.634 -32.706,63.142 l 64.473,72.986 61.898,19.994 -12.2,-63.894 -81.466,-92.23 z"
         fill="#fff"
         fill-opacity="1"
         id="path2"
         style="fill:#db0606;fill-opacity:1;stroke:#ffffff;stroke-width:40;stroke-dasharray:none;stroke-opacity:1;paint-order:stroke fill markers" />
    </g>
    <path
       style="fill:#ff0000;fill-opacity:1;stroke:#ffffff;stroke-width:4.168;stroke-linejoin:miter;stroke-dasharray:none;stroke-opacity:1"
       d="M 48.018263,134.82512 V 179.2982 L 98.209305,156.74399 Z"
       id="path90" />
  </g>
</svg>
