<?xml version="1.0" encoding="UTF-8" standalone="no"?>
<svg
   fill="#000000"
   height="840"
   width="840"
   version="1.1"
   id="Capa_1"
   viewBox="0 0 63 63"
   xml:space="preserve"
   xmlns:xlink="http://www.w3.org/1999/xlink"
   xmlns="http://www.w3.org/2000/svg"
   xmlns:svg="http://www.w3.org/2000/svg"><defs
   id="defs1"><linearGradient
     xlink:href="#linearGradient2-7"
     id="linearGradient3"
     x1="180.3654"
     y1="491.33411"
     x2="342.78079"
     y2="14.6231"
     gradientUnits="userSpaceOnUse"
     gradientTransform="matrix(0.075,0,0,0.075,68.102234,-1.429725)" /><linearGradient
     id="linearGradient2-7"><stop
       style="stop-color:#b57f29;stop-opacity:1;"
       offset="0"
       id="stop2-6" /><stop
       style="stop-color:#f3eac7;stop-opacity:1;"
       offset="1"
       id="stop3" /></linearGradient></defs>&#10;<path
   d="m 31.5,1.5 c -16.542,0 -30,13.458 -30,30 0,16.542 13.458,30 30,30 16.542,0 30,-13.458 30,-30 0,-16.542 -13.458,-30 -30,-30 z m 20.236,42.907 c -0.208,0.325 -0.424,0.644 -0.648,0.959 -0.032,0.045 -0.063,0.091 -0.096,0.136 -0.214,0.298 -0.437,0.589 -0.664,0.877 -0.045,0.057 -0.088,0.115 -0.134,0.171 -0.221,0.274 -0.45,0.541 -0.683,0.805 -0.054,0.062 -0.106,0.125 -0.161,0.187 -0.285,0.317 -0.578,0.628 -0.88,0.929 -0.303,0.302 -0.614,0.596 -0.932,0.882 -0.056,0.05 -0.114,0.097 -0.17,0.147 -0.27,0.238 -0.544,0.473 -0.824,0.699 -0.051,0.041 -0.103,0.08 -0.154,0.12 -0.293,0.232 -0.591,0.459 -0.895,0.678 -0.04,0.029 -0.081,0.057 -0.122,0.086 -0.318,0.226 -0.641,0.445 -0.97,0.655 -0.016,0.01 -0.032,0.02 -0.048,0.03 L 36.329,37.869 c 0.02,-0.015 0.037,-0.035 0.058,-0.05 0.535,-0.415 1.015,-0.895 1.43,-1.43 0.016,-0.02 0.035,-0.037 0.05,-0.058 l 13.899,8.026 c -0.009,0.016 -0.019,0.033 -0.03,0.05 z M 11.269,18.586 c 0.204,-0.318 0.416,-0.63 0.634,-0.938 0.037,-0.052 0.073,-0.105 0.111,-0.157 0.208,-0.289 0.424,-0.571 0.645,-0.851 0.051,-0.065 0.101,-0.131 0.153,-0.196 0.213,-0.264 0.434,-0.522 0.659,-0.777 0.062,-0.07 0.121,-0.143 0.183,-0.213 0.284,-0.316 0.576,-0.625 0.876,-0.925 0.302,-0.302 0.612,-0.594 0.929,-0.88 0.062,-0.056 0.126,-0.108 0.188,-0.163 0.263,-0.232 0.53,-0.461 0.803,-0.681 0.057,-0.046 0.116,-0.09 0.174,-0.136 0.287,-0.227 0.579,-0.45 0.876,-0.664 0.043,-0.031 0.087,-0.061 0.131,-0.092 0.319,-0.226 0.642,-0.445 0.972,-0.656 0.014,-0.009 0.027,-0.017 0.041,-0.026 l 8.025,13.899 c -0.02,0.015 -0.037,0.035 -0.058,0.05 -0.535,0.415 -1.015,0.895 -1.43,1.43 -0.016,0.02 -0.035,0.037 -0.05,0.058 L 11.233,18.644 c 0.012,-0.019 0.024,-0.038 0.036,-0.058 z m 26.549,8.025 c -0.415,-0.535 -0.895,-1.015 -1.43,-1.43 -0.02,-0.016 -0.037,-0.035 -0.058,-0.05 l 8.017,-13.885 c 2.977,1.895 5.511,4.429 7.406,7.406 l -13.885,8.017 c -0.015,-0.02 -0.034,-0.037 -0.05,-0.058 z M 26.669,37.869 18.651,51.755 C 15.674,49.86 13.14,47.326 11.245,44.349 l 13.886,-8.018 c 0.015,0.02 0.035,0.037 0.05,0.058 0.415,0.535 0.895,1.015 1.43,1.43 0.021,0.015 0.038,0.034 0.058,0.05 z M 36.5,31.5 c 0,2.758 -2.242,5 -5,5 -2.758,0 -5,-2.242 -5,-5 0,-2.758 2.242,-5 5,-5 2.758,0 5,2.242 5,5 z M 34.602,24.127 C 33.942,23.848 33.235,23.662 32.5,23.57 V 7.525 c 3.578,0.146 7.018,1.076 10.123,2.709 z M 30.5,23.569 c -0.736,0.092 -1.443,0.278 -2.102,0.557 l -8.025,-13.9 C 23.477,8.598 26.918,7.671 30.5,7.525 Z m -6.373,4.829 c -0.279,0.66 -0.465,1.367 -0.557,2.102 H 7.524 C 7.67,26.918 8.598,23.477 10.227,20.373 Z M 23.569,32.5 c 0.092,0.735 0.278,1.442 0.557,2.102 L 10.233,42.624 C 8.601,39.518 7.671,36.078 7.524,32.5 Z m 4.829,6.374 c 0.66,0.279 1.367,0.465 2.102,0.557 V 55.476 C 26.922,55.33 23.482,54.4 20.376,52.767 Z m 4.102,0.557 c 0.736,-0.092 1.443,-0.278 2.102,-0.557 l 8.025,13.9 C 39.523,54.402 36.082,55.33 32.5,55.476 Z m 6.373,-4.829 c 0.279,-0.66 0.465,-1.367 0.557,-2.102 h 16.045 c -0.146,3.582 -1.073,7.023 -2.702,10.128 z M 39.431,30.5 c -0.092,-0.736 -0.278,-1.442 -0.557,-2.102 l 13.893,-8.021 c 1.632,3.105 2.562,6.545 2.709,10.123 z"
   id="path1"
   style="font-variation-settings:normal;opacity:1;vector-effect:none;fill:url(#linearGradient3);fill-opacity:1;stroke:#040404;stroke-width:3;stroke-linecap:butt;stroke-linejoin:round;stroke-miterlimit:4;stroke-dasharray:none;stroke-dashoffset:0;stroke-opacity:1;-inkscape-stroke:none;paint-order:stroke fill markers;stop-color:#000000;stop-opacity:1" />&#10;</svg>
